<svg width="24" height="25" viewBox="0 0 24 25" fill="none" xmlns="http://www.w3.org/2000/svg">
<path d="M17.0915 9.09749L13.455 12.734L17.0913 16.3704C17.4913 16.7704 17.4913 17.4249 17.0913 17.825C16.6913 18.225 16.0367 18.225 15.6367 17.825L12.0004 14.1887L8.36381 17.8252C7.96379 18.2252 7.30923 18.2252 6.90924 17.8253C6.50924 17.4253 6.50926 16.7707 6.90928 16.3707L10.5458 12.7341L6.90949 9.09778C6.50949 8.69779 6.50951 8.04323 6.90953 7.64321C7.30955 7.24319 7.96411 7.24317 8.36411 7.64316L12.0004 11.2795L15.637 7.64296C16.037 7.24294 16.6916 7.24292 17.0916 7.64291C17.4916 8.04291 17.4916 8.69747 17.0915 9.09749Z" fill="#141414"/>
</svg>
