<svg width="373" height="175" viewBox="0 0 373 175" fill="none" xmlns="http://www.w3.org/2000/svg">
<line x1="12.7462" y1="0.00781248" x2="12.7462" y2="174.032" stroke="#5484F0" stroke-opacity="0.1" stroke-width="1.06857"/>
<line x1="28.0108" y1="0.00781248" x2="28.0109" y2="174.032" stroke="#5484F0" stroke-opacity="0.1" stroke-width="1.06857"/>
<line x1="43.2765" y1="0.00781248" x2="43.2765" y2="174.032" stroke="#5484F0" stroke-opacity="0.1" stroke-width="1.06857"/>
<line x1="58.5421" y1="0.00781248" x2="58.5421" y2="174.032" stroke="#5484F0" stroke-opacity="0.1" stroke-width="1.06857"/>
<line x1="73.8067" y1="0.00781248" x2="73.8068" y2="174.032" stroke="#5484F0" stroke-opacity="0.1" stroke-width="1.06857"/>
<line x1="89.0724" y1="0.00781248" x2="89.0724" y2="174.032" stroke="#5484F0" stroke-opacity="0.1" stroke-width="1.06857"/>
<line x1="104.338" y1="0.00781248" x2="104.338" y2="174.032" stroke="#5484F0" stroke-opacity="0.1" stroke-width="1.06857"/>
<line x1="119.603" y1="0.00781248" x2="119.603" y2="174.032" stroke="#5484F0" stroke-opacity="0.1" stroke-width="1.06857"/>
<line x1="134.868" y1="0.00781248" x2="134.868" y2="174.032" stroke="#5484F0" stroke-opacity="0.1" stroke-width="1.06857"/>
<line x1="150.134" y1="0.00781248" x2="150.134" y2="174.032" stroke="#5484F0" stroke-opacity="0.1" stroke-width="1.06857"/>
<line x1="165.399" y1="0.00781248" x2="165.399" y2="174.032" stroke="#5484F0" stroke-opacity="0.1" stroke-width="1.06857"/>
<line x1="180.664" y1="0.00781248" x2="180.664" y2="174.032" stroke="#5484F0" stroke-opacity="0.1" stroke-width="1.06857"/>
<line x1="195.93" y1="0.00781248" x2="195.93" y2="174.032" stroke="#5484F0" stroke-opacity="0.1" stroke-width="1.06857"/>
<line x1="211.194" y1="0.00781248" x2="211.194" y2="174.032" stroke="#5484F0" stroke-opacity="0.1" stroke-width="1.06857"/>
<line x1="226.46" y1="0.00781248" x2="226.46" y2="174.032" stroke="#5484F0" stroke-opacity="0.1" stroke-width="1.06857"/>
<line x1="241.726" y1="0.00781248" x2="241.726" y2="174.032" stroke="#5484F0" stroke-opacity="0.1" stroke-width="1.06857"/>
<line x1="256.99" y1="0.00781248" x2="256.99" y2="174.032" stroke="#5484F0" stroke-opacity="0.1" stroke-width="1.06857"/>
<line x1="272.256" y1="0.00781248" x2="272.256" y2="174.032" stroke="#5484F0" stroke-opacity="0.1" stroke-width="1.06857"/>
<line x1="287.522" y1="0.00781248" x2="287.522" y2="174.032" stroke="#5484F0" stroke-opacity="0.1" stroke-width="1.06857"/>
<line x1="302.786" y1="0.00781248" x2="302.786" y2="174.032" stroke="#5484F0" stroke-opacity="0.1" stroke-width="1.06857"/>
<line x1="318.052" y1="0.00781248" x2="318.052" y2="174.032" stroke="#5484F0" stroke-opacity="0.1" stroke-width="1.06857"/>
<line x1="333.317" y1="0.00781248" x2="333.318" y2="174.032" stroke="#5484F0" stroke-opacity="0.1" stroke-width="1.06857"/>
<line x1="348.583" y1="0.00781248" x2="348.583" y2="174.032" stroke="#5484F0" stroke-opacity="0.1" stroke-width="1.06857"/>
<line x1="363.848" y1="0.00781248" x2="363.848" y2="174.032" stroke="#5484F0" stroke-opacity="0.1" stroke-width="1.06857"/>
<line x1="374" y1="3.58897" x2="-3.05176e-05" y2="3.58897" stroke="#5484F0" stroke-opacity="0.1" stroke-width="1.06857"/>
<line x1="374" y1="18.8546" x2="-3.05176e-05" y2="18.8546" stroke="#5484F0" stroke-opacity="0.1" stroke-width="1.06857"/>
<line x1="374" y1="34.1202" x2="-3.05176e-05" y2="34.1202" stroke="#5484F0" stroke-opacity="0.1" stroke-width="1.06857"/>
<line x1="374" y1="49.378" x2="-3.05176e-05" y2="49.378" stroke="#5484F0" stroke-opacity="0.1" stroke-width="1.06857"/>
<line x1="374" y1="64.6437" x2="-3.05176e-05" y2="64.6437" stroke="#5484F0" stroke-opacity="0.1" stroke-width="1.06857"/>
<line x1="374" y1="79.9093" x2="-3.05176e-05" y2="79.9093" stroke="#5484F0" stroke-opacity="0.1" stroke-width="1.06857"/>
<line x1="374" y1="95.1749" x2="-3.05176e-05" y2="95.1749" stroke="#5484F0" stroke-opacity="0.1" stroke-width="1.06857"/>
<line x1="374" y1="110.441" x2="-3.05176e-05" y2="110.441" stroke="#5484F0" stroke-opacity="0.1" stroke-width="1.06857"/>
<line x1="374" y1="125.706" x2="-3.05176e-05" y2="125.706" stroke="#5484F0" stroke-opacity="0.1" stroke-width="1.06857"/>
<line x1="374" y1="140.972" x2="-3.05176e-05" y2="140.972" stroke="#5484F0" stroke-opacity="0.1" stroke-width="1.06857"/>
<line x1="374" y1="156.237" x2="-3.05176e-05" y2="156.237" stroke="#5484F0" stroke-opacity="0.1" stroke-width="1.06857"/>
<line x1="374" y1="171.503" x2="-3.05176e-05" y2="171.503" stroke="#5484F0" stroke-opacity="0.1" stroke-width="1.06857"/>
</svg>
