<svg width="1727" height="1050" viewBox="0 0 1727 1050" fill="none" xmlns="http://www.w3.org/2000/svg">
<path d="M30.5 0L30.5001 1120M60.5 0L60.5001 1120M89.5 0L89.5001 1120M119.5 0L119.5 1120M149.5 0L149.5 1120M179.5 0L179.5 1120M209.5 0L209.5 1120M238.5 0L238.5 1120M268.5 0L268.5 1120M298.5 0L298.5 1120M328.5 0L328.5 1120M358.5 0L358.5 1120M387.5 0L387.5 1120M417.5 0L417.5 1120M447.5 0L447.5 1120M477.5 0L477.5 1120M506.5 0L506.5 1120M536.5 0L536.5 1120M566.5 0L566.5 1120M596.5 0L596.5 1120M626.5 0L626.5 1120M655.5 0L655.5 1120M685.5 0L685.5 1120M715.5 0L715.5 1120M745.5 0L745.5 1120M775.5 0L775.5 1120M804.5 0L804.5 1120M834.5 0L834.5 1120M864.5 0L864.5 1120M893.5 0L893.5 1120M923.5 0L923.5 1120M952.5 0L952.5 1120M982.5 0L982.5 1120M1012.5 0L1012.5 1120M1042.5 0V1120M1072.5 0V1120M1101.5 0V1120M1131.5 0V1120M1161.5 0V1120M1191.5 0V1120M1221.5 0V1120M1250.5 0V1120M1280.5 0V1120M1310.5 0V1120M1340.5 0V1120M1369.5 0V1120M1399.5 0V1120M1429.5 0V1120M1459.5 0V1120M1489.5 0V1120M1518.5 0V1120M1548.5 0V1120M1578.5 0V1120M1608.5 0V1120M1638.5 0V1120M1667.5 0V1120M1697.5 0V1120M1727.5 0V1120M0.5 0L0.500049 1120M1727 -178.5L3.14685e-10 -178.5M1727 -148.5L0 -148.5M1727 -119.5H4.83851e-10M1727 -89.5H1.29148e-10M1727 -59.5H0M1727 -29.5H0M1727 0.5H0M1727 29.5H0M1727 59.5H0M1727 89.5H0M1727 119.5H0M1727 149.5H0M1727 178.5H0M1727 208.5H0M1727 238.5H0M1727 268.5H0M1727 297.5H0M1727 327.5H0M1727 357.5H0M1727 387.5H0M1727 417.5H0M1727 446.5H0M1727 476.5H0M1727 506.5H0M1727 536.5H0M1727 566.5H0M1727 595.5H0M1727 625.5H0M1727 655.5H0M1727 684.5H0M1727 714.5H0M1727 743.5H0M1727 773.5H0M1727 803.5H0M1727 833.5H0M1727 863.5H0M1727 892.5H0M1727 922.5H0M1727 952.5H0M1727 982.5H0M1727 1012.5H0M1727 1041.5H0M1727 1071.5H0M1727 1101.5H0M1727 1131.5H0M1727 1160.5H0M1727 1190.5H0M1727 1220.5H0M1727 1250.5H0M1727 1280.5H0M1727 1309.5H0M1727 1339.5H0M1727 1369.5H0M1727 1399.5H0M1727 1429.5H0M1727 1458.5H0M1727 1488.5H0M1727 1518.5H0M1727 -208.5H2.03363e-09" stroke="#D9D9D9"/>
</svg>
