<svg width="17" height="17" viewBox="0 0 17 17" fill="none" xmlns="http://www.w3.org/2000/svg">
<g id="Icon">
<path id="Vector" d="M12.9143 9.08574H9.48571V12.5141C9.48571 12.8912 9.17714 13.1998 8.8 13.1998C8.42286 13.1998 8.11429 12.8912 8.11429 12.5141V9.08574H4.68571C4.30857 9.08574 4 8.77719 4 8.40007C4 8.02294 4.30857 7.71439 4.68571 7.71439H8.11429V4.28602C8.11429 3.9089 8.42286 3.60034 8.8 3.60034C9.17714 3.60034 9.48571 3.9089 9.48571 4.28602V7.71439H12.9143C13.2914 7.71439 13.6 8.02294 13.6 8.40007C13.6 8.77719 13.2914 9.08574 12.9143 9.08574Z" fill="white"/>
</g>
</svg>
