<svg width="16" height="16" viewBox="0 0 16 16" fill="none" xmlns="http://www.w3.org/2000/svg">
<g id="Variant=Close, Size=16, Color=White">
<path id="Vector" d="M11.3935 5.57453L8.96917 7.99889L11.3934 10.4231C11.6601 10.6898 11.6601 11.1262 11.3934 11.3928C11.1267 11.6595 10.6903 11.6595 10.4237 11.3929L7.99943 8.96864L5.57506 11.393C5.30838 11.6597 4.87201 11.6597 4.60534 11.393C4.33868 11.1264 4.33869 10.69 4.60537 10.4233L7.02974 7.99895L4.60551 5.57472C4.33885 5.30806 4.33886 4.87168 4.60554 4.605C4.87222 4.33832 5.30859 4.33831 5.57526 4.60497L7.99948 7.0292L10.4238 4.60484C10.6905 4.33815 11.1269 4.33814 11.3936 4.60481C11.6602 4.87147 11.6602 5.30785 11.3935 5.57453Z" fill="white"/>
</g>
</svg>
