<svg width="20" height="20" viewBox="0 0 20 20" fill="none" xmlns="http://www.w3.org/2000/svg">
<g id="Icon">
<path id="Vector" d="M14.2732 7.08854L11.364 9.99778L14.2731 12.9069C14.5931 13.2268 14.593 13.7505 14.273 14.0705C13.953 14.3905 13.4294 14.3905 13.1094 14.0705L10.2003 11.1615L7.29105 14.0707C6.97103 14.3907 6.44739 14.3907 6.12739 14.0707C5.80739 13.7507 5.80741 13.2271 6.12742 12.9071L9.03666 9.99785L6.12759 7.08877C5.80759 6.76878 5.80761 6.24513 6.12762 5.92511C6.44764 5.6051 6.97129 5.60508 7.29128 5.92508L10.2004 8.83415L13.1096 5.92491C13.4296 5.6049 13.9533 5.60488 14.2733 5.92488C14.5933 6.24488 14.5932 6.76852 14.2732 7.08854Z" fill="white"/>
</g>
</svg>
