<svg width="17" height="16" viewBox="0 0 17 16" fill="none" xmlns="http://www.w3.org/2000/svg">
<g id="Icon" clip-path="url(#clip0_5113_15567)">
<path id="Vector" d="M16.4861 7.69575C16.463 7.64512 15.9155 6.4295 14.7061 5.22012C13.088 3.6045 11.0486 2.75012 8.79859 2.75012C6.54859 2.75012 4.50921 3.6045 2.89296 5.22012C1.68359 6.4295 1.13609 7.64512 1.11109 7.69575C1.06874 7.79174 1.04688 7.89551 1.04688 8.00043C1.04688 8.10536 1.06874 8.20912 1.11109 8.30512C1.13421 8.35637 1.68171 9.57137 2.89171 10.7807C4.50921 12.3964 6.54859 13.2501 8.79859 13.2501C11.0486 13.2501 13.088 12.3964 14.7036 10.7807C15.9136 9.57137 16.4611 8.35637 16.4842 8.30512C16.5268 8.20925 16.549 8.10555 16.5494 8.00063C16.5497 7.89571 16.5281 7.79187 16.4861 7.69575ZM13.6073 9.75825C12.2655 11.0795 10.648 11.7501 8.79859 11.7501C6.94921 11.7501 5.33171 11.0795 3.99171 9.75762C3.46443 9.23589 3.01086 8.64459 2.64359 8.00012C3.01097 7.35591 3.46452 6.76483 3.99171 6.24325C5.33234 4.92075 6.94921 4.25012 8.79859 4.25012C10.648 4.25012 12.2648 4.92075 13.6055 6.24325C14.1327 6.76479 14.5863 7.35587 14.9536 8.00012C14.5863 8.64455 14.1327 9.23584 13.6055 9.75762L13.6073 9.75825ZM8.79859 5.25012C8.25469 5.25012 7.723 5.41141 7.27077 5.71358C6.81853 6.01575 6.46606 6.44525 6.25792 6.94774C6.04978 7.45024 5.99532 8.00317 6.10143 8.53662C6.20754 9.07007 6.46945 9.56007 6.85404 9.94466C7.23864 10.3293 7.72864 10.5912 8.26209 10.6973C8.79554 10.8034 9.34847 10.7489 9.85097 10.5408C10.3535 10.3326 10.783 9.98017 11.0851 9.52794C11.3873 9.0757 11.5486 8.54402 11.5486 8.00012C11.5478 7.27103 11.2578 6.57204 10.7422 6.05649C10.2267 5.54095 9.52768 5.25095 8.79859 5.25012ZM8.79859 9.25012C8.55136 9.25012 8.30968 9.17681 8.10412 9.03946C7.89856 8.90211 7.73835 8.70688 7.64374 8.47848C7.54913 8.25007 7.52437 7.99873 7.5726 7.75626C7.62084 7.51378 7.73989 7.29105 7.9147 7.11624C8.08952 6.94142 8.31225 6.82237 8.55472 6.77414C8.7972 6.72591 9.04853 6.75066 9.27694 6.84527C9.50535 6.93988 9.70057 7.1001 9.83792 7.30566C9.97528 7.51122 10.0486 7.75289 10.0486 8.00012C10.0486 8.33164 9.91689 8.64958 9.68247 8.884C9.44805 9.11843 9.13011 9.25012 8.79859 9.25012Z" fill="#E5E5EB"/>
</g>
<defs>
<clipPath id="clip0_5113_15567">
<rect width="16" height="16" fill="white" transform="translate(0.798828 0.00012207)"/>
</clipPath>
</defs>
</svg>
