<svg width="20" height="20" viewBox="0 0 20 20" fill="none" xmlns="http://www.w3.org/2000/svg">
<g id="dark">
<path id="Vector" d="M16.9035 12.2051C16.0921 12.5433 15.2215 12.7168 14.3424 12.7157C12.5773 12.7157 10.8845 12.0145 9.63642 10.7664C8.38831 9.51826 7.68713 7.82546 7.68713 6.06036C7.68713 5.15251 7.8687 4.28766 8.19771 3.49927C6.98506 4.00515 5.94923 4.85855 5.22067 5.952C4.49211 7.04545 4.1034 8.33004 4.10352 9.64398C4.10352 11.4091 4.8047 13.1019 6.0528 14.35C7.30091 15.5981 8.99371 16.2993 10.7588 16.2993C12.0727 16.2994 13.3573 15.9107 14.4508 15.1821C15.5442 14.4536 16.3976 13.4177 16.9035 12.2051Z" stroke="#0A0A0A" stroke-width="1.02389" stroke-linecap="round" stroke-linejoin="round"/>
</g>
</svg>
