<svg width="17" height="16" viewBox="0 0 17 16" fill="none" xmlns="http://www.w3.org/2000/svg">
<g id="Icon">
<path id="Vector" d="M8.91864 1.58296C8.66464 1.26629 8.1313 1.26629 7.8773 1.58296L2.54397 8.24963C2.46573 8.34776 2.41675 8.46598 2.40266 8.5907C2.38857 8.71542 2.40993 8.84158 2.4643 8.9547C2.51867 9.06783 2.60384 9.16332 2.71003 9.23023C2.81622 9.29714 2.93913 9.33275 3.06464 9.33296H5.7313V13.9996C5.7313 14.1764 5.80154 14.346 5.92656 14.471C6.05159 14.5961 6.22116 14.6663 6.39797 14.6663H10.398C10.5748 14.6663 10.7443 14.5961 10.8694 14.471C10.9944 14.346 11.0646 14.1764 11.0646 13.9996V9.33296H13.7313C13.8568 9.33275 13.9797 9.29714 14.0859 9.23023C14.1921 9.16332 14.2773 9.06783 14.3316 8.9547C14.386 8.84158 14.4074 8.71542 14.3933 8.5907C14.3792 8.46598 14.3302 8.34776 14.252 8.24963L8.91864 1.58296ZM10.398 7.99963H9.7313V13.333H7.06464V7.99963H4.45197L8.39797 3.06696L12.344 7.99963H10.398Z" fill="#E5E5EB"/>
</g>
</svg>
