<svg width="17" height="16" viewBox="0 0 17 16" fill="none" xmlns="http://www.w3.org/2000/svg">
<g id="iconamoon:search">
<path id="Vector" d="M14.2013 14.0009L11.306 11.1055M11.306 11.1055C11.8012 10.6103 12.1941 10.0223 12.4621 9.37523C12.7302 8.72815 12.8681 8.0346 12.8681 7.3342C12.8681 6.6338 12.7302 5.94026 12.4621 5.29317C12.1941 4.64609 11.8012 4.05813 11.306 3.56287C10.8107 3.06761 10.2228 2.67475 9.57567 2.40672C8.92859 2.13869 8.23504 2.00073 7.53464 2.00073C6.83424 2.00073 6.1407 2.13869 5.49361 2.40672C4.84653 2.67475 4.25857 3.06761 3.76331 3.56287C2.76309 4.56309 2.20117 5.91968 2.20117 7.3342C2.20117 8.74873 2.76309 10.1053 3.76331 11.1055C4.76353 12.1058 6.12012 12.6677 7.53464 12.6677C8.94917 12.6677 10.3058 12.1058 11.306 11.1055Z" stroke="#B3B3B3" stroke-width="1.6" stroke-linecap="round" stroke-linejoin="round"/>
</g>
</svg>
