<svg width="17" height="17" viewBox="0 0 17 17" fill="none" xmlns="http://www.w3.org/2000/svg">
<g id="Icon">
<path id="Vector" d="M5.26953 11.7434L8.21153 11.7334L14.6329 5.37338C14.8849 5.12138 15.0235 4.78672 15.0235 4.43072C15.0235 4.07472 14.8849 3.74005 14.6329 3.48805L13.5755 2.43072C13.0715 1.92672 12.1922 1.92938 11.6922 2.42872L5.26953 8.79005V11.7434ZM12.6329 3.37338L13.6922 4.42872L12.6275 5.48338L11.5702 4.42672L12.6329 3.37338ZM6.60286 9.34605L10.6229 5.36405L11.6802 6.42138L7.66086 10.4021L6.60286 10.4054V9.34605Z" fill="white"/>
<path id="Vector_2" d="M3.9349 14.4004H13.2682C14.0036 14.4004 14.6016 13.8024 14.6016 13.0671V7.28839L13.2682 8.62172V13.0671H6.04023C6.0229 13.0671 6.0049 13.0737 5.98756 13.0737C5.96556 13.0737 5.94356 13.0677 5.9209 13.0671H3.9349V3.73372H8.49956L9.8329 2.40039H3.9349C3.19956 2.40039 2.60156 2.99839 2.60156 3.73372V13.0671C2.60156 13.8024 3.19956 14.4004 3.9349 14.4004Z" fill="white"/>
</g>
</svg>
