<svg width="129" height="36" viewBox="0 0 129 36" fill="none" xmlns="http://www.w3.org/2000/svg">
<g id="Logomark + Typo">
<g id="Icon">
<path id="Vector" d="M0.296875 31.4886V6.66162H10.1408V21.1235L0.296875 31.4886Z" fill="#9192FF"/>
<path id="Vector_2" d="M20.7805 35.2524V6.66162H10.2852V21.1307L20.7805 35.2524Z" fill="#ADAEFF"/>
<path id="Vector_3" d="M18.1816 0.871094H2.92353C1.47589 0.871094 0.310547 2.04368 0.310547 3.48408V6.53859H20.8018V3.48408C20.8018 2.04368 19.6292 0.871094 18.1816 0.871094ZM3.62563 4.88105C3.09725 4.88105 2.67019 4.45399 2.67019 3.92561C2.67019 3.39722 3.09725 2.97017 3.62563 2.97017C4.15402 2.97017 4.58107 3.39722 4.58107 3.92561C4.58107 4.45399 4.15402 4.88105 3.62563 4.88105ZM7.37501 4.88105C6.84662 4.88105 6.41957 4.45399 6.41957 3.92561C6.41957 3.39722 6.84662 2.97017 7.37501 2.97017C7.9034 2.97017 8.33045 3.39722 8.33045 3.92561C8.33045 4.45399 7.9034 4.88105 7.37501 4.88105ZM11.1244 4.88105C10.596 4.88105 10.169 4.45399 10.169 3.92561C10.169 3.39722 10.596 2.97017 11.1244 2.97017C11.6528 2.97017 12.0798 3.39722 12.0798 3.92561C12.0798 4.45399 11.6528 4.88105 11.1244 4.88105Z" fill="#6166F1"/>
</g>
<g id="Linkcollect(Text)">
<g id="Group">
<path id="Vector_4" d="M61.8651 14.8118L57.6887 20.103V10.4183H54.873V25.7705H57.6887V24.3662L59.643 21.7822L61.8651 25.7705H65.0861L61.4453 19.3791L65.0861 14.8118H61.8651Z" fill="white"/>
<path id="Vector_5" d="M51.4351 16.0206C50.9936 15.5719 50.4724 15.2172 49.8789 14.9639C49.2854 14.7033 48.6557 14.573 47.9825 14.573C47.36 14.573 46.7593 14.6888 46.1874 14.9132C45.6229 15.1303 45.109 15.4488 44.6602 15.8542L43.7337 14.7901H43.0605V25.7705H45.8617V19.495C45.8617 19.2054 45.9196 18.9376 46.0282 18.6843C46.1368 18.4237 46.2888 18.1993 46.477 18.0039C46.6652 17.8157 46.8968 17.6637 47.1501 17.5551C47.4107 17.4466 47.6857 17.3887 47.9825 17.3887C48.272 17.3887 48.5398 17.4466 48.7932 17.5551C49.0465 17.6637 49.2709 17.8157 49.4591 18.0039C49.6545 18.1921 49.7993 18.4237 49.9079 18.6843C50.0164 18.9376 50.0743 19.2054 50.0743 19.495V25.7705H52.8755V19.495C52.8755 18.8218 52.7452 18.1849 52.4847 17.5841C52.2313 16.9833 51.8839 16.4622 51.4351 16.0206Z" fill="white"/>
<path id="Vector_6" d="M40.9166 14.7902H38.0938V25.7705H40.9166V14.7902Z" fill="white"/>
<path id="Vector_7" d="M29.5026 11.0624H26.5566V25.7704H36.8566V22.8245H29.5026V11.0624Z" fill="white"/>
<path id="Vector_8" d="M68.8785 18.098C69.1319 17.8085 69.4286 17.5913 69.7616 17.4321C70.1018 17.2728 70.4637 17.1932 70.8473 17.1932C71.1223 17.1932 71.3902 17.2367 71.6507 17.3163C71.9113 17.3959 72.1502 17.5189 72.3673 17.6782C72.5917 17.8374 72.7944 18.0329 72.9753 18.2645C73.1563 18.4889 73.2938 18.7494 73.3951 19.0317L75.4435 16.9688C75.1974 16.549 74.9007 16.1799 74.5605 15.8614C74.2275 15.5429 73.8584 15.2679 73.453 15.0507C73.0549 14.8263 72.6351 14.6526 72.1936 14.5368C71.7593 14.421 71.3105 14.3631 70.8473 14.3631C70.0728 14.3631 69.349 14.5223 68.6614 14.8336C67.981 15.1448 67.3875 15.5791 66.8735 16.1292C66.3669 16.6721 65.9688 17.3018 65.672 18.0401C65.3752 18.7711 65.2305 19.5601 65.2305 20.3997C65.2305 21.1742 65.3752 21.898 65.672 22.5712C65.9688 23.2516 66.3669 23.8379 66.8735 24.3446C67.3875 24.8512 67.981 25.2493 68.6614 25.5461C69.3418 25.8356 70.0728 25.9731 70.8473 25.9731C71.3033 25.9731 71.7521 25.9152 72.1791 25.8067C72.6207 25.7053 73.0332 25.5533 73.4169 25.3434C73.8149 25.1407 74.1769 24.8874 74.5171 24.5979C74.8573 24.3011 75.1613 23.9754 75.4218 23.6063L73.3734 21.5434C73.2649 21.7895 73.1201 22.0139 72.9464 22.2165C72.7727 22.412 72.5772 22.5857 72.3528 22.7304C72.1357 22.868 71.8968 22.9765 71.6435 23.0489C71.3902 23.1213 71.1296 23.1647 70.8545 23.1647C70.4709 23.1647 70.109 23.0923 69.7688 22.9476C69.4359 22.8028 69.1391 22.6074 68.8858 22.354C68.6397 22.1007 68.4442 21.8112 68.2995 21.471C68.1547 21.138 68.0823 20.7761 68.0823 20.3925C68.0823 19.922 68.1547 19.4877 68.2995 19.0969C68.437 18.7132 68.6324 18.3803 68.8785 18.098Z" fill="white"/>
<path id="Vector_9" d="M88.8125 25.7705H88.8197V26.1179V28.6657L89.9417 27.1747L91.6354 29.0349V25.7705V23.5121V10.4183H88.8125V25.7705Z" fill="white"/>
<path id="Vector_10" d="M112.726 18.098C112.98 17.8085 113.276 17.5913 113.609 17.4321C113.949 17.2728 114.311 17.1932 114.695 17.1932C114.97 17.1932 115.238 17.2367 115.498 17.3163C115.759 17.3959 115.998 17.5189 116.215 17.6782C116.439 17.8374 116.642 18.0329 116.823 18.2645C117.004 18.4889 117.141 18.7494 117.243 19.0317L119.291 16.9688C119.045 16.549 118.748 16.1799 118.408 15.8614C118.075 15.5429 117.706 15.2679 117.301 15.0507C116.903 14.8263 116.483 14.6526 116.041 14.5368C115.6 14.421 115.158 14.3631 114.695 14.3631C113.92 14.3631 113.197 14.5223 112.509 14.8336C111.829 15.1448 111.235 15.5791 110.721 16.1292C110.215 16.6721 109.816 17.3018 109.52 18.0401C109.223 18.7711 109.078 19.5601 109.078 20.3997C109.078 21.1742 109.223 21.898 109.52 22.5712C109.816 23.2516 110.215 23.8379 110.721 24.3446C111.235 24.8512 111.829 25.2493 112.509 25.5461C113.189 25.8356 113.92 25.9731 114.695 25.9731C115.151 25.9731 115.6 25.9152 116.027 25.8067C116.468 25.7053 116.881 25.5533 117.272 25.3434C117.67 25.1407 118.032 24.8874 118.365 24.5979C118.705 24.3011 119.009 23.9754 119.269 23.6063L117.221 21.5434C117.112 21.7895 116.968 22.0139 116.787 22.2165C116.613 22.412 116.418 22.5857 116.193 22.7304C115.976 22.868 115.737 22.9765 115.484 23.0489C115.231 23.1213 114.97 23.1647 114.695 23.1647C114.311 23.1647 113.949 23.0923 113.609 22.9476C113.276 22.8028 112.98 22.6074 112.726 22.354C112.48 22.1007 112.285 21.8112 112.14 21.471C111.995 21.1308 111.923 20.7761 111.923 20.3925C111.923 19.922 111.995 19.4877 112.14 19.0969C112.285 18.7132 112.48 18.3803 112.726 18.098Z" fill="white"/>
<path id="Vector_11" d="M128.297 17.5985V14.8118H124.048V10.4255H121.261V14.8118H119.9V17.5985H121.261V20.8629C121.261 21.5361 121.384 22.173 121.638 22.7666C121.898 23.3601 122.253 23.8813 122.694 24.3373C123.143 24.7788 123.671 25.1335 124.265 25.394C124.859 25.6474 125.496 25.7704 126.176 25.7704H128.297V22.9837H126.169C125.872 22.9837 125.597 22.9258 125.336 22.8172C125.076 22.7014 124.851 22.5494 124.656 22.354C124.468 22.1658 124.316 21.9414 124.207 21.6881C124.099 21.4275 124.041 21.1525 124.041 20.8557V17.5913H128.297V17.5985Z" fill="white"/>
<path id="Vector_12" d="M107.457 15.7601C107.117 15.4561 106.747 15.21 106.349 15.0001C105.958 14.7974 105.546 14.6381 105.112 14.5296C104.67 14.421 104.229 14.3631 103.765 14.3631C102.991 14.3631 102.267 14.5006 101.579 14.7829C100.899 15.0652 100.305 15.4561 99.7915 15.9627C99.2848 16.4694 98.8867 17.0774 98.59 17.8012C98.2932 18.5178 98.1484 19.314 98.1484 20.1826C98.1484 21.0295 98.2932 21.8112 98.59 22.5205C98.8867 23.2226 99.2848 23.8306 99.7915 24.3446C100.305 24.8585 100.899 25.2566 101.579 25.5461C102.26 25.8356 102.991 25.9731 103.765 25.9731C104.221 25.9731 104.67 25.9152 105.097 25.8067C105.531 25.7053 105.951 25.5533 106.342 25.3434C106.74 25.1407 107.102 24.8874 107.435 24.5979C107.775 24.3011 108.079 23.9754 108.34 23.6063L106.291 21.5434C106.183 21.7895 106.038 22.0139 105.864 22.2165C105.691 22.412 105.495 22.5857 105.271 22.7304C105.054 22.868 104.815 22.9765 104.561 23.0489C104.308 23.1213 104.048 23.1647 103.773 23.1647C103.664 23.1647 103.555 23.1575 103.447 23.1503C103.338 23.1358 103.23 23.1141 103.121 23.0779L108.369 16.7517C108.101 16.3898 107.797 16.0568 107.457 15.7601ZM101.283 21.6375C101.225 21.5434 101.181 21.4348 101.152 21.3118C101.123 21.1887 101.087 21.0657 101.058 20.9354C101.036 20.7978 101.022 20.6676 101.008 20.5373C101 20.407 101 20.2912 101 20.1898C101 19.7338 101.073 19.3213 101.217 18.9593C101.362 18.5902 101.558 18.279 101.804 18.0184C102.057 17.7578 102.347 17.5624 102.687 17.4248C103.027 17.2801 103.389 17.2077 103.773 17.2077C103.91 17.2077 104.04 17.2149 104.163 17.2294C104.294 17.2439 104.424 17.2728 104.554 17.3235L101.283 21.6375Z" fill="white"/>
<path id="Vector_13" d="M85.6277 15.9699C85.121 15.456 84.5275 15.0652 83.8399 14.7901C83.1667 14.5078 82.4357 14.3703 81.6539 14.3703C80.8795 14.3703 80.1556 14.5151 79.468 14.8118C78.7949 15.1086 78.1941 15.5139 77.6802 16.0351C77.1735 16.549 76.7754 17.157 76.4786 17.8736C76.1819 18.5829 76.0371 19.3574 76.0371 20.1898C76.0371 21.0077 76.1819 21.775 76.4786 22.4843C76.7754 23.1864 77.1735 23.8017 77.6802 24.3228C78.1941 24.8367 78.7876 25.2421 79.468 25.5461C80.1484 25.8428 80.8795 25.9876 81.6539 25.9876C82.4357 25.9876 83.1595 25.8428 83.8399 25.5461C84.5275 25.2421 85.121 24.8367 85.6277 24.3228C86.1344 23.8017 86.5325 23.1936 86.8292 22.4843C87.126 21.775 87.2708 21.0077 87.2708 20.1898C87.2708 19.314 87.126 18.525 86.8292 17.8084C86.5325 17.0846 86.1271 16.4766 85.6277 15.9699ZM84.2163 21.4058C84.0715 21.775 83.8761 22.0862 83.6227 22.3468C83.3694 22.6074 83.0726 22.81 82.7324 22.9548C82.3995 23.0995 82.0376 23.1719 81.6539 23.1719C81.2703 23.1719 80.9084 23.0995 80.5682 22.9475C80.2353 22.7883 79.9385 22.5784 79.6852 22.3106C79.4391 22.0428 79.2436 21.7315 79.0989 21.3696C78.9541 21.0077 78.8817 20.6169 78.8817 20.1898C78.8817 19.741 78.9541 19.3285 79.0989 18.9665C79.2436 18.5974 79.4391 18.2862 79.6852 18.0256C79.9385 17.7578 80.2353 17.5551 80.5682 17.4176C80.9084 17.2728 81.2703 17.2004 81.6539 17.2004C82.0376 17.2004 82.3922 17.2728 82.7324 17.4176C83.0726 17.5551 83.3694 17.7578 83.6227 18.0256C83.8761 18.2862 84.0715 18.5974 84.2163 18.9665C84.3683 19.3285 84.4406 19.7338 84.4406 20.1898C84.4479 20.6241 84.3683 21.0294 84.2163 21.4058Z" fill="white"/>
<path id="Vector_14" d="M93.7773 23.5121V25.7705V26.1179V28.6657L94.9065 27.1747L96.593 29.0349V25.7705V23.5121V10.4183H93.7773V23.5121Z" fill="white"/>
</g>
<path id="Vector_15" d="M39.5053 13.1615C40.6646 13.1615 41.6044 12.2217 41.6044 11.0625C41.6044 9.90317 40.6646 8.96338 39.5053 8.96338C38.346 8.96338 37.4062 9.90317 37.4062 11.0625C37.4062 12.2217 38.346 13.1615 39.5053 13.1615Z" fill="#6166F1"/>
</g>
</g>
</svg>
