<svg width="17" height="17" viewBox="0 0 17 17" fill="none" xmlns="http://www.w3.org/2000/svg">
<g id="Icon">
<path id="Vector" d="M8.59863 9.94775C8.25252 9.94775 7.91417 9.84512 7.62638 9.65283C7.3386 9.46053 7.1143 9.18722 6.98184 8.86745C6.84939 8.54768 6.81473 8.19581 6.88226 7.85635C6.94978 7.51688 7.11645 7.20506 7.3612 6.96032C7.60594 6.71558 7.91776 6.5489 8.25723 6.48138C8.59669 6.41386 8.94856 6.44851 9.26833 6.58097C9.5881 6.71342 9.86141 6.93772 10.0537 7.22551C10.246 7.51329 10.3486 7.85164 10.3486 8.19775C10.3486 8.66188 10.1643 9.107 9.83607 9.43519C9.50788 9.76338 9.06276 9.94775 8.59863 9.94775ZM10.3486 3.19775C10.3486 2.85164 10.246 2.51329 10.0537 2.22551C9.86141 1.93772 9.5881 1.71342 9.26833 1.58097C8.94856 1.44851 8.59669 1.41386 8.25723 1.48138C7.91776 1.5489 7.60594 1.71558 7.3612 1.96032C7.11645 2.20506 6.94978 2.51688 6.88226 2.85635C6.81473 3.19581 6.84939 3.54768 6.98184 3.86745C7.1143 4.18722 7.3386 4.46053 7.62638 4.65283C7.91417 4.84512 8.25252 4.94775 8.59863 4.94775C9.06276 4.94775 9.50788 4.76338 9.83607 4.43519C10.1643 4.107 10.3486 3.66188 10.3486 3.19775ZM10.3486 13.1978C10.3486 12.8516 10.246 12.5133 10.0537 12.2255C9.86141 11.9377 9.5881 11.7134 9.26833 11.581C8.94856 11.4485 8.59669 11.4139 8.25722 11.4814C7.91776 11.5489 7.60594 11.7156 7.3612 11.9603C7.11645 12.2051 6.94978 12.5169 6.88226 12.8563C6.81473 13.1958 6.84939 13.5477 6.98184 13.8675C7.1143 14.1872 7.3386 14.4605 7.62638 14.6528C7.91417 14.8451 8.25251 14.9478 8.59863 14.9478C8.82845 14.9478 9.05601 14.9025 9.26833 14.8145C9.48065 14.7266 9.67357 14.5977 9.83607 14.4352C9.99857 14.2727 10.1275 14.0798 10.2154 13.8675C10.3034 13.6551 10.3486 13.4276 10.3486 13.1978Z" fill="white"/>
</g>
</svg>
