<svg width="19" height="19" viewBox="0 0 17 17" fill="none" xmlns="http://www.w3.org/2000/svg">
<g id="Icon">
<path id="Vector" d="M10.3638 5.35497L7.99982 7.71297C7.48846 8.22396 6.82494 8.55502 6.10915 8.6563L8.94582 11.4856C9.04551 10.7701 9.37767 10.1072 9.89115 9.59897L12.2552 7.24163L10.3638 5.35497ZM9.89115 2.99697L14.6185 7.71363C14.7379 7.84013 14.8033 8.00822 14.8007 8.18217C14.7981 8.35612 14.7278 8.5222 14.6046 8.64508C14.4815 8.76796 14.3153 8.83796 14.1413 8.84018C13.9674 8.8424 13.7994 8.77667 13.6732 8.65697L13.2005 8.18497L10.8365 10.543C10.65 10.7284 10.502 10.9489 10.401 11.1917C10.3 11.4346 10.248 11.695 10.248 11.958C10.248 12.221 10.3 12.4814 10.401 12.7242C10.502 12.9671 10.65 13.1875 10.8365 13.373L9.89115 14.3163L7.06849 11.501L3.75915 14.8016H2.81382V13.8583L6.12315 10.557L3.27249 7.71297L4.21782 6.76963C4.5941 7.14559 5.10424 7.35678 5.63615 7.35678C6.16806 7.35678 6.67821 7.14559 7.05449 6.76963L9.41849 4.41097L8.94515 3.93963C8.88244 3.87769 8.83261 3.80394 8.79853 3.72265C8.76445 3.64135 8.7468 3.55412 8.74659 3.46597C8.74638 3.37782 8.76362 3.29051 8.79731 3.20905C8.831 3.1276 8.88049 3.05362 8.9429 2.99137C9.00532 2.92913 9.07944 2.87986 9.16099 2.84639C9.24254 2.81293 9.32991 2.79594 9.41806 2.7964C9.5062 2.79685 9.59339 2.81475 9.67458 2.84906C9.75578 2.88337 9.82939 2.93408 9.89115 2.99697Z" fill="white"/>
</g>
</svg>
