<svg width="17" height="16" viewBox="0 0 17 16" fill="none" xmlns="http://www.w3.org/2000/svg">
<g id="Icon">
<path id="Vector" d="M11.2294 7.62073V6.50344C11.2294 6.29601 11.0596 6.1263 10.8522 6.1263H8.62471C7.42492 6.1263 6.41135 6.91594 6.07192 8.00259C5.99414 7.78101 5.94935 7.53587 5.94935 7.25773C5.94935 5.79866 7.13028 4.61773 8.58935 4.61773H10.8522C11.0596 4.61773 11.2294 4.44801 11.2294 4.24059V3.1233L13.7279 5.37201L11.2294 7.62073ZM9.72078 7.25773H10.0979V8.38916C10.0979 8.80637 10.435 9.14344 10.8522 9.14344H10.9394C11.1256 9.14344 11.3048 9.07509 11.4439 8.95016L14.7203 6.00137C14.8994 5.84109 15.0008 5.61244 15.0008 5.37201C15.0008 5.13159 14.8994 4.90294 14.7203 4.74266L11.4627 1.81037C11.3119 1.67601 11.1186 1.60059 10.9159 1.60059C10.4633 1.60059 10.0979 1.96594 10.0979 2.41851V3.4863H8.58935C6.50564 3.4863 4.81792 5.17401 4.81792 7.25773C4.81792 8.68144 5.6335 9.59366 6.32414 10.1075C6.46321 10.2112 6.59521 10.2984 6.71778 10.3715C6.8215 10.4352 6.91814 10.487 6.99828 10.5271C7.07842 10.5672 7.14442 10.5978 7.19157 10.619C7.24342 10.6426 7.29999 10.652 7.35892 10.652H7.41785C7.64885 10.652 7.83742 10.4634 7.83742 10.2324C7.83742 10.0486 7.71249 9.88594 7.56399 9.7728C7.55457 9.76573 7.54749 9.76101 7.53807 9.75394C7.49799 9.72801 7.45792 9.69501 7.42021 9.6573C7.40135 9.63844 7.38014 9.61959 7.36128 9.59601C7.34242 9.57244 7.32357 9.55123 7.30471 9.52766C7.26228 9.46873 7.22221 9.40273 7.18685 9.3273C7.12557 9.18587 7.08549 9.0138 7.08549 8.7993C7.08549 7.94837 7.77614 7.25537 8.62942 7.25537H9.72078V7.25773ZM3.49792 2.35487C2.55978 2.35487 1.80078 3.11387 1.80078 4.05201V11.972C1.80078 12.9102 2.55978 13.6692 3.49792 13.6692H11.4179C12.3561 13.6692 13.1151 12.9102 13.1151 11.972V10.4634C13.1151 10.1499 12.8629 9.89773 12.5494 9.89773C12.2359 9.89773 11.9836 10.1499 11.9836 10.4634V11.972C11.9836 12.2855 11.7314 12.5377 11.4179 12.5377H3.49792C3.18442 12.5377 2.93221 12.2855 2.93221 11.972V4.05201C2.93221 3.73851 3.18442 3.4863 3.49792 3.4863H5.0065C5.32 3.4863 5.57221 3.23409 5.57221 2.92059C5.57221 2.60709 5.32 2.35487 5.0065 2.35487H3.49792Z" fill="white"/>
</g>
</svg>
