<svg width="20" height="20" viewBox="0 0 20 20" fill="none" xmlns="http://www.w3.org/2000/svg">
<g id="Variant=Telegram, Size=20, Color=White">
<path id="Vector" fill-rule="evenodd" clip-rule="evenodd" d="M4.82327 11.6833C4.85908 11.6953 4.89589 11.7039 4.93327 11.7092C5.16904 12.2647 5.40348 12.8208 5.6366 13.3775C6.05577 14.3792 6.47827 15.4108 6.57077 15.7075C6.6866 16.0725 6.80827 16.3208 6.9416 16.4908C7.01077 16.5775 7.08994 16.6542 7.18327 16.7125C7.23189 16.7429 7.28391 16.7675 7.33827 16.7858C7.60494 16.8858 7.84827 16.8442 8.00077 16.7933C8.09026 16.7628 8.17541 16.7208 8.2541 16.6683L8.25827 16.6667L10.6133 15.1983L13.3341 17.2833C13.3741 17.3142 13.4174 17.34 13.4641 17.3608C13.7908 17.5025 14.1074 17.5525 14.4058 17.5125C14.7024 17.4708 14.9383 17.3467 15.1141 17.2058C15.316 17.0431 15.477 16.8353 15.5841 16.5992L15.5916 16.5808L15.5941 16.5742L15.5958 16.5708V16.5692L15.5966 16.5683C15.6111 16.5325 15.6222 16.4954 15.6299 16.4575L18.1133 3.93668C18.1211 3.8966 18.125 3.85585 18.1249 3.81501C18.1249 3.44834 17.9866 3.09918 17.6624 2.88834C17.3841 2.70751 17.0749 2.69918 16.8791 2.71418C16.6691 2.73084 16.4741 2.78251 16.3433 2.82418C16.27 2.84739 16.1978 2.87352 16.1266 2.90251L16.1174 2.90668L2.1891 8.37001L2.18744 8.37084C2.14031 8.38818 2.09389 8.40736 2.04827 8.42834C1.93782 8.478 1.83187 8.53711 1.7316 8.60501C1.54244 8.73418 1.1066 9.08918 1.18077 9.67584C1.2391 10.1425 1.5591 10.43 1.75494 10.5683C1.8616 10.6442 1.96327 10.6983 2.03827 10.7342C2.0716 10.7508 2.14327 10.7792 2.1741 10.7925L2.18244 10.795L4.82327 11.6833ZM16.6049 4.05668H16.6033C16.5961 4.05986 16.5889 4.06292 16.5816 4.06584L2.6366 9.53667C2.62943 9.53958 2.62221 9.54235 2.61494 9.54501L2.6066 9.54751C2.58113 9.55752 2.55611 9.56864 2.5316 9.58084C2.5548 9.59413 2.57872 9.60609 2.60327 9.61667L5.2216 10.4983C5.26839 10.5141 5.31315 10.5354 5.35494 10.5617L14.0024 5.49918L14.0108 5.49501C14.0444 5.4746 14.0788 5.45569 14.1141 5.43834C14.1741 5.40751 14.2699 5.36251 14.3783 5.32918C14.4533 5.30584 14.6758 5.24001 14.9158 5.31751C15.0431 5.35763 15.1565 5.43275 15.2432 5.53428C15.3298 5.6358 15.3862 5.75965 15.4058 5.89168C15.4368 6.0073 15.4377 6.12895 15.4083 6.24501C15.3499 6.47418 15.1899 6.65251 15.0433 6.78918C14.9183 6.90584 13.2974 8.46918 11.6983 10.0125L9.52077 12.1125L9.13327 12.4875L14.0266 16.2392C14.0926 16.2669 14.1644 16.2783 14.2358 16.2725C14.2717 16.2676 14.3056 16.2526 14.3333 16.2292C14.3671 16.2007 14.396 16.1669 14.4191 16.1292L14.4208 16.1283L16.8291 3.98418C16.7532 4.00242 16.6789 4.02638 16.6066 4.05584L16.6049 4.05668ZM9.5541 14.385L8.57744 13.6367L8.34077 15.1408L9.5541 14.385ZM7.6816 12.1517L8.65244 11.2142L10.8299 9.11251L11.6408 8.33084L6.20744 11.5117L6.2366 11.58C6.57927 12.3895 6.91817 13.2007 7.25327 14.0133L7.4891 12.5133C7.51044 12.3742 7.5783 12.2473 7.6816 12.1517Z" fill="white"/>
</g>
</svg>
