<svg width="20" height="20" viewBox="0 0 20 20" fill="none" xmlns="http://www.w3.org/2000/svg">
<g id="Icon">
<path id="Vector" fill-rule="evenodd" clip-rule="evenodd" d="M12.5166 2.78605C12.9407 2.71355 13.4149 2.68938 13.8616 2.76522C14.6572 2.89961 15.3944 3.26907 15.9782 3.82605C16.3582 3.83438 16.7324 3.75938 17.0632 3.65272C17.383 3.54844 17.6899 3.40839 17.9782 3.23522L17.9857 3.23022C18.1057 3.15026 18.2497 3.11426 18.3932 3.12832C18.5367 3.14237 18.671 3.20562 18.7732 3.30734C18.8754 3.40906 18.9393 3.54299 18.954 3.68643C18.9688 3.82987 18.9334 3.974 18.8541 4.09438C18.6816 4.35688 18.4407 4.82522 18.1716 5.35022L18.0424 5.60105C17.8882 5.90105 17.7299 6.20438 17.5824 6.46438C17.4899 6.62772 17.3907 6.79355 17.2907 6.93688V7.16522C17.301 8.53075 17.0392 9.88465 16.5205 11.1479C16.0019 12.4112 15.2369 13.5585 14.2701 14.5229C13.3032 15.4873 12.154 16.2494 10.8895 16.7649C9.62496 17.2804 8.27041 17.5389 6.90491 17.5252C4.92611 17.527 2.98895 16.9569 1.32657 15.8835C1.20775 15.8067 1.11853 15.6918 1.0735 15.5576C1.02847 15.4235 1.0303 15.278 1.07869 15.145C1.12709 15.0121 1.21917 14.8994 1.33989 14.8256C1.46061 14.7518 1.60281 14.7211 1.74324 14.7386C2.89146 14.8758 4.05522 14.6905 5.10407 14.2036C4.59235 13.9709 4.13468 13.6343 3.76021 13.215C3.38575 12.7958 3.10269 12.3032 2.92907 11.7685C2.89599 11.6662 2.88988 11.557 2.91134 11.4516C2.9328 11.3462 2.98111 11.2482 3.05157 11.1669L3.05991 11.1585C2.63689 10.7817 2.29788 10.32 2.06487 9.80364C1.83186 9.28723 1.71007 8.72759 1.70741 8.16105V8.11772C1.70735 7.98051 1.75243 7.8471 1.83572 7.73806C1.919 7.62902 2.03585 7.55042 2.16824 7.51438C1.88605 6.95133 1.73964 6.33002 1.74074 5.70022C1.74027 4.98619 1.92703 4.28452 2.28241 3.66522C2.3329 3.5773 2.40401 3.50299 2.48963 3.44869C2.57524 3.39439 2.67277 3.36173 2.77382 3.35352C2.87487 3.34532 2.9764 3.36183 3.06965 3.40161C3.1629 3.44139 3.24507 3.50326 3.30907 3.58188C4.76673 5.37766 6.85506 6.5491 9.14741 6.85688C9.1275 6.10704 9.31667 5.36645 9.69373 4.718C10.0708 4.06954 10.6209 3.53882 11.2824 3.18522C11.6174 3.00688 12.0607 2.86438 12.5174 2.78605H12.5166ZM3.11824 9.07605C3.28006 9.53148 3.55735 9.9371 3.92298 10.2532C4.2886 10.5693 4.73004 10.7851 5.20407 10.8794C5.34065 10.9066 5.46422 10.9786 5.55519 11.0841C5.64615 11.1895 5.6993 11.3223 5.70619 11.4614C5.71308 11.6005 5.67333 11.7379 5.59323 11.8518C5.51314 11.9657 5.39729 12.0496 5.26407 12.0902C5.03741 12.1594 4.80491 12.2069 4.56907 12.2344C4.82511 12.5647 5.15187 12.8334 5.52536 13.0209C5.89885 13.2083 6.30959 13.3098 6.72741 13.3177C6.85629 13.3201 6.98126 13.3624 7.08521 13.4386C7.18916 13.5148 7.267 13.6213 7.30806 13.7435C7.34913 13.8657 7.35141 13.9976 7.31459 14.1211C7.27777 14.2446 7.20366 14.3538 7.10241 14.4335C6.23345 15.1173 5.22363 15.5997 4.14574 15.846C5.03813 16.1317 5.96959 16.2765 6.90657 16.2752H6.91407C8.11408 16.2879 9.30458 16.0613 10.416 15.6086C11.5275 15.1559 12.5375 14.4863 13.3872 13.6389C14.2369 12.7914 14.9092 11.7831 15.3648 10.6729C15.8204 9.56265 16.0502 8.37276 16.0407 7.17272V6.72688C16.0406 6.57512 16.0957 6.4285 16.1957 6.31438C16.2541 6.24855 16.3541 6.09688 16.4957 5.84772C16.6291 5.61272 16.7774 5.32938 16.9316 5.03022L16.9591 4.97522C16.5238 5.07318 16.0755 5.10047 15.6316 5.05605C15.4814 5.0397 15.3423 4.96954 15.2399 4.85855C14.8208 4.40412 14.2628 4.10164 13.6532 3.99855C13.3458 3.95506 13.0334 3.9621 12.7282 4.01938C12.4308 4.06568 12.142 4.15642 11.8716 4.28855C11.3263 4.57989 10.8931 5.04398 10.6401 5.60804C10.387 6.1721 10.3283 6.80421 10.4732 7.40522C10.496 7.49972 10.4965 7.59825 10.4745 7.69296C10.4526 7.78766 10.4089 7.87595 10.3468 7.95079C10.2847 8.02563 10.2061 8.08495 10.1171 8.12406C10.0281 8.16316 9.93117 8.18097 9.83407 8.17605C7.27373 8.04654 4.85312 6.96917 3.04324 5.15355C3.00808 5.33392 2.9905 5.51728 2.99074 5.70105V5.70272C2.9898 6.16167 3.10237 6.61374 3.31843 7.01866C3.53448 7.42358 3.84732 7.76879 4.22907 8.02355C4.34118 8.099 4.42581 8.20876 4.47028 8.33636C4.51475 8.46397 4.51667 8.60255 4.47574 8.73134C4.43482 8.86012 4.35325 8.97217 4.24328 9.0507C4.1333 9.12922 4.00084 9.16999 3.86574 9.16688C3.61424 9.15991 3.36397 9.13005 3.11824 9.07605Z" fill="white"/>
</g>
</svg>
