<svg width="20" height="20" viewBox="0 0 20 20" fill="none" xmlns="http://www.w3.org/2000/svg">
<g id="Variant=twitter, Size=20, Color=White">
<path id="Vector" fill-rule="evenodd" clip-rule="evenodd" d="M12.5176 2.78584C12.9417 2.71334 13.4159 2.68917 13.8626 2.765C14.6582 2.89939 15.3954 3.26886 15.9792 3.82584C16.3592 3.83417 16.7334 3.75917 17.0642 3.6525C17.384 3.54823 17.6909 3.40817 17.9792 3.235L17.9867 3.23C18.1067 3.15005 18.2507 3.11405 18.3942 3.1281C18.5377 3.14216 18.6719 3.20541 18.7741 3.30712C18.8764 3.40884 18.9402 3.54277 18.955 3.68621C18.9697 3.82966 18.9344 3.97378 18.855 4.09417C18.6825 4.35667 18.4417 4.825 18.1725 5.35L18.0434 5.60084C17.8892 5.90084 17.7309 6.20417 17.5834 6.46417C17.4909 6.6275 17.3917 6.79334 17.2917 6.93667V7.165C17.302 8.53054 17.0401 9.88443 16.5215 11.1477C16.0029 12.4109 15.2378 13.5582 14.271 14.5226C13.3042 15.487 12.155 16.2492 10.8905 16.7647C9.62593 17.2802 8.27139 17.5387 6.90588 17.525C4.92709 17.5268 2.98993 16.9567 1.32755 15.8833C1.20873 15.8065 1.11951 15.6916 1.07448 15.5574C1.02945 15.4233 1.03128 15.2778 1.07967 15.1448C1.12806 15.0118 1.22015 14.8992 1.34087 14.8254C1.46159 14.7515 1.60379 14.7209 1.74422 14.7383C2.89244 14.8756 4.0562 14.6903 5.10505 14.2033C4.59333 13.9707 4.13566 13.6341 3.76119 13.2148C3.38672 12.7956 3.10367 12.303 2.93005 11.7683C2.89697 11.666 2.89086 11.5568 2.91232 11.4514C2.93378 11.346 2.98208 11.2479 3.05255 11.1667L3.06088 11.1583C2.63787 10.7815 2.29885 10.3198 2.06584 9.80343C1.83284 9.28702 1.71105 8.72737 1.70838 8.16084V8.1175C1.70832 7.9803 1.75341 7.84688 1.8367 7.73785C1.91998 7.62881 2.03683 7.55021 2.16922 7.51417C1.88703 6.95112 1.74062 6.32981 1.74172 5.7C1.74124 4.98598 1.92801 4.28431 2.28338 3.665C2.33387 3.57709 2.40499 3.50278 2.4906 3.44847C2.57621 3.39417 2.67375 3.36151 2.7748 3.35331C2.87585 3.34511 2.97737 3.36161 3.07062 3.4014C3.16387 3.44118 3.24604 3.50305 3.31005 3.58167C4.76771 5.37745 6.85604 6.54889 9.14838 6.85667C9.12848 6.10682 9.31764 5.36623 9.69471 4.71778C10.0718 4.06933 10.6218 3.5386 11.2834 3.185C11.6184 3.00667 12.0617 2.86417 12.5184 2.78584H12.5176ZM3.11922 9.07584C3.28104 9.53127 3.55833 9.93688 3.92396 10.253C4.28958 10.5691 4.73101 10.7849 5.20505 10.8792C5.34162 10.9064 5.4652 10.9784 5.55616 11.0839C5.64713 11.1893 5.70028 11.3221 5.70717 11.4612C5.71406 11.6003 5.6743 11.7377 5.59421 11.8516C5.51411 11.9655 5.39826 12.0494 5.26505 12.09C5.03838 12.1592 4.80588 12.2067 4.57005 12.2342C4.82609 12.5644 5.15285 12.8332 5.52634 13.0206C5.89983 13.2081 6.31056 13.3095 6.72838 13.3175C6.85726 13.3199 6.98224 13.3622 7.08619 13.4384C7.19014 13.5146 7.26798 13.6211 7.30904 13.7433C7.3501 13.8655 7.35239 13.9974 7.31557 14.1209C7.27875 14.2444 7.20464 14.3536 7.10338 14.4333C6.23442 15.117 5.22461 15.5995 4.14672 15.8458C5.03911 16.1315 5.97056 16.2763 6.90755 16.275H6.91505C8.11506 16.2877 9.30556 16.061 10.417 15.6084C11.5284 15.1557 12.5385 14.4861 13.3882 13.6387C14.2379 12.7912 14.9102 11.7829 15.3658 10.6727C15.8214 9.56244 16.0512 8.37254 16.0417 7.1725V6.72667C16.0416 6.57491 16.0967 6.42829 16.1967 6.31417C16.2551 6.24834 16.355 6.09667 16.4967 5.8475C16.63 5.6125 16.7784 5.32917 16.9325 5.03L16.96 4.975C16.5247 5.07296 16.0765 5.10026 15.6326 5.05584C15.4824 5.03948 15.3433 4.96933 15.2409 4.85834C14.8218 4.4039 14.2637 4.10142 13.6542 3.99834C13.3468 3.95485 13.0344 3.96189 12.7292 4.01917C12.4318 4.06547 12.143 4.1562 11.8726 4.28834C11.3273 4.57967 10.8941 5.04377 10.641 5.60783C10.388 6.17189 10.3293 6.804 10.4742 7.405C10.497 7.49951 10.4975 7.59803 10.4755 7.69274C10.4536 7.78745 10.4098 7.87573 10.3478 7.95057C10.2857 8.02541 10.2071 8.08474 10.1181 8.12385C10.029 8.16295 9.93215 8.18075 9.83505 8.17584C7.2747 8.04633 4.8541 6.96896 3.04422 5.15334C3.00905 5.33371 2.99147 5.51707 2.99172 5.70084V5.7025C2.99078 6.16146 3.10335 6.61352 3.31941 7.01844C3.53546 7.42337 3.84829 7.76858 4.23005 8.02334C4.34216 8.09879 4.42679 8.20854 4.47126 8.33615C4.51573 8.46375 4.51765 8.60234 4.47672 8.73112C4.43579 8.85991 4.35423 8.97196 4.24425 9.05048C4.13428 9.12901 4.00181 9.16977 3.86672 9.16667C3.61522 9.1597 3.36494 9.12984 3.11922 9.07584Z" fill="white"/>
</g>
</svg>
