<svg width="20" height="20" viewBox="0 0 20 20" fill="none" xmlns="http://www.w3.org/2000/svg">
<g id="Icon">
<path id="Vector" d="M3.54464 8.33464C3.40476 8.87914 3.33421 9.43912 3.33464 10.0013C3.33464 10.5763 3.40797 11.1346 3.54464 11.668H5.91797C5.80562 10.5597 5.80562 9.44291 5.91797 8.33464H3.54464ZM4.2263 6.66797H6.1813C6.40297 5.6538 6.72297 4.74547 7.11547 3.98964C5.90562 4.57248 4.89898 5.50566 4.2263 6.66797ZM16.458 8.33464H14.0846C14.197 9.44291 14.197 10.5597 14.0846 11.668H16.458C16.7385 10.5746 16.7385 9.42804 16.458 8.33464ZM15.7763 6.66797C15.1036 5.50566 14.097 4.57248 12.8871 3.98964C13.2805 4.74547 13.5996 5.6538 13.8213 6.66797H15.7763ZM7.59464 8.33464C7.5322 8.88799 7.50104 9.44443 7.5013 10.0013C7.5013 10.5721 7.53297 11.1305 7.59464 11.668H12.408C12.5335 10.5604 12.5335 9.4422 12.408 8.33464H7.59464ZM7.89297 6.66797H12.1096C11.958 6.04155 11.7392 5.43331 11.4571 4.8538C10.9338 3.80797 10.3738 3.33464 10.0013 3.33464C9.62797 3.33464 9.0688 3.80797 8.54547 4.8538C8.28297 5.38047 8.06214 5.99297 7.89297 6.66797ZM4.2263 13.3346C4.89898 14.4969 5.90562 15.4301 7.11547 16.013C6.72214 15.2571 6.40297 14.3488 6.1813 13.3346H4.2263ZM15.7763 13.3346H13.8213C13.5996 14.3488 13.2796 15.2571 12.8871 16.013C14.097 15.4301 15.1036 14.4969 15.7763 13.3346ZM7.89297 13.3346C8.06214 14.0096 8.28297 14.6221 8.54547 15.1488C9.0688 16.1946 9.6288 16.668 10.0013 16.668C10.3746 16.668 10.9338 16.1946 11.4571 15.1488C11.7196 14.6221 11.9405 14.0096 12.1096 13.3346H7.89297ZM10.0013 18.3346C5.3988 18.3346 1.66797 14.6038 1.66797 10.0013C1.66797 5.3988 5.3988 1.66797 10.0013 1.66797C14.6038 1.66797 18.3346 5.3988 18.3346 10.0013C18.3346 14.6038 14.6038 18.3346 10.0013 18.3346Z" fill="white"/>
</g>
</svg>
