<svg width="20" height="20" viewBox="0 0 20 20" fill="none" xmlns="http://www.w3.org/2000/svg">
<g id="Variant=Whatsapp, Size=20, Color=White">
<path id="Vector" d="M15.8752 4.09168C15.1112 3.31995 14.2011 2.70807 13.1982 2.29172C12.1952 1.87537 11.1194 1.66289 10.0335 1.66668C5.4835 1.66668 1.77516 5.37501 1.77516 9.92501C1.77516 11.3833 2.1585 12.8 2.87516 14.05L1.7085 18.3333L6.0835 17.1833C7.29183 17.8417 8.65016 18.1917 10.0335 18.1917C14.5835 18.1917 18.2918 14.4833 18.2918 9.93334C18.2918 7.72501 17.4335 5.65001 15.8752 4.09168ZM10.0335 16.7917C8.80016 16.7917 7.59183 16.4583 6.5335 15.8333L6.2835 15.6833L3.6835 16.3667L4.37516 13.8333L4.2085 13.575C3.52328 12.4808 3.15945 11.216 3.1585 9.92501C3.1585 6.14167 6.24183 3.05834 10.0252 3.05834C11.8585 3.05834 13.5835 3.77501 14.8752 5.07501C15.5147 5.71165 16.0216 6.46889 16.3663 7.30286C16.7111 8.13683 16.8869 9.03093 16.8835 9.93334C16.9002 13.7167 13.8168 16.7917 10.0335 16.7917ZM13.8002 11.6583C13.5918 11.5583 12.5752 11.0583 12.3918 10.9833C12.2002 10.9167 12.0668 10.8833 11.9252 11.0833C11.7835 11.2917 11.3918 11.7583 11.2752 11.8917C11.1585 12.0333 11.0335 12.05 10.8252 11.9417C10.6168 11.8417 9.95016 11.6167 9.16683 10.9167C8.55016 10.3667 8.14183 9.69168 8.01683 9.48334C7.90016 9.27501 8.00016 9.16668 8.1085 9.05834C8.20016 8.96667 8.31683 8.81667 8.41683 8.70001C8.51683 8.58334 8.5585 8.49167 8.62516 8.35834C8.69183 8.21667 8.6585 8.10001 8.6085 8.00001C8.5585 7.90001 8.14183 6.88334 7.97516 6.46668C7.8085 6.06668 7.6335 6.11668 7.5085 6.10834H7.1085C6.96683 6.10834 6.75016 6.15834 6.5585 6.36668C6.37516 6.57501 5.84183 7.07501 5.84183 8.09168C5.84183 9.10834 6.5835 10.0917 6.6835 10.225C6.7835 10.3667 8.14183 12.45 10.2085 13.3417C10.7002 13.5583 11.0835 13.6833 11.3835 13.775C11.8752 13.9333 12.3252 13.9083 12.6835 13.8583C13.0835 13.8 13.9085 13.3583 14.0752 12.875C14.2502 12.3917 14.2502 11.9833 14.1918 11.8917C14.1335 11.8 14.0085 11.7583 13.8002 11.6583Z" fill="white"/>
</g>
</svg>
