<svg width="16" height="16" viewBox="0 0 16 16" fill="none" xmlns="http://www.w3.org/2000/svg">
<g id="Variant=copy, Size=16, Color=White">
<path id="Vector" d="M3.52023 3.95558L3.5199 11.2031C3.5199 12.7007 4.67522 13.926 6.1358 14.0217L6.3199 14.0277L11.264 14.0285C11.0332 14.6863 10.4111 15.1575 9.6799 15.1575H5.7599C3.90423 15.1575 2.3999 13.64 2.3999 11.768V5.554C2.3999 4.81597 2.86755 4.18813 3.52023 3.95558ZM11.9199 1.59961C12.8477 1.59961 13.5999 2.35837 13.5999 3.29435V11.2031C13.5999 12.1391 12.8477 12.8979 11.9199 12.8979H6.3199C5.39206 12.8979 4.6399 12.1391 4.6399 11.2031V3.29435C4.6399 2.35837 5.39206 1.59961 6.3199 1.59961H11.9199ZM11.9199 2.72943H6.3199C6.01062 2.72943 5.7599 2.98235 5.7599 3.29435V11.2031C5.7599 11.5151 6.01062 11.768 6.3199 11.768H11.9199C12.2292 11.768 12.4799 11.5151 12.4799 11.2031V3.29435C12.4799 2.98235 12.2292 2.72943 11.9199 2.72943Z" fill="white"/>
</g>
</svg>
