<svg width="4" height="12" viewBox="0 0 4 12" fill="none" xmlns="http://www.w3.org/2000/svg">
<path d="M2 7.53125C1.69715 7.53125 1.4011 7.44144 1.14928 7.27319C0.89747 7.10493 0.701206 6.86578 0.585309 6.58598C0.469413 6.30619 0.439089 5.9983 0.498172 5.70127C0.557256 5.40424 0.703093 5.13139 0.917242 4.91724C1.13139 4.70309 1.40423 4.55726 1.70127 4.49817C1.9983 4.43909 2.30618 4.46941 2.58598 4.58531C2.86578 4.70121 3.10493 4.89747 3.27319 5.14928C3.44144 5.4011 3.53125 5.69715 3.53125 6C3.53125 6.40611 3.36992 6.79559 3.08276 7.08276C2.79559 7.36992 2.40611 7.53125 2 7.53125ZM3.53125 1.625C3.53125 1.32215 3.44144 1.0261 3.27319 0.774284C3.10493 0.522471 2.86578 0.326207 2.58598 0.21031C2.30618 0.0944134 1.9983 0.0640895 1.70127 0.123173C1.40423 0.182257 1.13139 0.328094 0.917243 0.542243C0.703093 0.756392 0.557256 1.02924 0.498172 1.32627C0.439089 1.6233 0.469413 1.93119 0.58531 2.21098C0.701206 2.49078 0.89747 2.72993 1.14928 2.89819C1.4011 3.06644 1.69715 3.15625 2 3.15625C2.40611 3.15625 2.79559 2.99492 3.08276 2.70776C3.36992 2.42059 3.53125 2.03111 3.53125 1.625ZM3.53125 10.375C3.53125 10.0721 3.44144 9.7761 3.27319 9.52428C3.10493 9.27247 2.86578 9.07621 2.58598 8.96031C2.30618 8.84441 1.9983 8.81409 1.70127 8.87317C1.40423 8.93226 1.13139 9.07809 0.917242 9.29224C0.703093 9.50639 0.557256 9.77924 0.498172 10.0763C0.439088 10.3733 0.469413 10.6812 0.585309 10.961C0.701206 11.2408 0.89747 11.4799 1.14928 11.6482C1.4011 11.8164 1.69715 11.9063 2 11.9063C2.20109 11.9063 2.4002 11.8666 2.58598 11.7897C2.77176 11.7127 2.94057 11.5999 3.08276 11.4578C3.22495 11.3156 3.33774 11.1468 3.41469 10.961C3.49164 10.7752 3.53125 10.5761 3.53125 10.375Z" fill="black"/>
</svg>
