<svg width="20" height="20" viewBox="0 0 20 20" fill="none" xmlns="http://www.w3.org/2000/svg">
<g id="Icon">
<path id="Vector" d="M10 12.1875C9.56735 12.1875 9.14442 12.0592 8.78469 11.8188C8.42496 11.5785 8.14458 11.2368 7.97901 10.8371C7.81345 10.4374 7.77013 9.99757 7.85453 9.57324C7.93894 9.14891 8.14728 8.75913 8.4532 8.4532C8.75913 8.14728 9.14891 7.93894 9.57324 7.85453C9.99757 7.77013 10.4374 7.81345 10.8371 7.97901C11.2368 8.14458 11.5785 8.42496 11.8188 8.78469C12.0592 9.14442 12.1875 9.56735 12.1875 10C12.1875 10.5802 11.957 11.1366 11.5468 11.5468C11.1366 11.957 10.5802 12.1875 10 12.1875ZM12.1875 3.75C12.1875 3.31735 12.0592 2.89442 11.8188 2.53469C11.5785 2.17496 11.2368 1.89458 10.8371 1.72901C10.4374 1.56345 9.99757 1.52013 9.57324 1.60453C9.14891 1.68894 8.75913 1.89728 8.4532 2.2032C8.14728 2.50913 7.93894 2.89891 7.85453 3.32324C7.77013 3.74757 7.81345 4.18741 7.97901 4.58712C8.14458 4.98683 8.42496 5.32848 8.78469 5.56884C9.14442 5.80921 9.56735 5.9375 10 5.9375C10.5802 5.9375 11.1366 5.70703 11.5468 5.2968C11.957 4.88656 12.1875 4.33016 12.1875 3.75ZM12.1875 16.25C12.1875 15.8174 12.0592 15.3944 11.8188 15.0347C11.5785 14.675 11.2368 14.3946 10.8371 14.229C10.4374 14.0634 9.99757 14.0201 9.57324 14.1045C9.14891 14.1889 8.75913 14.3973 8.4532 14.7032C8.14728 15.0091 7.93894 15.3989 7.85453 15.8232C7.77013 16.2476 7.81345 16.6874 7.97901 17.0871C8.14458 17.4868 8.42496 17.8285 8.78469 18.0688C9.14442 18.3092 9.56735 18.4375 10 18.4375C10.2873 18.4375 10.5717 18.3809 10.8371 18.271C11.1025 18.1611 11.3437 17.9999 11.5468 17.7968C11.7499 17.5937 11.9111 17.3525 12.021 17.0871C12.1309 16.8217 12.1875 16.5373 12.1875 16.25Z" fill="#1F2037"/>
</g>
</svg>