<svg xmlns="http://www.w3.org/2000/svg" width="14" height="14" viewBox="0 0 14 14" fill="none">
  <path d="M10.2896 7.54701H7.54677V10.2897C7.54677 10.5914 7.29992 10.8382 6.9982 10.8382C6.69649 10.8382 6.44963 10.5914 6.44963 10.2897V7.54701H3.70677C3.40506 7.54701 3.1582 7.30017 3.1582 6.99847C3.1582 6.69677 3.40506 6.44993 3.70677 6.44993H6.44963V3.70723C6.44963 3.40553 6.69649 3.15869 6.9982 3.15869C7.29992 3.15869 7.54677 3.40553 7.54677 3.70723V6.44993H10.2896C10.5913 6.44993 10.8382 6.69677 10.8382 6.99847C10.8382 7.30017 10.5913 7.54701 10.2896 7.54701Z" fill="#6166F1"/>
</svg>