<svg width="23" height="23" viewBox="0 0 23 23" fill="none" xmlns="http://www.w3.org/2000/svg">
<g clip-path="url(#clip0_700_339)">
<path d="M4.625 18.2856H14.5044C16.5944 18.2856 18.2856 16.5944 18.2856 14.5044V4.625C18.2856 2.54185 16.5944 0.84375 14.5044 0.84375H4.625C2.54185 0.84375 0.84375 2.54185 0.84375 4.625V14.5044C0.84375 16.5944 2.54185 18.2856 4.625 18.2856ZM6.48126 8.53687H8.53687V6.48126C8.53687 5.91062 8.99749 5.45001 9.56812 5.45001C10.1388 5.45001 10.5994 5.91062 10.5994 6.48126V8.53687H12.6481C13.2187 8.53687 13.6794 8.99749 13.6794 9.56812C13.6794 10.1387 13.2187 10.5994 12.6481 10.5994H10.5994V12.6481C10.5994 13.2187 10.1388 13.6794 9.56812 13.6794C8.99749 13.6794 8.53687 13.2187 8.53687 12.6481V10.5994H6.48126C5.91062 10.5994 5.45001 10.1387 5.45001 9.56812C5.45001 8.99749 5.91062 8.53687 6.48126 8.53687Z" fill="white"/>
<path d="M21.1249 8.53448C20.5556 8.53448 20.0937 8.99607 20.0937 9.56573V17C20.0937 18.706 18.7059 20.0938 16.9999 20.0938H9.56567C8.996 20.0938 8.53442 20.5553 8.53442 21.125C8.53442 21.6947 8.996 22.1563 9.56567 22.1563H16.9999C19.8433 22.1563 22.1562 19.8433 22.1562 17V9.56573C22.1562 8.99607 21.6943 8.53448 21.1249 8.53448Z" fill="white"/>
</g>
<defs>
<clipPath id="clip0_700_339">
<rect width="22" height="22" fill="white" transform="translate(0.5 0.5)"/>
</clipPath>
</defs>
</svg>
