<svg width="20" height="20" viewBox="0 0 20 20" fill="none" xmlns="http://www.w3.org/2000/svg">
<g id="Icon">
<path id="Vector" d="M15.1429 10.8567H10.8571V15.1422C10.8571 15.6136 10.4714 15.9993 10 15.9993C9.52857 15.9993 9.14286 15.6136 9.14286 15.1422V10.8567H4.85714C4.38571 10.8567 4 10.4711 4 9.99965C4 9.52825 4.38571 9.14256 4.85714 9.14256H9.14286V4.85709C9.14286 4.38569 9.52857 4 10 4C10.4714 4 10.8571 4.38569 10.8571 4.85709V9.14256H15.1429C15.6143 9.14256 16 9.52825 16 9.99965C16 10.4711 15.6143 10.8567 15.1429 10.8567Z" fill="#1F2037"/>
</g>
</svg>
