<svg width="24" height="24" viewBox="0 0 24 24" fill="none" xmlns="http://www.w3.org/2000/svg">
<g clip-path="url(#clip0_700_1207)">
<path d="M4.99997 13.83C4.99946 13.6806 5.03243 13.533 5.09646 13.3981C5.16049 13.2631 5.25395 13.1442 5.36997 13.05L11.37 8.22004C11.5489 8.07296 11.7733 7.99255 12.005 7.99255C12.2366 7.99255 12.461 8.07296 12.64 8.22004L18.64 13.22C18.8442 13.3898 18.9726 13.6337 18.997 13.8981C19.0214 14.1625 18.9397 14.4258 18.77 14.63C18.6002 14.8343 18.3563 14.9627 18.0919 14.9871C17.8275 15.0114 17.5642 14.9298 17.36 14.76L12 10.29L6.63997 14.61C6.49318 14.7323 6.31444 14.81 6.12489 14.8339C5.93535 14.8578 5.74292 14.8268 5.57039 14.7448C5.39787 14.6627 5.25245 14.533 5.15136 14.3709C5.05027 14.2088 4.99774 14.0211 4.99997 13.83Z" fill="black"/>
</g>
<defs>
<clipPath id="clip0_700_1207">
<rect width="24" height="24" fill="white" transform="translate(24) rotate(90)"/>
</clipPath>
</defs>
</svg>
