<svg width="12" height="16" viewBox="0 0 12 16" fill="none" xmlns="http://www.w3.org/2000/svg">
<path d="M11.0763 5.54438L10.8262 13.1113C10.805 13.7593 10.532 14.3736 10.0652 14.8236C9.59843 15.2737 8.97465 15.5242 8.32625 15.5219H3.57625C2.92826 15.5242 2.30485 15.2741 1.83815 14.8245C1.37146 14.375 1.09818 13.7614 1.07625 13.1138L0.82625 5.54438C0.82078 5.37862 0.881382 5.21748 0.994724 5.0964C1.10807 4.97532 1.26486 4.90423 1.43062 4.89876C1.59639 4.89329 1.75753 4.95389 1.87861 5.06723C1.99969 5.18057 2.07078 5.33737 2.07625 5.50313L2.32625 13.0719C2.3387 13.395 2.47587 13.7007 2.70896 13.9248C2.94204 14.1489 3.2529 14.274 3.57625 14.2738H8.32625C8.65001 14.274 8.96123 14.1486 9.19439 13.9239C9.42754 13.6993 9.56443 13.3929 9.57625 13.0694L9.82625 5.50313C9.83172 5.33737 9.90281 5.18057 10.0239 5.06723C10.145 4.95389 10.3061 4.89329 10.4719 4.89876C10.6376 4.90423 10.7944 4.97532 10.9078 5.0964C11.0211 5.21748 11.0817 5.37862 11.0763 5.54438ZM11.9031 3.02626C11.9031 3.19202 11.8373 3.35099 11.7201 3.4682C11.6029 3.58541 11.4439 3.65126 11.2781 3.65126H0.625C0.45924 3.65126 0.300268 3.58541 0.183058 3.4682C0.0658479 3.35099 0 3.19202 0 3.02626C0 2.8605 0.0658479 2.70152 0.183058 2.58431C0.300268 2.4671 0.45924 2.40126 0.625 2.40126H2.5625C2.76053 2.40179 2.95167 2.32863 3.09874 2.196C3.2458 2.06338 3.33826 1.88079 3.35812 1.68376C3.40425 1.22156 3.62079 0.793088 3.96556 0.481823C4.31033 0.170559 4.75864 -0.00120207 5.22313 6.33305e-06H6.67938C7.14387 -0.00120207 7.59217 0.170559 7.93694 0.481823C8.28171 0.793088 8.49825 1.22156 8.54437 1.68376C8.56424 1.88079 8.6567 2.06338 8.80376 2.196C8.95082 2.32863 9.14197 2.40179 9.34 2.40126H11.2775C11.4433 2.40126 11.6022 2.4671 11.7194 2.58431C11.8367 2.70152 11.9025 2.8605 11.9025 3.02626H11.9031ZM4.44312 2.40126H7.46063C7.3785 2.2136 7.32478 2.01475 7.30125 1.81126C7.28577 1.6572 7.21365 1.51437 7.09887 1.41045C6.9841 1.30653 6.83483 1.24891 6.68 1.24876H5.22375C5.06892 1.24891 4.91965 1.30653 4.80488 1.41045C4.6901 1.51437 4.61798 1.6572 4.6025 1.81126C4.57877 2.01478 4.52547 2.21363 4.44312 2.40126ZM5.0725 11.8706V6.54876C5.0725 6.383 5.00665 6.22402 4.88944 6.10681C4.77223 5.9896 4.61326 5.92376 4.4475 5.92376C4.28174 5.92376 4.12277 5.9896 4.00556 6.10681C3.88835 6.22402 3.8225 6.383 3.8225 6.54876V11.8731C3.8225 12.0389 3.88835 12.1979 4.00556 12.3151C4.12277 12.4323 4.28174 12.4981 4.4475 12.4981C4.61326 12.4981 4.77223 12.4323 4.88944 12.3151C5.00665 12.1979 5.0725 12.0389 5.0725 11.8731V11.8706ZM8.08125 11.8706V6.54876C8.08125 6.383 8.0154 6.22402 7.89819 6.10681C7.78098 5.9896 7.62201 5.92376 7.45625 5.92376C7.29049 5.92376 7.13152 5.9896 7.01431 6.10681C6.8971 6.22402 6.83125 6.383 6.83125 6.54876V11.8731C6.83125 12.0389 6.8971 12.1979 7.01431 12.3151C7.13152 12.4323 7.29049 12.4981 7.45625 12.4981C7.62201 12.4981 7.78098 12.4323 7.89819 12.3151C8.0154 12.1979 8.08125 12.0389 8.08125 11.8731V11.8706Z" fill="#6166F1"/>
</svg>
