<svg width="17" height="16" viewBox="0 0 17 16" fill="none" xmlns="http://www.w3.org/2000/svg">
<g id="Icon">
<path id="Vector" d="M13.4665 8.43826C13.3596 8.3166 13.3006 8.1602 13.3006 7.99826C13.3006 7.83632 13.3596 7.67992 13.4665 7.55826L14.3198 6.59826C14.4138 6.49337 14.4722 6.3614 14.4866 6.22127C14.501 6.08114 14.4706 5.94005 14.3998 5.81826L13.0665 3.5116C12.9964 3.38994 12.8897 3.29351 12.7616 3.23605C12.6335 3.17859 12.4906 3.16303 12.3531 3.19159L11.0998 3.44493C10.9403 3.47788 10.7743 3.45132 10.6331 3.37026C10.4918 3.2892 10.3851 3.15925 10.3331 3.00493L9.92647 1.78493C9.88174 1.65251 9.79654 1.53751 9.68289 1.45616C9.56924 1.37481 9.4329 1.33123 9.29313 1.3316H6.62647C6.48109 1.32401 6.33722 1.36421 6.21684 1.44607C6.09646 1.52793 6.00619 1.64694 5.9598 1.78493L5.58647 3.00493C5.53447 3.15925 5.42778 3.2892 5.28654 3.37026C5.1453 3.45132 4.97928 3.47788 4.8198 3.44493L3.53313 3.19159C3.40283 3.17318 3.27 3.19374 3.15137 3.25069C3.03273 3.30763 2.9336 3.39841 2.86647 3.5116L1.53313 5.81826C1.46057 5.93869 1.42795 6.07899 1.43992 6.21908C1.4519 6.35917 1.50786 6.49189 1.5998 6.59826L2.44647 7.55826C2.55335 7.67992 2.61229 7.83632 2.61229 7.99826C2.61229 8.1602 2.55335 8.3166 2.44647 8.43826L1.5998 9.39826C1.50786 9.50463 1.4519 9.63735 1.43992 9.77745C1.42795 9.91754 1.46057 10.0578 1.53313 10.1783L2.86647 12.4849C2.93653 12.6066 3.04321 12.703 3.1713 12.7605C3.29939 12.8179 3.44235 12.8335 3.5798 12.8049L4.83313 12.5516C4.99261 12.5186 5.15864 12.5452 5.29988 12.6263C5.44112 12.7073 5.5478 12.8373 5.5998 12.9916L6.00647 14.2116C6.05285 14.3496 6.14313 14.4686 6.26351 14.5505C6.38389 14.6323 6.52776 14.6725 6.67313 14.6649H9.3398C9.47956 14.6653 9.6159 14.6217 9.72955 14.5404C9.8432 14.459 9.92841 14.344 9.97313 14.2116L10.3798 12.9916C10.4318 12.8373 10.5385 12.7073 10.6797 12.6263C10.821 12.5452 10.987 12.5186 11.1465 12.5516L12.3998 12.8049C12.5373 12.8335 12.6802 12.8179 12.8083 12.7605C12.9364 12.703 13.0431 12.6066 13.1131 12.4849L14.4465 10.1783C14.5173 10.0565 14.5476 9.91539 14.5333 9.77526C14.5189 9.63513 14.4605 9.50315 14.3665 9.39826L13.4665 8.43826ZM12.4731 9.33159L13.0065 9.93159L12.1531 11.4116L11.3665 11.2516C10.8863 11.1534 10.3868 11.235 9.96286 11.4808C9.53888 11.7266 9.2199 12.1195 9.06647 12.5849L8.81313 13.3316H7.10647L6.86647 12.5716C6.71304 12.1062 6.39405 11.7133 5.97007 11.4675C5.54609 11.2217 5.04661 11.1401 4.56647 11.2383L3.7798 11.3983L2.91313 9.92493L3.44647 9.32493C3.77444 8.95825 3.95576 8.48355 3.95576 7.99159C3.95576 7.49964 3.77444 7.02494 3.44647 6.65826L2.91313 6.05826L3.76647 4.59159L4.55313 4.7516C5.03328 4.84974 5.53275 4.76818 5.95674 4.52239C6.38072 4.27661 6.6997 3.8837 6.85313 3.41826L7.10647 2.66493H8.81313L9.06647 3.42493C9.2199 3.89037 9.53888 4.28327 9.96286 4.52906C10.3868 4.77485 10.8863 4.85641 11.3665 4.75826L12.1531 4.59826L13.0065 6.07826L12.4731 6.67826C12.1488 7.0441 11.9698 7.51605 11.9698 8.00493C11.9698 8.49381 12.1488 8.96575 12.4731 9.33159ZM7.9598 5.33159C7.43238 5.33159 6.91681 5.48799 6.47828 5.78101C6.03975 6.07403 5.69796 6.4905 5.49612 6.97777C5.29429 7.46504 5.24148 8.00122 5.34437 8.5185C5.44727 9.03578 5.70124 9.51094 6.07418 9.88388C6.44712 10.2568 6.92228 10.5108 7.43956 10.6137C7.95684 10.7166 8.49302 10.6638 8.98029 10.4619C9.46756 10.2601 9.88404 9.91831 10.1771 9.47978C10.4701 9.04125 10.6265 8.52568 10.6265 7.99826C10.6265 7.29102 10.3455 6.61274 9.84542 6.11264C9.34532 5.61255 8.66705 5.33159 7.9598 5.33159ZM7.9598 9.33159C7.69609 9.33159 7.43831 9.2534 7.21904 9.10689C6.99977 8.96038 6.82888 8.75214 6.72796 8.50851C6.62704 8.26487 6.60064 7.99678 6.65209 7.73814C6.70353 7.4795 6.83052 7.24192 7.01699 7.05545C7.20346 6.86898 7.44104 6.74199 7.69968 6.69055C7.95832 6.6391 8.22641 6.6655 8.47005 6.76642C8.71368 6.86734 8.92192 7.03824 9.06843 7.2575C9.21494 7.47677 9.29313 7.73455 9.29313 7.99826C9.29313 8.35188 9.15266 8.69102 8.90261 8.94107C8.65256 9.19112 8.31342 9.33159 7.9598 9.33159Z" fill="#6166F1"/>
</g>
</svg>
