<svg width="17" height="17" viewBox="0 0 17 17" fill="none" xmlns="http://www.w3.org/2000/svg">
<g id="Icon">
<path id="Vector" d="M8.19987 1.53564C4.51987 1.53564 1.5332 4.52231 1.5332 8.20231C1.5332 11.8823 4.51987 14.869 8.19987 14.869C11.8799 14.869 14.8665 11.8823 14.8665 8.20231C14.8665 4.52231 11.8799 1.53564 8.19987 1.53564ZM8.19987 13.5356C5.25987 13.5356 2.86654 11.1423 2.86654 8.20231C2.86654 5.26231 5.25987 2.86898 8.19987 2.86898C11.1399 2.86898 13.5332 5.26231 13.5332 8.20231C13.5332 11.1423 11.1399 13.5356 8.19987 13.5356ZM4.5332 11.869L9.53987 9.54231L11.8665 4.53564L6.85987 6.86231L4.5332 11.869ZM8.19987 7.46898C8.60654 7.46898 8.9332 7.79564 8.9332 8.20231C8.9332 8.60898 8.60654 8.93564 8.19987 8.93564C7.7932 8.93564 7.46654 8.60898 7.46654 8.20231C7.46654 7.79564 7.7932 7.46898 8.19987 7.46898Z" fill="#6166F1"/>
</g>
</svg>
