<svg width="17" height="17" viewBox="0 0 17 17" fill="none" xmlns="http://www.w3.org/2000/svg">
<g id="Icon">
<path id="Vector" d="M7.10717 1.46016C7.41744 1.21161 7.80312 1.07617 8.20067 1.07617C8.59822 1.07617 8.9839 1.21161 9.29417 1.46016L14.5442 5.66016C14.9592 5.99216 15.2012 6.49516 15.2012 7.02716V14.0462C15.2012 14.5103 15.0168 14.9554 14.6886 15.2836C14.3604 15.6118 13.9153 15.7962 13.4512 15.7962H9.95117C9.75226 15.7962 9.56149 15.7171 9.42084 15.5765C9.28019 15.4358 9.20117 15.2451 9.20117 15.0462V9.79616H7.20117V15.0462C7.20117 15.2451 7.12215 15.4358 6.9815 15.5765C6.84085 15.7171 6.65008 15.7962 6.45117 15.7962H2.95117C2.48704 15.7962 2.04192 15.6118 1.71373 15.2836C1.38555 14.9554 1.20117 14.5103 1.20117 14.0462V7.02616C1.20117 6.49516 1.44317 5.99216 1.85817 5.66016L7.10717 1.46016ZM8.35717 2.63116C8.31287 2.59578 8.25786 2.57652 8.20117 2.57652C8.14448 2.57652 8.08947 2.59578 8.04517 2.63116L2.79517 6.83116C2.76576 6.85465 2.74203 6.88447 2.72575 6.91841C2.70948 6.95235 2.70107 6.98952 2.70117 7.02716V14.0462C2.70117 14.1842 2.81317 14.2962 2.95117 14.2962H5.70117V9.04616C5.70117 8.84725 5.78019 8.65648 5.92084 8.51583C6.06149 8.37518 6.25226 8.29616 6.45117 8.29616H9.95117C10.1501 8.29616 10.3408 8.37518 10.4815 8.51583C10.6222 8.65648 10.7012 8.84725 10.7012 9.04616V14.2962H13.4512C13.5175 14.2962 13.5811 14.2698 13.6279 14.2229C13.6748 14.1761 13.7012 14.1125 13.7012 14.0462V7.02616C13.7011 6.98869 13.6926 6.95171 13.6764 6.91796C13.6601 6.8842 13.6365 6.85454 13.6072 6.83116L8.35717 2.63116Z" fill="#6166F1"/>
</g>
</svg>
