<svg xmlns="http://www.w3.org/2000/svg" width="20" height="20" viewBox="0 0 20 20" fill="none">
<path d="M11.9538 5.69237L8.9988 8.63986C8.35959 9.27861 7.5302 9.69243 6.63547 9.81903L10.1813 13.3557C10.3059 12.4613 10.7211 11.6326 11.363 10.9974L14.318 8.0507L11.9538 5.69237ZM11.363 2.74487L17.2721 8.6407C17.4214 8.79881 17.5031 9.00893 17.4999 9.22637C17.4967 9.44381 17.4087 9.6514 17.2548 9.80501C17.1009 9.95861 16.8931 10.0461 16.6757 10.0489C16.4582 10.0517 16.2483 9.96949 16.0905 9.81987L15.4996 9.22987L12.5446 12.1774C12.3115 12.4092 12.1265 12.6847 12.0002 12.9883C11.874 13.2918 11.809 13.6174 11.809 13.9461C11.809 14.2749 11.874 14.6004 12.0002 14.9039C12.1265 15.2075 12.3115 15.4831 12.5446 15.7149L11.363 16.894L7.83463 13.3749L3.69797 17.5007H2.5163V16.3215L6.65297 12.1949L3.08963 8.63986L4.2713 7.4607C4.74164 7.93065 5.37933 8.19463 6.04422 8.19463C6.7091 8.19463 7.34679 7.93065 7.81713 7.4607L10.7721 4.51237L10.1805 3.9232C10.1021 3.84577 10.0398 3.75359 9.99718 3.65197C9.95458 3.55035 9.93252 3.44131 9.93226 3.33112C9.932 3.22094 9.95354 3.11179 9.99566 3.00997C10.0378 2.90815 10.0996 2.81568 10.1777 2.73787C10.2557 2.66007 10.3483 2.59848 10.4503 2.55665C10.5522 2.51482 10.6614 2.49358 10.7716 2.49415C10.8818 2.49472 10.9908 2.5171 11.0923 2.55999C11.1938 2.60287 11.2858 2.66626 11.363 2.74487Z" fill="#141414"/>
</svg>