<svg width="33" height="33" viewBox="0 0 33 33" fill="none" xmlns="http://www.w3.org/2000/svg">
<path d="M11.749 19.2496V18.4996H10.999L5.50031 18.4996C5.50016 18.4996 5.5 18.4996 5.49985 18.4996C5.3822 18.4993 5.26701 18.4659 5.16747 18.4032C5.06779 18.3404 4.98785 18.2508 4.93682 18.1446C4.88579 18.0384 4.86573 17.92 4.87896 17.8029C4.89217 17.686 4.93803 17.5752 5.0113 17.4831C5.0114 17.483 5.0115 17.4829 5.0116 17.4828L16.0102 3.73451C16.0102 3.73448 16.0103 3.73445 16.0103 3.73442C16.2339 3.45571 16.7641 3.45571 16.9878 3.73442C16.9878 3.73445 16.9878 3.73448 16.9879 3.73451L27.9865 17.4828C27.9866 17.4829 27.9867 17.4831 27.9868 17.4832C28.0601 17.5752 28.1059 17.686 28.1191 17.8029C28.1323 17.92 28.1123 18.0384 28.0612 18.1446C28.0102 18.2508 27.9303 18.3404 27.8306 18.4032C27.7311 18.4659 27.6159 18.4993 27.4982 18.4996C27.4981 18.4996 27.4979 18.4996 27.4978 18.4996L21.999 18.4996H21.249V19.2496V28.8746C21.249 29.0404 21.1832 29.1993 21.066 29.3166C20.9488 29.4338 20.7898 29.4996 20.624 29.4996H12.374C12.2083 29.4996 12.0493 29.4338 11.9321 29.3166C11.8149 29.1993 11.749 29.0404 11.749 28.8746V19.2496ZM8.36041 17.2496H12.999V27.4996V28.2496H13.749H19.249H19.999V27.4996V17.2496H20.624H24.6377H26.1981L25.2233 16.0311L17.0847 5.85747L16.499 5.12537L15.9134 5.85747L7.77475 16.0311L6.79997 17.2496H8.36041Z" fill="#6166F1" stroke="#6166F1" stroke-width="1.5"/>
<path d="M11.624 19.4742V18.7242H10.874L5.37531 18.7242C5.37516 18.7242 5.375 18.7242 5.37485 18.7242C5.2572 18.7239 5.14201 18.6905 5.04247 18.6278C4.94279 18.565 4.86285 18.4754 4.81182 18.3692C4.76079 18.263 4.74073 18.1446 4.75396 18.0275C4.76717 17.9106 4.81303 17.7998 4.8863 17.7078C4.8864 17.7076 4.8865 17.7075 4.8866 17.7074L15.8852 3.95912C15.8852 3.95909 15.8853 3.95906 15.8853 3.95903C16.1089 3.68032 16.6391 3.68032 16.8628 3.95903C16.8628 3.95906 16.8628 3.95909 16.8629 3.95912L27.8615 17.7074C27.8616 17.7075 27.8617 17.7077 27.8618 17.7078C27.9351 17.7998 27.9809 17.9106 27.9941 18.0275C28.0073 18.1446 27.9873 18.263 27.9362 18.3692C27.8852 18.4754 27.8053 18.565 27.7056 18.6278C27.6061 18.6905 27.4909 18.7239 27.3732 18.7242C27.3731 18.7242 27.3729 18.7242 27.3728 18.7242L21.874 18.7242H21.124V19.4742V29.0992C21.124 29.265 21.0582 29.424 20.941 29.5412C20.8238 29.6584 20.6648 29.7242 20.499 29.7242H12.249C12.0833 29.7242 11.9243 29.6584 11.8071 29.5412C11.6899 29.424 11.624 29.265 11.624 29.0992V19.4742ZM8.23541 17.4742H12.874V27.7242V28.4742H13.624H19.124H19.874V27.7242V17.4742H20.499H24.5127H26.0731L25.0983 16.2557L16.9597 6.08208L16.374 5.34998L15.7884 6.08208L7.64975 16.2557L6.67497 17.4742H8.23541Z" fill="#6166F1" stroke="#6166F1" stroke-width="1.5"/>
<rect x="12" y="8" width="8" height="22" fill="#6166F1"/>
<path d="M15 9.5L17 7L18.5 9.5H15Z" stroke="#6166F1" stroke-width="4"/>
<path d="M20 16H24L20 12V16Z" stroke="#6166F1" stroke-width="2.66667"/>
<path d="M12 17V13L8 17H12Z" stroke="#6166F1" stroke-width="2.66667"/>
</svg>
