<svg width="24" height="25" viewBox="0 0 24 25" fill="none" xmlns="http://www.w3.org/2000/svg">
<g id="Icon">
<path id="Vector" d="M17.0915 8.8618L13.455 12.4984L17.0913 16.1347C17.4913 16.5347 17.4913 17.1893 17.0913 17.5893C16.6913 17.9893 16.0367 17.9893 15.6367 17.5893L12.0004 13.953L8.36381 17.5895C7.96379 17.9895 7.30923 17.9896 6.90924 17.5896C6.50924 17.1896 6.50926 16.535 6.90928 16.135L10.5458 12.4984L6.90949 8.8621C6.50949 8.4621 6.50951 7.80754 6.90953 7.40752C7.30955 7.0075 7.96411 7.00748 8.36411 7.40748L12.0004 11.0438L15.637 7.40727C16.037 7.00725 16.6916 7.00723 17.0916 7.40723C17.4916 7.80722 17.4916 8.46178 17.0915 8.8618Z" fill="#1F2037"/>
</g>
</svg>
