<svg width="56" height="56" viewBox="0 0 56 56" fill="none" xmlns="http://www.w3.org/2000/svg">
<path d="M23.9941 40.7342L43.6637 21.0646L39.7577 17.1586L23.9941 32.9222L16.0426 24.9706L12.1366 28.8766L23.9941 40.7342ZM27.9001 55.8003C24.0406 55.8003 20.4136 55.0674 17.0191 53.6017C13.6246 52.1361 10.6718 50.1486 8.16079 47.6395C5.64978 45.1285 3.66236 42.1757 2.19853 38.7812C0.734704 35.3867 0.00186001 31.7597 0 27.9001C0 24.0406 0.732844 20.4136 2.19853 17.0191C3.66422 13.6246 5.65164 10.6718 8.16079 8.16079C10.6718 5.64978 13.6246 3.66236 17.0191 2.19853C20.4136 0.734704 24.0406 0.00186001 27.9001 0C31.7597 0 35.3867 0.732844 38.7812 2.19853C42.1757 3.66422 45.1285 5.65164 47.6395 8.16079C50.1505 10.6718 52.1389 13.6246 53.6045 17.0191C55.0702 20.4136 55.8021 24.0406 55.8003 27.9001C55.8003 31.7597 55.0674 35.3867 53.6017 38.7812C52.1361 42.1757 50.1486 45.1285 47.6395 47.6395C45.1285 50.1505 42.1757 52.1389 38.7812 53.6045C35.3867 55.0702 31.7597 55.8021 27.9001 55.8003ZM27.9001 50.2203C34.1312 50.2203 39.4089 48.058 43.7335 43.7335C48.058 39.4089 50.2203 34.1312 50.2203 27.9001C50.2203 21.6691 48.058 16.3913 43.7335 12.0668C39.4089 7.74229 34.1312 5.58003 27.9001 5.58003C21.6691 5.58003 16.3913 7.74229 12.0668 12.0668C7.74229 16.3913 5.58003 21.6691 5.58003 27.9001C5.58003 34.1312 7.74229 39.4089 12.0668 43.7335C16.3913 48.058 21.6691 50.2203 27.9001 50.2203Z" fill="#38D965"/>
</svg>
