<svg width="57" height="57" viewBox="0 0 57 57" fill="none" xmlns="http://www.w3.org/2000/svg">
<path d="M24.4658 41.3935L44.1354 21.7239L40.2294 17.8179L24.4658 33.5815L16.5143 25.6299L12.6082 29.5359L24.4658 41.3935ZM28.3718 56.4596C24.5123 56.4596 20.8853 55.7267 17.4908 54.261C14.0962 52.7954 11.1435 50.8079 8.63247 48.2988C6.12146 45.7878 4.13404 42.835 2.67021 39.4405C1.20638 36.046 0.47354 32.419 0.47168 28.5594C0.47168 24.6999 1.20452 21.0729 2.67021 17.6784C4.1359 14.2839 6.12332 11.3311 8.63247 8.82009C11.1435 6.30908 14.0962 4.32166 17.4908 2.85783C20.8853 1.39401 24.5123 0.661162 28.3718 0.659302C32.2313 0.659302 35.8584 1.39215 39.2529 2.85783C42.6474 4.32352 45.6002 6.31094 48.1112 8.82009C50.6222 11.3311 52.6105 14.2839 54.0762 17.6784C55.5419 21.0729 56.2738 24.6999 56.272 28.5594C56.272 32.419 55.5391 36.046 54.0734 39.4405C52.6077 42.835 50.6203 45.7878 48.1112 48.2988C45.6002 50.8098 42.6474 52.7981 39.2529 54.2638C35.8584 55.7295 32.2313 56.4614 28.3718 56.4596ZM28.3718 50.8795C34.6028 50.8795 39.8806 48.7173 44.2051 44.3928C48.5297 40.0682 50.6919 34.7905 50.6919 28.5594C50.6919 22.3284 48.5297 17.0506 44.2051 12.7261C39.8806 8.40159 34.6028 6.23933 28.3718 6.23933C22.1408 6.23933 16.863 8.40159 12.5385 12.7261C8.21397 17.0506 6.05171 22.3284 6.05171 28.5594C6.05171 34.7905 8.21397 40.0682 12.5385 44.3928C16.863 48.7173 22.1408 50.8795 28.3718 50.8795Z" fill="#6166F1"/>
</svg>
