<svg width="20" height="24" viewBox="0 0 20 24" fill="none" xmlns="http://www.w3.org/2000/svg">
<path d="M2.14834 4.36047L2.14777 16.9348C2.14777 19.5331 4.15223 21.6591 6.68631 21.825L7.00573 21.8354L15.5837 21.8368C15.1832 22.9781 14.1039 23.7956 12.8353 23.7956H6.03413C2.81457 23.7956 0.20459 21.1628 0.20459 17.9149V7.1337C0.20459 5.85324 1.01595 4.76395 2.14834 4.36047ZM16.7216 0.272903C18.3314 0.272903 19.6364 1.58934 19.6364 3.21324V16.9348C19.6364 18.5587 18.3314 19.8752 16.7216 19.8752H7.00573C5.39594 19.8752 4.09095 18.5587 4.09095 16.9348V3.21324C4.09095 1.58934 5.39594 0.272903 7.00573 0.272903H16.7216ZM16.7216 2.23313H7.00573C6.46913 2.23313 6.03413 2.67194 6.03413 3.21324V16.9348C6.03413 17.4761 6.46913 17.9149 7.00573 17.9149H16.7216C17.2582 17.9149 17.6932 17.4761 17.6932 16.9348V3.21324C17.6932 2.67194 17.2582 2.23313 16.7216 2.23313Z" fill="#6166F1"/>
</svg>
