<svg width="17" height="17" viewBox="0 0 17 17" fill="none" xmlns="http://www.w3.org/2000/svg">
<g id="Icon">
<path id="Vector" d="M3.96766 4.70953L3.96733 11.955C3.96733 13.4521 5.12232 14.6771 6.58247 14.7727L6.76652 14.7787L11.7092 14.7795C11.4784 15.4371 10.8565 15.9082 10.1255 15.9082H6.20668C4.35154 15.9082 2.84766 14.3911 2.84766 12.5197V6.30749C2.84766 5.56968 3.31517 4.94202 3.96766 4.70953ZM12.3649 2.35425C13.2925 2.35425 14.0444 3.11279 14.0444 4.04849V11.955C14.0444 12.8907 13.2925 13.6492 12.3649 13.6492H6.76652C5.83895 13.6492 5.08701 12.8907 5.08701 11.955V4.04849C5.08701 3.11279 5.83895 2.35425 6.76652 2.35425H12.3649ZM12.3649 3.48375H6.76652C6.45733 3.48375 6.20668 3.73659 6.20668 4.04849V11.955C6.20668 12.2669 6.45733 12.5197 6.76652 12.5197H12.3649C12.6741 12.5197 12.9247 12.2669 12.9247 11.955V4.04849C12.9247 3.73659 12.6741 3.48375 12.3649 3.48375Z" fill="#6F72FB"/>
</g>
</svg>
