<svg width="14" height="17" viewBox="0 0 14 17" fill="none" xmlns="http://www.w3.org/2000/svg">
<path d="M1.40041 2.94496L1.4 12.0044C1.4 13.8763 2.84415 15.408 4.66987 15.5276L4.9 15.5351L11.0802 15.5361C10.7916 16.3584 10.014 16.9474 9.1 16.9474H4.2C1.8804 16.9474 0 15.0505 0 12.7105V4.94298C0 4.02045 0.584561 3.23566 1.40041 2.94496ZM11.9 0C13.0598 0 14 0.948449 14 2.11842V12.0044C14 13.1744 13.0598 14.1228 11.9 14.1228H4.9C3.7402 14.1228 2.8 13.1744 2.8 12.0044V2.11842C2.8 0.948449 3.7402 0 4.9 0H11.9ZM11.9 1.41228H4.9C4.5134 1.41228 4.2 1.72843 4.2 2.11842V12.0044C4.2 12.3944 4.5134 12.7105 4.9 12.7105H11.9C12.2866 12.7105 12.6 12.3944 12.6 12.0044V2.11842C12.6 1.72843 12.2866 1.41228 11.9 1.41228Z" fill="#1F2037"/>
</svg>
