<svg xmlns="http://www.w3.org/2000/svg" width="18" height="14" viewBox="0 0 18 14" fill="none">
  <path d="M4 10.4004C8 12.4004 10.4 12.4004 14.4 10.4004" stroke="#0A0A0A" stroke-width="1.2" stroke-linecap="round" stroke-linejoin="round"/>
  <path d="M12.0002 11.6003L12.8002 13.2003C12.8002 13.2003 16.137 12.1379 17.2002 10.4003C17.2002 9.60029 17.6242 3.88269 14.8002 2.00029C13.6002 1.20029 11.6002 0.800293 11.6002 0.800293L10.8002 2.40029H9.2002" stroke="#0A0A0A" stroke-width="1.2" stroke-linecap="round" stroke-linejoin="round"/>
  <path d="M6.42281 11.6003L5.62281 13.2003C5.62281 13.2003 2.28601 12.1379 1.22281 10.4003C1.22281 9.60029 0.798808 3.88269 3.62281 2.00029C4.82281 1.20029 6.82281 0.800293 6.82281 0.800293L7.62281 2.40029H9.22281" stroke="#0A0A0A" stroke-width="1.2" stroke-linecap="round" stroke-linejoin="round"/>
  <path d="M6.4002 8.8001C5.7378 8.8001 5.2002 8.0841 5.2002 7.2001C5.2002 6.3161 5.7378 5.6001 6.4002 5.6001C7.0626 5.6001 7.6002 6.3161 7.6002 7.2001C7.6002 8.0841 7.0626 8.8001 6.4002 8.8001ZM12.0002 8.8001C11.3378 8.8001 10.8002 8.0841 10.8002 7.2001C10.8002 6.3161 11.3378 5.6001 12.0002 5.6001C12.6626 5.6001 13.2002 6.3161 13.2002 7.2001C13.2002 8.0841 12.6626 8.8001 12.0002 8.8001Z" stroke="#0A0A0A" stroke-width="1.2" stroke-linecap="round" stroke-linejoin="round"/>
</svg>