<svg width="31" height="24" viewBox="0 0 31 24" fill="none" xmlns="http://www.w3.org/2000/svg">
<path d="M20.1455 0.435913C19.8455 0.973196 19.5782 1.52807 19.3449 2.09752C17.0531 1.73506 14.7185 1.73506 12.4266 2.09752C12.1934 1.52807 11.926 0.973196 11.626 0.435913C9.46713 0.80479 7.36839 1.46541 5.38745 2.39963C1.84513 7.51176 0.238654 13.7181 0.855808 19.9069C3.16428 21.6423 5.75521 22.9659 8.51429 23.8192C9.14255 22.9893 9.70325 22.1104 10.191 21.1909C9.29082 20.859 8.42561 20.439 7.60796 19.9371C7.83222 19.7879 8.04435 19.6212 8.24239 19.4386C10.6267 20.5871 13.2392 21.1835 15.8858 21.1835C18.5323 21.1835 21.1448 20.5871 23.5291 19.4386C23.7406 19.6199 23.9521 19.786 24.1636 19.9371C23.3415 20.435 22.4771 20.8596 21.5805 21.206C22.0481 22.1463 22.5938 23.0458 23.2119 23.8947C25.9676 23.0443 28.554 21.7204 30.8553 19.9824C31.4873 13.7925 29.8795 7.58108 26.3237 2.47515C24.365 1.5216 22.287 0.835711 20.1455 0.435913ZM10.8707 16.3722C10.1148 16.3179 9.40935 15.9729 8.90238 15.4096C8.39541 14.8463 8.12637 14.1085 8.15176 13.3511C8.12254 12.5927 8.39025 11.8528 8.89799 11.2886C9.40572 10.7245 10.1134 10.3806 10.8707 10.33C11.628 10.3806 12.3358 10.7245 12.8435 11.2886C13.3512 11.8528 13.6189 12.5927 13.5897 13.3511C13.6189 14.1095 13.3512 14.8494 12.8435 15.4136C12.3358 15.9777 11.628 16.3216 10.8707 16.3722ZM20.9008 16.3722C20.1449 16.3179 19.4394 15.9729 18.9324 15.4096C18.4254 14.8463 18.1564 14.1085 18.1818 13.3511C18.1526 12.5927 18.4203 11.8528 18.928 11.2886C19.4358 10.7245 20.1435 10.3806 20.9008 10.33C21.6595 10.3768 22.3695 10.7196 22.878 11.2846C23.3865 11.8496 23.6529 12.5917 23.6198 13.3511C23.6529 14.1105 23.3865 14.8526 22.878 15.4176C22.3695 15.9826 21.6595 16.3254 20.9008 16.3722Z" fill="white"/>
</svg>
