<svg width="18" height="18" viewBox="0 0 18 18" fill="none" xmlns="http://www.w3.org/2000/svg">
<path d="M2.16667 17.75C1.70833 17.75 1.31583 17.5869 0.989168 17.2608C0.662501 16.9347 0.499446 16.5422 0.500001 16.0833V4.41666C0.500001 3.95833 0.663335 3.56583 0.990001 3.23916C1.31667 2.9125 1.70889 2.74944 2.16667 2.74999H9.60417L7.9375 4.41666H2.16667V16.0833H13.8333V10.2917L15.5 8.625V16.0833C15.5 16.5417 15.3367 16.9342 15.01 17.2608C14.6833 17.5875 14.2911 17.7506 13.8333 17.75H2.16667ZM11.4792 3.22916L12.6667 4.39583L7.16667 9.89583V11.0833H8.33333L13.8542 5.5625L15.0417 6.72916L9.52083 12.25C9.36806 12.4028 9.19083 12.5244 8.98917 12.615C8.7875 12.7056 8.57584 12.7506 8.35417 12.75H6.33333C6.09722 12.75 5.89917 12.67 5.73917 12.51C5.57917 12.35 5.49945 12.1522 5.5 11.9167V9.89583C5.5 9.67361 5.54167 9.46166 5.625 9.26C5.70833 9.05833 5.82639 8.88138 5.97917 8.72916L11.4792 3.22916ZM15.0417 6.72916L11.4792 3.22916L13.5625 1.14583C13.8958 0.812495 14.2953 0.645828 14.7608 0.645828C15.2264 0.645828 15.6186 0.812495 15.9375 1.14583L17.1042 2.33333C17.4236 2.65277 17.5833 3.04166 17.5833 3.5C17.5833 3.95833 17.4236 4.34722 17.1042 4.66666L15.0417 6.72916Z" fill="#6166F1"/>
</svg>
