<svg xmlns="http://www.w3.org/2000/svg" width="14" height="14" viewBox="0 0 14 14" fill="none">
  <path d="M4.33105 9.67283L6.68465 9.66483L11.8217 4.57683C12.0233 4.37523 12.1343 4.1075 12.1343 3.8227C12.1343 3.5379 12.0233 3.27017 11.8217 3.06857L10.9759 2.2227C10.5727 1.8195 9.86919 1.82163 9.46919 2.2211L4.33105 7.31016V9.67283ZM10.2217 2.97683L11.0692 3.8211L10.2175 4.66483L9.37159 3.8195L10.2217 2.97683ZM5.39772 7.75496L8.61372 4.56937L9.45959 5.41523L6.24412 8.59977L5.39772 8.60243V7.75496Z" fill="#6166F1"/>
  <path d="M3.26393 11.7992H10.7306C11.3189 11.7992 11.7973 11.3208 11.7973 10.7326V6.10962L10.7306 7.17629V10.7326H4.9482C4.93433 10.7326 4.91993 10.7379 4.90607 10.7379C4.88847 10.7379 4.87087 10.7331 4.85273 10.7326H3.26393V3.26589H6.91567L7.98233 2.19922H3.26393C2.67567 2.19922 2.19727 2.67762 2.19727 3.26589V10.7326C2.19727 11.3208 2.67567 11.7992 3.26393 11.7992Z" fill="#6166F1"/>
</svg>