<svg width="20" height="20" viewBox="0 0 20 20" fill="none" xmlns="http://www.w3.org/2000/svg">
<g id="Icon">
<path id="Vector" d="M5.8335 14.1788L9.511 14.1663L17.5377 6.2163C17.8527 5.9013 18.026 5.48297 18.026 5.03797C18.026 4.59297 17.8527 4.17464 17.5377 3.85964L16.216 2.53797C15.586 1.90797 14.4868 1.9113 13.8618 2.53547L5.8335 10.4871V14.1788ZM15.0377 3.7163L16.3618 5.03547L15.031 6.3538L13.7093 5.03297L15.0377 3.7163ZM7.50016 11.1821L12.5252 6.20464L13.8468 7.5263L8.82266 12.5021L7.50016 12.5063V11.1821Z" fill="#1F2037"/>
<path id="Vector_2" d="M4.16667 17.5H15.8333C16.7525 17.5 17.5 16.7525 17.5 15.8333V8.61L15.8333 10.2767V15.8333H6.79833C6.77667 15.8333 6.75417 15.8417 6.7325 15.8417C6.705 15.8417 6.6775 15.8342 6.64917 15.8333H4.16667V4.16667H9.8725L11.5392 2.5H4.16667C3.2475 2.5 2.5 3.2475 2.5 4.16667V15.8333C2.5 16.7525 3.2475 17.5 4.16667 17.5Z" fill="#1F2037"/>
</g>
</svg>
