<svg width="16" height="16" viewBox="0 0 16 16" fill="none" xmlns="http://www.w3.org/2000/svg">
<path d="M9.9538 3.69237L6.9988 6.63986C6.35959 7.27861 5.5302 7.69243 4.63547 7.81903L8.1813 11.3557C8.30591 10.4613 8.72112 9.63262 9.36297 8.99736L12.318 6.0507L9.9538 3.69237ZM9.36297 0.744865L15.2721 6.6407C15.4214 6.79881 15.5031 7.00893 15.4999 7.22637C15.4967 7.44381 15.4087 7.6514 15.2548 7.80501C15.1009 7.95861 14.8931 8.0461 14.6757 8.04888C14.4582 8.05165 14.2483 7.96949 14.0905 7.81987L13.4996 7.22987L10.5446 10.1774C10.3115 10.4092 10.1265 10.6847 10.0002 10.9883C9.87398 11.2918 9.80899 11.6174 9.80899 11.9461C9.80899 12.2749 9.87398 12.6004 10.0002 12.9039C10.1265 13.2075 10.3115 13.4831 10.5446 13.7149L9.36297 14.894L5.83463 11.3749L1.69797 15.5007H0.5163V14.3215L4.65297 10.1949L1.08963 6.63986L2.2713 5.4607C2.74164 5.93065 3.37933 6.19463 4.04422 6.19463C4.7091 6.19463 5.34679 5.93065 5.81713 5.4607L8.77213 2.51237L8.18047 1.9232C8.10207 1.84577 8.03978 1.75359 7.99718 1.65197C7.95458 1.55035 7.93252 1.44131 7.93226 1.33112C7.932 1.22094 7.95354 1.11179 7.99566 1.00997C8.03778 0.908152 8.09963 0.815677 8.17765 0.737874C8.25568 0.660071 8.34833 0.598479 8.45026 0.55665C8.5522 0.51482 8.66141 0.493579 8.77159 0.494152C8.88178 0.494724 8.99076 0.517099 9.09225 0.559985C9.19375 0.602872 9.28576 0.666256 9.36297 0.744865Z" fill="white"/>
<path d="M9.9538 3.69237L6.9988 6.63986C6.35959 7.27861 5.5302 7.69243 4.63547 7.81903L8.1813 11.3557C8.30591 10.4613 8.72112 9.63262 9.36297 8.99736L12.318 6.0507L9.9538 3.69237Z" fill="white"/>
</svg>
