<svg width="47" height="47" viewBox="0 0 47 47" fill="none" xmlns="http://www.w3.org/2000/svg">
<rect width="47" height="47" transform="translate(47) rotate(90)" fill="#6166F1"/>
<g clip-path="url(#clip0_973_414)">
<path d="M31.25 28.4002C29.57 28.4002 28.065 29.2052 27.12 30.4302L18.615 25.4952C19.14 24.2002 19.14 22.7652 18.615 21.4702L27.12 16.5352C28.065 17.7602 29.57 18.5652 31.25 18.5652C34.155 18.5652 36.5 16.2202 36.5 13.3152C36.5 10.4102 34.155 8.06519 31.25 8.06519C28.345 8.06519 26 10.4102 26 13.3152C26 14.0152 26.14 14.7152 26.385 15.3102L17.88 20.2802C16.9 19.0552 15.43 18.2502 13.75 18.2502C10.845 18.2502 8.5 20.5952 8.5 23.5002C8.5 26.4052 10.845 28.7502 13.75 28.7502C15.43 28.7502 16.935 27.9452 17.88 26.7202L26.385 31.6552C26.14 32.2502 26 32.9502 26 33.6502C26 36.5552 28.345 38.9002 31.25 38.9002C34.155 38.9002 36.5 36.5552 36.5 33.6502C36.5 30.7452 34.155 28.4002 31.25 28.4002ZM31.25 9.50019C33.385 9.50019 35.1 11.2152 35.1 13.3502C35.1 15.4852 33.385 17.2002 31.25 17.2002C29.115 17.2002 27.4 15.4852 27.4 13.3502C27.4 11.2152 29.115 9.50019 31.25 9.50019ZM13.75 27.3502C11.615 27.3502 9.9 25.6352 9.9 23.5002C9.9 21.3652 11.615 19.6502 13.75 19.6502C15.885 19.6502 17.6 21.3652 17.6 23.5002C17.6 25.6352 15.885 27.3502 13.75 27.3502ZM31.25 37.5002C29.115 37.5002 27.4 35.7852 27.4 33.6502C27.4 31.5152 29.115 29.8002 31.25 29.8002C33.385 29.8002 35.1 31.5152 35.1 33.6502C35.1 35.7852 33.385 37.5002 31.25 37.5002Z" fill="white"/>
<path d="M580.399 -172.5V416.9H-44.0008V-172.5H580.399ZM583.199 -175.3H-46.8008V419.7H583.199V-175.3Z" fill="white"/>
<path d="M18.0013 18.3045L23.7188 15" stroke="white" stroke-linecap="round"/>
</g>
<defs>
<clipPath id="clip0_973_414">
<rect width="35" height="35" fill="white" transform="translate(5 6)"/>
</clipPath>
</defs>
</svg>
