<svg width="47" height="47" viewBox="0 0 47 47" fill="none" xmlns="http://www.w3.org/2000/svg">
<rect width="47" height="47" transform="translate(47) rotate(90)" fill="#6166F1"/>
<path d="M29 10.75H18C15.7228 10.7525 13.8775 12.5978 13.875 14.875V37.5625C13.8752 37.6823 13.9066 37.8 13.9662 37.9039C14.1555 38.2338 14.5763 38.3479 14.9062 38.1587L23.5 33.2092L32.0938 38.1587C32.1986 38.2182 32.317 38.2497 32.4375 38.25C32.8169 38.2493 33.1243 37.9419 33.125 37.5625V14.875C33.1225 12.5978 31.2772 10.7525 29 10.75ZM31.75 36.3728L23.8438 31.8195C23.7389 31.76 23.6205 31.7285 23.5 31.7281C23.3795 31.7285 23.2611 31.76 23.1562 31.8195L15.25 36.3728V14.875C15.2519 13.357 16.482 12.1269 18 12.125H29C30.518 12.1269 31.7481 13.357 31.75 14.875V36.3728Z" fill="white"/>
<path d="M30.5 32.9785L30.5 24.5" stroke="white" stroke-width="1.375" stroke-linecap="round"/>
</svg>
