<svg width="47" height="47" viewBox="0 0 47 47" fill="none" xmlns="http://www.w3.org/2000/svg">
<rect width="47" height="47" transform="translate(47) rotate(90)" fill="#6166F1"/>
<g clip-path="url(#clip0_973_405)">
<path fill-rule="evenodd" clip-rule="evenodd" d="M14.8404 12.1712C10.014 15.5507 8.83927 22.213 12.2187 27.0395C15.5984 31.866 22.2605 33.0404 27.087 29.661C31.9135 26.2813 33.0882 19.6194 29.7087 14.7929C26.329 9.96645 19.6669 8.79153 14.8404 12.1712ZM15.5126 13.131C19.8092 10.1225 25.7403 11.1681 28.749 15.4649C31.7574 19.7614 30.7114 25.6925 26.4148 28.701C22.1183 31.7094 16.1874 30.6639 13.1787 26.3673C10.17 22.0705 11.2161 16.1397 15.5126 13.131Z" fill="white"/>
<path fill-rule="evenodd" clip-rule="evenodd" d="M15.0188 25.0787C12.7212 21.7975 13.52 17.2687 16.801 14.9711C16.9282 14.8819 17.0148 14.7458 17.0418 14.5928C17.0688 14.4398 17.0339 14.2823 16.9449 14.155C16.8557 14.0278 16.7196 13.9412 16.5666 13.9142C16.4136 13.8872 16.2562 13.9221 16.1288 14.0111C12.3179 16.6797 11.3905 21.94 14.0588 25.7509C14.148 25.8781 14.2841 25.9647 14.4371 25.9917C14.5901 26.0187 14.7476 25.9838 14.8749 25.8948C15.0021 25.8056 15.0887 25.6696 15.1157 25.5165C15.1427 25.3635 15.1078 25.2061 15.0188 25.0787ZM26.2857 29.5379L27.4787 31.2419C27.5679 31.3691 27.7039 31.4557 27.8569 31.4826C28.0099 31.5096 28.1674 31.4748 28.2947 31.3858C28.422 31.2965 28.5086 31.1605 28.5355 31.0075C28.5625 30.8545 28.5277 30.697 28.4387 30.5697L27.2457 28.8658C27.1565 28.7386 27.0204 28.6519 26.8674 28.625C26.7144 28.598 26.5569 28.6328 26.4296 28.7219C26.3024 28.8111 26.2158 28.9471 26.1888 29.1001C26.1618 29.2531 26.1967 29.4106 26.2857 29.5379Z" fill="white"/>
<path fill-rule="evenodd" clip-rule="evenodd" d="M31.5183 31.777C31.1313 31.2243 30.5919 30.796 29.9657 30.5445C29.3396 30.2929 28.6538 30.2289 27.9919 30.3602H27.9915C27.8765 30.383 27.7675 30.4295 27.6714 30.4967C27.5754 30.5639 27.4944 30.6504 27.4337 30.7507V30.7512C27.0838 31.3282 26.9094 31.9946 26.9316 32.669C26.9538 33.3435 27.1717 33.9969 27.5588 34.5497L30.455 38.6859C30.7879 39.1613 31.296 39.485 31.8675 39.5858C32.439 39.6865 33.0271 39.5562 33.5026 39.2234L33.8776 38.9609C34.1129 38.796 34.3136 38.5864 34.4679 38.3441C34.6223 38.1017 34.7275 37.8313 34.7774 37.5483C34.8272 37.2653 34.8209 36.9753 34.7587 36.6947C34.6965 36.4142 34.5796 36.1487 34.4147 35.9133L31.5181 31.777H31.5183ZM28.3641 31.4859C28.1683 31.8605 28.0791 32.2816 28.1063 32.7034C28.1335 33.1251 28.2762 33.5313 28.5186 33.8775L31.4147 38.0137C31.5695 38.2344 31.8054 38.3847 32.0709 38.4316C32.3363 38.4784 32.6095 38.418 32.8304 38.2636L33.2054 38.0011C33.426 37.8463 33.5763 37.6103 33.623 37.3449C33.6698 37.0794 33.6093 36.8063 33.4547 36.5855L30.5586 32.4487C30.3162 32.1025 29.9833 31.8296 29.5963 31.6598C29.2093 31.4899 28.783 31.43 28.3641 31.4859Z" fill="white"/>
</g>
<defs>
<clipPath id="clip0_973_405">
<rect width="30" height="30" fill="white" transform="translate(8 10)"/>
</clipPath>
</defs>
</svg>
