<svg width="47" height="47" viewBox="0 0 47 47" fill="none" xmlns="http://www.w3.org/2000/svg">
<rect width="47" height="47" transform="translate(47) rotate(90)" fill="#6166F1"/>
<g clip-path="url(#clip0_973_422)">
<path d="M31.7188 12.125C32.8211 12.125 33.8782 12.5629 34.6577 13.3423C35.4371 14.1218 35.875 15.1789 35.875 16.2812C35.875 17.3835 35.4371 18.4407 34.6577 19.2202C33.8782 19.9996 32.8211 20.4375 31.7188 20.4375H27.5625V16.2812C27.5625 15.1789 28.0004 14.1218 28.7798 13.3423C29.5593 12.5629 30.6164 12.125 31.7188 12.125Z" stroke="white" stroke-width="1.1875" stroke-linecap="round" stroke-linejoin="round"/>
<path d="M20.4375 20.4375H16.2812C15.1789 20.4375 14.1218 19.9996 13.3423 19.2202C12.5629 18.4407 12.125 17.3836 12.125 16.2812C12.125 15.1789 12.5629 14.1218 13.3423 13.3423C14.1218 12.5629 15.1789 12.125 16.2812 12.125C17.3835 12.125 18.4407 12.5629 19.2202 13.3423C19.9996 14.1218 20.4375 15.1789 20.4375 16.2812V20.4375Z" stroke="white" stroke-width="1.1875" stroke-linecap="round" stroke-linejoin="round"/>
<path d="M27.5625 27.5625H31.7188C32.8211 27.5625 33.8782 28.0004 34.6577 28.7798C35.4371 29.5593 35.875 30.6164 35.875 31.7188C35.875 32.8211 35.4371 33.8782 34.6577 34.6577C33.8782 35.4371 32.8211 35.875 31.7188 35.875C30.6165 35.875 29.5593 35.4371 28.7798 34.6577C28.0004 33.8782 27.5625 32.8211 27.5625 31.7188V27.5625Z" stroke="white" stroke-width="1.1875" stroke-linecap="round" stroke-linejoin="round"/>
<path d="M16.2812 35.875C15.1789 35.875 14.1218 35.4371 13.3423 34.6577C12.5629 33.8782 12.125 32.8211 12.125 31.7188C12.125 30.6165 12.5629 29.5593 13.3423 28.7798C14.1218 28.0004 15.1789 27.5625 16.2812 27.5625H20.4375V31.7188C20.4375 32.8211 19.9996 33.8782 19.2202 34.6577C18.4407 35.4371 17.3836 35.875 16.2812 35.875Z" stroke="white" stroke-width="1.1875" stroke-linecap="round" stroke-linejoin="round"/>
<path d="M27.5625 20.4375H20.4375V27.5625H27.5625V20.4375Z" stroke="white" stroke-width="1.1875" stroke-linecap="round" stroke-linejoin="round"/>
<path fill-rule="evenodd" clip-rule="evenodd" d="M11.7501 19.2378C9.20604 16.525 10.0905 12.7807 13.7235 10.8812C13.8644 10.8074 13.9603 10.6949 13.9901 10.5684C14.02 10.4419 13.9814 10.3117 13.8829 10.2064C13.7841 10.1013 13.6334 10.0297 13.464 10.0074C13.2946 9.98506 13.1202 10.0139 12.9792 10.0875C8.7594 12.2938 7.73248 16.6428 10.6871 19.7936C10.7859 19.8987 10.9365 19.9703 11.106 19.9926C11.2754 20.0149 11.4498 19.9861 11.5908 19.9125C11.7316 19.8388 11.8275 19.7263 11.8574 19.5998C11.8873 19.4733 11.8487 19.3431 11.7501 19.2378Z" fill="white"/>
</g>
<defs>
<clipPath id="clip0_973_422">
<rect width="38" height="38" fill="white" transform="translate(5 5)"/>
</clipPath>
</defs>
</svg>
