<svg width="1728" height="356" viewBox="0 0 1728 356" fill="none" xmlns="http://www.w3.org/2000/svg">
<rect x="1571.5" y="178.5" width="59" height="59" stroke="#6166F1"/>
<rect x="1571.5" y="237.5" width="59" height="59" stroke="#6166F1"/>
<rect x="1571.5" y="296.5" width="59" height="59" stroke="#6166F1"/>
<rect x="627.5" y="178.5" width="59" height="59" stroke="#6166F1"/>
<rect x="627.5" y="237.5" width="59" height="59" stroke="#6166F1"/>
<rect x="627.5" y="296.5" width="59" height="59" stroke="#6166F1"/>
<rect x="1099.5" y="178.5" width="59" height="59" stroke="#6166F1"/>
<rect x="1099.5" y="237.5" width="59" height="59" stroke="#6166F1"/>
<rect x="1099.5" y="296.5" width="59" height="59" stroke="#6166F1"/>
<rect x="155.5" y="178.5" width="59" height="59" stroke="#6166F1"/>
<rect x="155.5" y="237.5" width="59" height="59" stroke="#6166F1"/>
<rect x="155.5" y="296.5" width="59" height="59" stroke="#6166F1"/>
<rect x="1335.5" y="178.5" width="59" height="59" stroke="#6166F1"/>
<rect x="1335.5" y="237.5" width="59" height="59" stroke="#6166F1"/>
<rect x="1335.5" y="296.5" width="59" height="59" stroke="#6166F1"/>
<rect x="391.5" y="178.5" width="59" height="59" stroke="#6166F1"/>
<rect x="391.5" y="237.5" width="59" height="59" stroke="#6166F1"/>
<rect x="391.5" y="296.5" width="59" height="59" stroke="#6166F1"/>
<rect x="863.5" y="178.5" width="59" height="59" stroke="#6166F1"/>
<rect x="863.5" y="237.5" width="59" height="59" stroke="#6166F1"/>
<rect x="863.5" y="296.5" width="59" height="59" stroke="#6166F1"/>
<rect x="1630.5" y="178.5" width="59" height="59" stroke="#6166F1"/>
<rect x="1630.5" y="237.5" width="59" height="59" stroke="#6166F1"/>
<rect x="1630.5" y="296.5" width="59" height="59" stroke="#6166F1"/>
<rect x="686.5" y="178.5" width="59" height="59" stroke="#6166F1"/>
<rect x="686.5" y="237.5" width="59" height="59" stroke="#6166F1"/>
<rect x="686.5" y="296.5" width="59" height="59" stroke="#6166F1"/>
<rect x="1158.5" y="178.5" width="59" height="59" stroke="#6166F1"/>
<rect x="1158.5" y="237.5" width="59" height="59" stroke="#6166F1"/>
<rect x="1158.5" y="296.5" width="59" height="59" stroke="#6166F1"/>
<rect x="214.5" y="178.5" width="59" height="59" stroke="#6166F1"/>
<rect x="214.5" y="237.5" width="59" height="59" stroke="#6166F1"/>
<rect x="214.5" y="296.5" width="59" height="59" stroke="#6166F1"/>
<rect x="1394.5" y="178.5" width="59" height="59" stroke="#6166F1"/>
<rect x="1394.5" y="237.5" width="59" height="59" stroke="#6166F1"/>
<rect x="1394.5" y="296.5" width="59" height="59" stroke="#6166F1"/>
<rect x="450.5" y="178.5" width="59" height="59" stroke="#6166F1"/>
<rect x="450.5" y="237.5" width="59" height="59" stroke="#6166F1"/>
<rect x="450.5" y="296.5" width="59" height="59" stroke="#6166F1"/>
<rect x="922.5" y="178.5" width="59" height="59" stroke="#6166F1"/>
<rect x="922.5" y="237.5" width="59" height="59" stroke="#6166F1"/>
<rect x="922.5" y="296.5" width="59" height="59" stroke="#6166F1"/>
<rect x="-21.5" y="178.5" width="59" height="59" stroke="#6166F1"/>
<rect x="-21.5" y="237.5" width="59" height="59" stroke="#6166F1"/>
<rect x="-21.5" y="296.5" width="59" height="59" stroke="#6166F1"/>
<rect x="1689.5" y="178.5" width="59" height="59" stroke="#6166F1"/>
<rect x="1689.5" y="237.5" width="59" height="59" stroke="#6166F1"/>
<rect x="1689.5" y="296.5" width="59" height="59" stroke="#6166F1"/>
<rect x="745.5" y="178.5" width="59" height="59" stroke="#6166F1"/>
<rect x="745.5" y="237.5" width="59" height="59" stroke="#6166F1"/>
<rect x="745.5" y="296.5" width="59" height="59" stroke="#6166F1"/>
<rect x="1217.5" y="178.5" width="59" height="59" stroke="#6166F1"/>
<rect x="1217.5" y="237.5" width="59" height="59" stroke="#6166F1"/>
<rect x="1217.5" y="296.5" width="59" height="59" stroke="#6166F1"/>
<rect x="273.5" y="178.5" width="59" height="59" stroke="#6166F1"/>
<rect x="273.5" y="237.5" width="59" height="59" stroke="#6166F1"/>
<rect x="273.5" y="296.5" width="59" height="59" stroke="#6166F1"/>
<rect x="1453.5" y="178.5" width="59" height="59" stroke="#6166F1"/>
<rect x="1453.5" y="237.5" width="59" height="59" stroke="#6166F1"/>
<rect x="1453.5" y="296.5" width="59" height="59" stroke="#6166F1"/>
<rect x="509.5" y="178.5" width="59" height="59" stroke="#6166F1"/>
<rect x="509.5" y="237.5" width="59" height="59" stroke="#6166F1"/>
<rect x="509.5" y="296.5" width="59" height="59" stroke="#6166F1"/>
<rect x="981.5" y="178.5" width="59" height="59" stroke="#6166F1"/>
<rect x="981.5" y="237.5" width="59" height="59" stroke="#6166F1"/>
<rect x="981.5" y="296.5" width="59" height="59" stroke="#6166F1"/>
<rect x="37.5" y="178.5" width="59" height="59" stroke="#6166F1"/>
<rect x="37.5" y="237.5" width="59" height="59" stroke="#6166F1"/>
<rect x="37.5" y="296.5" width="59" height="59" stroke="#6166F1"/>
<rect x="804.5" y="178.5" width="59" height="59" stroke="#6166F1"/>
<rect x="804.5" y="237.5" width="59" height="59" stroke="#6166F1"/>
<rect x="804.5" y="296.5" width="59" height="59" stroke="#6166F1"/>
<rect x="1276.5" y="178.5" width="59" height="59" stroke="#6166F1"/>
<rect x="1276.5" y="237.5" width="59" height="59" stroke="#6166F1"/>
<rect x="1276.5" y="296.5" width="59" height="59" stroke="#6166F1"/>
<rect x="332.5" y="178.5" width="59" height="59" stroke="#6166F1"/>
<rect x="332.5" y="237.5" width="59" height="59" stroke="#6166F1"/>
<rect x="332.5" y="296.5" width="59" height="59" stroke="#6166F1"/>
<rect x="1512.5" y="178.5" width="59" height="59" stroke="#6166F1"/>
<rect x="1512.5" y="237.5" width="59" height="59" stroke="#6166F1"/>
<rect x="1512.5" y="296.5" width="59" height="59" stroke="#6166F1"/>
<rect x="568.5" y="178.5" width="59" height="59" stroke="#6166F1"/>
<rect x="568.5" y="237.5" width="59" height="59" stroke="#6166F1"/>
<rect x="568.5" y="296.5" width="59" height="59" stroke="#6166F1"/>
<rect x="1040.5" y="178.5" width="59" height="59" stroke="#6166F1"/>
<rect x="1040.5" y="237.5" width="59" height="59" stroke="#6166F1"/>
<rect x="1040.5" y="296.5" width="59" height="59" stroke="#6166F1"/>
<rect x="96.5" y="178.5" width="59" height="59" stroke="#6166F1"/>
<rect x="96.5" y="237.5" width="59" height="59" stroke="#6166F1"/>
<rect x="96.5" y="296.5" width="59" height="59" stroke="#6166F1"/>
<rect x="1571.5" y="1.50024" width="59" height="59" stroke="#6166F1"/>
<rect x="1571.5" y="60.5002" width="59" height="59" stroke="#6166F1"/>
<rect x="1571.5" y="119.5" width="59" height="59" stroke="#6166F1"/>
<rect x="627.5" y="1.50024" width="59" height="59" stroke="#6166F1"/>
<rect x="627.5" y="60.5002" width="59" height="59" stroke="#6166F1"/>
<rect x="627.5" y="119.5" width="59" height="59" stroke="#6166F1"/>
<rect x="1099.5" y="1.50024" width="59" height="59" stroke="#6166F1"/>
<rect x="1099.5" y="60.5002" width="59" height="59" stroke="#6166F1"/>
<rect x="1099.5" y="119.5" width="59" height="59" stroke="#6166F1"/>
<rect x="155.5" y="1.50024" width="59" height="59" stroke="#6166F1"/>
<rect x="155.5" y="60.5002" width="59" height="59" stroke="#6166F1"/>
<rect x="155.5" y="119.5" width="59" height="59" stroke="#6166F1"/>
<rect x="1335.5" y="1.50024" width="59" height="59" stroke="#6166F1"/>
<rect x="1335.5" y="60.5002" width="59" height="59" stroke="#6166F1"/>
<rect x="1335.5" y="119.5" width="59" height="59" stroke="#6166F1"/>
<rect x="391.5" y="1.50024" width="59" height="59" stroke="#6166F1"/>
<rect x="391.5" y="60.5002" width="59" height="59" stroke="#6166F1"/>
<rect x="391.5" y="119.5" width="59" height="59" stroke="#6166F1"/>
<rect x="863.5" y="1.50024" width="59" height="59" stroke="#6166F1"/>
<rect x="863.5" y="60.5002" width="59" height="59" stroke="#6166F1"/>
<rect x="863.5" y="119.5" width="59" height="59" stroke="#6166F1"/>
<rect x="1630.5" y="1.50024" width="59" height="59" stroke="#6166F1"/>
<rect x="1630.5" y="60.5002" width="59" height="59" stroke="#6166F1"/>
<rect x="1630.5" y="119.5" width="59" height="59" stroke="#6166F1"/>
<rect x="686.5" y="1.50024" width="59" height="59" stroke="#6166F1"/>
<rect x="686.5" y="60.5002" width="59" height="59" stroke="#6166F1"/>
<rect x="686.5" y="119.5" width="59" height="59" stroke="#6166F1"/>
<rect x="1158.5" y="1.50024" width="59" height="59" stroke="#6166F1"/>
<rect x="1158.5" y="60.5002" width="59" height="59" stroke="#6166F1"/>
<rect x="1158.5" y="119.5" width="59" height="59" stroke="#6166F1"/>
<rect x="214.5" y="1.50024" width="59" height="59" stroke="#6166F1"/>
<rect x="214.5" y="60.5002" width="59" height="59" stroke="#6166F1"/>
<rect x="214.5" y="119.5" width="59" height="59" stroke="#6166F1"/>
<rect x="1394.5" y="1.50024" width="59" height="59" stroke="#6166F1"/>
<rect x="1394.5" y="60.5002" width="59" height="59" stroke="#6166F1"/>
<rect x="1394.5" y="119.5" width="59" height="59" stroke="#6166F1"/>
<rect x="450.5" y="1.50024" width="59" height="59" stroke="#6166F1"/>
<rect x="450.5" y="60.5002" width="59" height="59" stroke="#6166F1"/>
<rect x="450.5" y="119.5" width="59" height="59" stroke="#6166F1"/>
<rect x="922.5" y="1.50024" width="59" height="59" stroke="#6166F1"/>
<rect x="922.5" y="60.5002" width="59" height="59" stroke="#6166F1"/>
<rect x="922.5" y="119.5" width="59" height="59" stroke="#6166F1"/>
<rect x="-21.5" y="1.50024" width="59" height="59" stroke="#6166F1"/>
<rect x="-21.5" y="60.5002" width="59" height="59" stroke="#6166F1"/>
<rect x="-21.5" y="119.5" width="59" height="59" stroke="#6166F1"/>
<rect x="1689.5" y="1.50024" width="59" height="59" stroke="#6166F1"/>
<rect x="1689.5" y="60.5002" width="59" height="59" stroke="#6166F1"/>
<rect x="1689.5" y="119.5" width="59" height="59" stroke="#6166F1"/>
<rect x="745.5" y="1.50024" width="59" height="59" stroke="#6166F1"/>
<rect x="745.5" y="60.5002" width="59" height="59" stroke="#6166F1"/>
<rect x="745.5" y="119.5" width="59" height="59" stroke="#6166F1"/>
<rect x="1217.5" y="1.50024" width="59" height="59" stroke="#6166F1"/>
<rect x="1217.5" y="60.5002" width="59" height="59" stroke="#6166F1"/>
<rect x="1217.5" y="119.5" width="59" height="59" stroke="#6166F1"/>
<rect x="273.5" y="1.50024" width="59" height="59" stroke="#6166F1"/>
<rect x="273.5" y="60.5002" width="59" height="59" stroke="#6166F1"/>
<rect x="273.5" y="119.5" width="59" height="59" stroke="#6166F1"/>
<rect x="1453.5" y="1.50024" width="59" height="59" stroke="#6166F1"/>
<rect x="1453.5" y="60.5002" width="59" height="59" stroke="#6166F1"/>
<rect x="1453.5" y="119.5" width="59" height="59" stroke="#6166F1"/>
<rect x="509.5" y="1.50024" width="59" height="59" stroke="#6166F1"/>
<rect x="509.5" y="60.5002" width="59" height="59" stroke="#6166F1"/>
<rect x="509.5" y="119.5" width="59" height="59" stroke="#6166F1"/>
<rect x="981.5" y="1.50024" width="59" height="59" stroke="#6166F1"/>
<rect x="981.5" y="60.5002" width="59" height="59" stroke="#6166F1"/>
<rect x="981.5" y="119.5" width="59" height="59" stroke="#6166F1"/>
<rect x="37.5" y="1.50024" width="59" height="59" stroke="#6166F1"/>
<rect x="37.5" y="60.5002" width="59" height="59" stroke="#6166F1"/>
<rect x="37.5" y="119.5" width="59" height="59" stroke="#6166F1"/>
<rect x="804.5" y="1.50024" width="59" height="59" stroke="#6166F1"/>
<rect x="804.5" y="60.5002" width="59" height="59" stroke="#6166F1"/>
<rect x="804.5" y="119.5" width="59" height="59" stroke="#6166F1"/>
<rect x="1276.5" y="1.50024" width="59" height="59" stroke="#6166F1"/>
<rect x="1276.5" y="60.5002" width="59" height="59" stroke="#6166F1"/>
<rect x="1276.5" y="119.5" width="59" height="59" stroke="#6166F1"/>
<rect x="332.5" y="1.50024" width="59" height="59" stroke="#6166F1"/>
<rect x="332.5" y="60.5002" width="59" height="59" stroke="#6166F1"/>
<rect x="332.5" y="119.5" width="59" height="59" stroke="#6166F1"/>
<rect x="1512.5" y="1.50024" width="59" height="59" stroke="#6166F1"/>
<rect x="1512.5" y="60.5002" width="59" height="59" stroke="#6166F1"/>
<rect x="1512.5" y="119.5" width="59" height="59" stroke="#6166F1"/>
<rect x="568.5" y="1.50024" width="59" height="59" stroke="#6166F1"/>
<rect x="568.5" y="60.5002" width="59" height="59" stroke="#6166F1"/>
<rect x="568.5" y="119.5" width="59" height="59" stroke="#6166F1"/>
<rect x="1040.5" y="1.50024" width="59" height="59" stroke="#6166F1"/>
<rect x="1040.5" y="60.5002" width="59" height="59" stroke="#6166F1"/>
<rect x="1040.5" y="119.5" width="59" height="59" stroke="#6166F1"/>
<rect x="96.5" y="1.50024" width="59" height="59" stroke="#6166F1"/>
<rect x="96.5" y="60.5002" width="59" height="59" stroke="#6166F1"/>
<rect x="96.5" y="119.5" width="59" height="59" stroke="#6166F1"/>
<rect x="-1" y="153" width="1729" height="203" fill="url(#paint0_linear_973_436)"/>
<rect x="1728" y="203" width="1729" height="203" transform="rotate(-180 1728 203)" fill="url(#paint1_linear_973_436)"/>
<defs>
<linearGradient id="paint0_linear_973_436" x1="863.5" y1="153" x2="863.5" y2="356" gradientUnits="userSpaceOnUse">
<stop stop-color="white" stop-opacity="0"/>
<stop offset="1" stop-color="white"/>
</linearGradient>
<linearGradient id="paint1_linear_973_436" x1="2592.5" y1="203" x2="2592.5" y2="406" gradientUnits="userSpaceOnUse">
<stop stop-color="white" stop-opacity="0"/>
<stop offset="1" stop-color="white"/>
</linearGradient>
</defs>
</svg>
