<svg width="24" height="24" viewBox="0 0 24 24" fill="none" xmlns="http://www.w3.org/2000/svg">
<path d="M20.6598 9.17892C21.2618 9.7176 21.7688 10.2404 22.1491 10.6524C22.4118 10.9435 22.5572 11.3217 22.5572 11.7139C22.5572 12.106 22.4118 12.4843 22.1491 12.7754C20.4855 14.5657 16.6989 18.0512 12.2786 18.0512H11.6449M7.31964 16.6729C5.4844 15.645 3.82613 14.3291 2.40819 12.7754C2.14544 12.4843 2 12.106 2 11.7139C2 11.3217 2.14544 10.9435 2.40819 10.6524C4.07174 8.86206 7.85832 5.37651 12.2786 5.37651C14.021 5.41293 15.7263 5.88692 17.2376 6.75488M20.9925 3L3.56476 20.4277" stroke="#6B6C80" stroke-width="1.8484" stroke-linecap="round" stroke-linejoin="round"/>
<path d="M10.0446 13.9475C9.44957 13.356 9.1134 12.5526 9.10986 11.7136C9.10986 10.8732 9.44371 10.0672 10.0379 9.47301C10.6322 8.87876 11.4382 8.54492 12.2785 8.54492C13.1176 8.54846 13.9209 8.88462 14.5125 9.47968M15.0353 13.2979C14.7533 13.7801 14.3488 14.1791 13.8629 14.4545" stroke="#6B6C80" stroke-width="1.32028" stroke-linecap="round" stroke-linejoin="round"/>
</svg>
