<svg width="17" height="17" viewBox="0 0 17 17" fill="none" xmlns="http://www.w3.org/2000/svg">
<g id="Icon" clip-path="url(#clip0_5048_21008)">
<path id="Vector" d="M7.10717 1.0666C7.41744 0.818053 7.80312 0.682617 8.20067 0.682617C8.59822 0.682617 8.9839 0.818053 9.29417 1.0666L14.5442 5.2666C14.9592 5.5986 15.2012 6.1016 15.2012 6.63361V13.6526C15.2012 14.1167 15.0168 14.5619 14.6886 14.89C14.3604 15.2182 13.9153 15.4026 13.4512 15.4026H9.95117C9.75226 15.4026 9.56149 15.3236 9.42084 15.1829C9.28019 15.0423 9.20117 14.8515 9.20117 14.6526V9.40261H7.20117V14.6526C7.20117 14.8515 7.12215 15.0423 6.9815 15.1829C6.84085 15.3236 6.65008 15.4026 6.45117 15.4026H2.95117C2.48704 15.4026 2.04192 15.2182 1.71373 14.89C1.38555 14.5619 1.20117 14.1167 1.20117 13.6526V6.6326C1.20117 6.1016 1.44317 5.5986 1.85817 5.2666L7.10717 1.0666ZM8.35717 2.2376C8.31287 2.20223 8.25786 2.18296 8.20117 2.18296C8.14448 2.18296 8.08947 2.20223 8.04517 2.2376L2.79517 6.4376C2.76576 6.46109 2.74203 6.49092 2.72575 6.52485C2.70948 6.55879 2.70107 6.59597 2.70117 6.63361V13.6526C2.70117 13.7906 2.81317 13.9026 2.95117 13.9026H5.70117V8.65261C5.70117 8.45369 5.78019 8.26293 5.92084 8.12227C6.06149 7.98162 6.25226 7.90261 6.45117 7.90261H9.95117C10.1501 7.90261 10.3408 7.98162 10.4815 8.12227C10.6222 8.26293 10.7012 8.45369 10.7012 8.65261V13.9026H13.4512C13.5175 13.9026 13.5811 13.8763 13.6279 13.8294C13.6748 13.7825 13.7012 13.7189 13.7012 13.6526V6.6326C13.7011 6.59513 13.6926 6.55816 13.6764 6.5244C13.6601 6.49065 13.6365 6.46099 13.6072 6.4376L8.35717 2.2376Z" fill="#636363"/>
</g>
<defs>
<clipPath id="clip0_5048_21008">
<rect width="16" height="16" fill="white" transform="translate(0.201172 0.402832)"/>
</clipPath>
</defs>
</svg>
