<svg width="18" height="19" viewBox="0 0 18 19" fill="none" xmlns="http://www.w3.org/2000/svg">
<path d="M7.6325 0.829594C8.02033 0.518904 8.50244 0.349609 8.99937 0.349609C9.49631 0.349609 9.97842 0.518904 10.3663 0.829594L16.9288 6.07959C17.4475 6.49459 17.75 7.12334 17.75 7.78834V16.5621C17.75 17.1423 17.5195 17.6987 17.1093 18.1089C16.6991 18.5191 16.1427 18.7496 15.5625 18.7496H11.1875C10.9389 18.7496 10.7004 18.6508 10.5246 18.475C10.3488 18.2992 10.25 18.0607 10.25 17.8121V11.2496H7.75V17.8121C7.75 18.0607 7.65123 18.2992 7.47541 18.475C7.2996 18.6508 7.06114 18.7496 6.8125 18.7496H2.4375C1.85734 18.7496 1.30094 18.5191 0.890704 18.1089C0.480468 17.6987 0.25 17.1423 0.25 16.5621V7.78709C0.25 7.12334 0.5525 6.49459 1.07125 6.07959L7.6325 0.829594ZM9.195 2.29334C9.13962 2.24912 9.07086 2.22504 9 2.22504C8.92914 2.22504 8.86038 2.24912 8.805 2.29334L2.2425 7.54334C2.20574 7.5727 2.17607 7.60998 2.15573 7.65241C2.13538 7.69483 2.12488 7.7413 2.125 7.78834V16.5621C2.125 16.7346 2.265 16.8746 2.4375 16.8746H5.875V10.3121C5.875 10.0635 5.97377 9.825 6.14959 9.64918C6.3254 9.47337 6.56386 9.37459 6.8125 9.37459H11.1875C11.4361 9.37459 11.6746 9.47337 11.8504 9.64918C12.0262 9.825 12.125 10.0635 12.125 10.3121V16.8746H15.5625C15.6454 16.8746 15.7249 16.8417 15.7835 16.7831C15.8421 16.7245 15.875 16.645 15.875 16.5621V7.78709C15.8749 7.74026 15.8643 7.69403 15.844 7.65184C15.8237 7.60965 15.7941 7.57257 15.7575 7.54334L9.195 2.29334Z" fill="#000"/>
</svg>
