<svg width="31" height="31" viewBox="0 0 31 31" fill="none" xmlns="http://www.w3.org/2000/svg">
<path d="M15.6367 11.3789C14.8958 11.3789 14.1715 11.5986 13.5555 12.0102C12.9394 12.4218 12.4593 13.0069 12.1757 13.6914C11.8922 14.3759 11.818 15.1292 11.9626 15.8559C12.1071 16.5825 12.4639 17.25 12.9878 17.774C13.5117 18.2979 14.1792 18.6546 14.9059 18.7992C15.6326 18.9437 16.3858 18.8696 17.0703 18.586C17.7548 18.3025 18.3399 17.8223 18.7516 17.2063C19.1632 16.5902 19.3829 15.8659 19.3829 15.125C19.3829 14.6331 19.286 14.1459 19.0977 13.6914C18.9095 13.2369 18.6335 12.8239 18.2857 12.4761C17.9378 12.1282 17.5248 11.8523 17.0703 11.664C16.6158 11.4758 16.1287 11.3789 15.6367 11.3789ZM30.6365 7.67801C30.6285 6.5115 30.4137 5.35565 30.0021 4.26417C29.6989 3.46548 29.2297 2.74017 28.6257 2.13609C28.0216 1.53201 27.2963 1.06289 26.4976 0.7597C25.4061 0.348021 24.2502 0.133216 23.0837 0.12527C21.1351 0.0195311 20.5611 0.0195312 15.6367 0.0195312C10.7123 0.0195312 10.1383 0.0195311 8.18973 0.12527C7.02322 0.133216 5.86737 0.348021 4.77589 0.7597C3.9772 1.06289 3.25189 1.53201 2.64781 2.13609C2.04373 2.74017 1.57461 3.46548 1.27142 4.26417C0.85974 5.35565 0.644935 6.5115 0.636988 7.67801C0.53125 9.62662 0.53125 10.2006 0.53125 15.125C0.53125 20.0494 0.53125 20.6234 0.636988 22.572C0.653248 23.7426 0.867761 24.902 1.27142 26.001C1.57327 26.796 2.04199 27.5171 2.64602 28.1157C3.24751 28.7234 3.97438 29.1926 4.77589 29.4903C5.86737 29.902 7.02322 30.1168 8.18973 30.1248C10.1383 30.2305 10.7123 30.2305 15.6367 30.2305C20.5611 30.2305 21.1351 30.2305 23.0837 30.1248C24.2502 30.1168 25.4061 29.902 26.4976 29.4903C27.2991 29.1926 28.026 28.7234 28.6275 28.1157C29.2315 27.5171 29.7002 26.796 30.0021 26.001C30.4133 24.9041 30.6281 23.7434 30.6365 22.572C30.7422 20.6234 30.7422 20.0494 30.7422 15.125C30.7422 10.2006 30.7422 9.62662 30.6365 7.67801ZM26.7997 19.7624C26.7512 20.6946 26.5523 21.6128 26.2106 22.4814C25.9173 23.206 25.4814 23.8642 24.9286 24.4169C24.3759 24.9697 23.7177 25.4056 22.9931 25.6989C22.1163 26.0215 21.1929 26.2 20.259 26.2275C19.0657 26.2275 18.7485 26.2275 15.6367 26.2275C12.525 26.2275 12.2078 26.2275 11.0145 26.2275C10.0805 26.2 9.15722 26.0215 8.28036 25.6989C7.53129 25.4205 6.85482 24.9764 6.30155 24.3998C5.75422 23.8579 5.33154 23.2032 5.0629 22.4814C4.73897 21.6054 4.56533 20.6811 4.54931 19.7473C4.54931 18.554 4.54931 18.2367 4.54931 15.125C4.54931 12.0133 4.54931 11.6961 4.54931 10.5027C4.56533 9.56896 4.73897 8.64459 5.0629 7.76865C5.34126 7.01957 5.78535 6.34311 6.36197 5.78983C6.90627 5.24546 7.56023 4.82322 8.28036 4.55118C9.15722 4.22853 10.0805 4.04999 11.0145 4.02248C12.2078 4.02248 12.525 4.02248 15.6367 4.02248C18.7485 4.02248 19.0657 4.02248 20.259 4.02248C21.1929 4.04999 22.1163 4.22853 22.9931 4.55118C23.7422 4.82954 24.4186 5.27363 24.9719 5.85025C25.5192 6.39216 25.9419 7.0468 26.2106 7.76865C26.5332 8.6455 26.7118 9.56881 26.7393 10.5027C26.7393 11.6961 26.7393 12.0133 26.7393 15.125C26.7393 18.2367 26.845 18.554 26.7997 19.7473V19.7624ZM24.3828 8.52392C24.203 8.03599 23.9194 7.59288 23.5517 7.22517C23.184 6.85746 22.7409 6.5739 22.2529 6.39405C21.583 6.16181 20.8773 6.04932 20.1684 6.06173C18.9902 6.06173 18.6578 6.06173 15.6367 6.06173C12.6156 6.06173 12.2833 6.06173 11.1051 6.06173C10.3925 6.06869 9.68679 6.20165 9.02053 6.45447C8.54007 6.62615 8.10166 6.89813 7.73443 7.25234C7.3672 7.60655 7.07957 8.03486 6.89066 8.50881C6.67129 9.18156 6.56412 9.88582 6.57344 10.5934C6.57344 11.7716 6.57344 12.1039 6.57344 15.125C6.57344 18.1461 6.57344 18.4784 6.57344 19.6567C6.58842 20.3684 6.72113 21.0728 6.96619 21.7412C7.14604 22.2291 7.4296 22.6723 7.79731 23.04C8.16502 23.4077 8.60813 23.6912 9.09606 23.8711C9.74056 24.1081 10.4188 24.2407 11.1051 24.2638C12.2833 24.2638 12.6156 24.2638 15.6367 24.2638C18.6578 24.2638 18.9902 24.2638 20.1684 24.2638C20.881 24.2569 21.5867 24.1239 22.2529 23.8711C22.7409 23.6912 23.184 23.4077 23.5517 23.04C23.9194 22.6723 24.203 22.2291 24.3828 21.7412C24.6356 21.075 24.7686 20.3692 24.7756 19.6567C24.7756 18.4784 24.7756 18.1461 24.7756 15.125C24.7756 12.1039 24.7756 11.7716 24.7756 10.5934C24.776 9.88009 24.6428 9.17304 24.3828 8.50881V8.52392ZM15.6367 20.8953C14.8797 20.8953 14.1301 20.746 13.4308 20.4558C12.7316 20.1656 12.0965 19.7403 11.5619 19.2043C11.0272 18.6683 10.6036 18.0321 10.3153 17.3321C10.027 16.6321 9.87956 15.8821 9.88154 15.125C9.88155 13.9831 10.2204 12.8669 10.8551 11.9176C11.4898 10.9684 12.3919 10.2288 13.4471 9.79253C14.5024 9.35624 15.6634 9.24285 16.7831 9.46673C17.9029 9.6906 18.931 10.2417 19.7374 11.0502C20.5438 11.8587 21.0922 12.8883 21.3131 14.0086C21.534 15.1289 21.4176 16.2896 20.9785 17.3437C20.5395 18.3978 19.7976 19.298 18.8466 19.9302C17.8957 20.5624 16.7786 20.8983 15.6367 20.8953ZM21.6789 10.4876C21.345 10.4523 21.036 10.2946 20.8114 10.045C20.5868 9.79538 20.4625 9.47147 20.4625 9.13569C20.4625 8.79991 20.5868 8.476 20.8114 8.22639C21.036 7.97677 21.345 7.8191 21.6789 7.78375C22.0128 7.8191 22.3219 7.97677 22.5465 8.22639C22.7711 8.476 22.8953 8.79991 22.8953 9.13569C22.8953 9.47147 22.7711 9.79538 22.5465 10.045C22.3219 10.2946 22.0128 10.4523 21.6789 10.4876Z" fill="white"/>
</svg>
