<svg width="20" height="20" viewBox="0 0 20 20" fill="none" xmlns="http://www.w3.org/2000/svg">
<g id="light">
<path id="Vector" d="M15.8123 9.22049H15.1851C14.8312 9.22049 14.5451 9.45025 14.5451 9.73313C14.5451 10.0154 14.8312 10.2445 15.1851 10.2445H15.8123C16.1656 10.2445 16.4523 10.016 16.4523 9.73313C16.4523 9.45089 16.165 9.22049 15.8123 9.22049ZM10.0523 6.21313C9.58969 6.21169 9.13131 6.30176 8.7036 6.47815C8.27589 6.65454 7.88727 6.91376 7.56012 7.24091C7.23298 7.56806 6.97375 7.95667 6.79736 8.38439C6.62097 8.8121 6.53091 9.27047 6.53234 9.73313C6.53234 11.6858 8.0997 13.2531 10.0523 13.2531C12.0043 13.2531 13.5723 11.6858 13.5723 9.73313C13.5723 7.78049 12.0037 6.21313 10.0523 6.21313ZM10.0523 12.2931C8.6373 12.2931 7.49234 11.1469 7.49234 9.73313C7.49234 8.31809 8.6373 7.17313 10.0523 7.17313C10.7313 7.17313 11.3824 7.44284 11.8625 7.92294C12.3426 8.40303 12.6123 9.05418 12.6123 9.73313C12.6123 10.4121 12.3426 11.0632 11.8625 11.5433C11.3824 12.0234 10.7313 12.2931 10.0523 12.2931ZM5.57234 9.73313C5.57234 9.45089 5.28498 9.22049 4.93234 9.22049H4.29234C3.93842 9.22049 3.65234 9.45025 3.65234 9.73313C3.65234 10.0154 3.93842 10.2445 4.29234 10.2445H4.93234C5.28498 10.2445 5.57234 10.0154 5.57234 9.73313ZM10.0523 5.25313C10.3346 5.25313 10.5637 4.96705 10.5637 4.61313V3.97313C10.5637 3.61921 10.3346 3.33313 10.0523 3.33313C9.76946 3.33313 9.5397 3.61921 9.5397 3.97313V4.61313C9.5397 4.96705 9.76946 5.25313 10.0523 5.25313ZM10.0523 14.2131C9.76946 14.2131 9.5397 14.4992 9.5397 14.8531V15.4931C9.5397 15.847 9.76946 16.1331 10.0523 16.1331C10.3346 16.1331 10.5637 15.847 10.5637 15.4931V14.8531C10.5637 14.4992 10.3346 14.2131 10.0523 14.2131ZM14.7659 5.74337C15.0162 5.49313 15.0565 5.12833 14.8568 4.92865C14.6571 4.72897 14.2917 4.76993 14.0427 5.02017L13.5947 5.46753C13.3445 5.71777 13.3042 6.08257 13.5039 6.28225C13.7035 6.48193 14.069 6.44097 14.3186 6.19073L14.7659 5.74337ZM5.7861 13.2742L5.3381 13.7229C5.08786 13.9731 5.04754 14.3366 5.24722 14.5363C5.4469 14.736 5.81234 14.6963 6.0613 14.4461L6.5093 13.9987C6.75954 13.7485 6.79986 13.3837 6.60018 13.1834C6.4005 12.983 6.03506 13.0253 5.7861 13.2742ZM6.06194 5.01953C5.81234 4.76929 5.4469 4.72833 5.24722 4.92801C5.04754 5.12769 5.0885 5.49313 5.33746 5.74337L5.78546 6.19073C6.0357 6.44097 6.39986 6.48193 6.59954 6.28225C6.79922 6.08257 6.7589 5.71713 6.5093 5.46753L6.06194 5.01953ZM13.5941 13.9994L14.0421 14.4467C14.2923 14.697 14.6565 14.7366 14.8562 14.5382C15.0559 14.3386 15.0155 13.9731 14.7653 13.7235L14.3179 13.2762C14.0677 13.0259 13.7029 12.985 13.5026 13.1846C13.3023 13.3843 13.3439 13.7491 13.5941 13.9994Z" fill="white"/>
</g>
</svg>
