<svg width="20" height="20" viewBox="0 0 20 20" fill="none" xmlns="http://www.w3.org/2000/svg">
<g id="dark">
<path id="Vector" d="M16.9035 12.0048C16.0921 12.343 15.2215 12.5165 14.3424 12.5153C12.5773 12.5153 10.8845 11.8142 9.63642 10.566C8.38831 9.31794 7.68713 7.62514 7.68713 5.86004C7.68713 4.95219 7.8687 4.08735 8.19771 3.29895C6.98506 3.80483 5.94923 4.65824 5.22067 5.75169C4.49211 6.84514 4.1034 8.12973 4.10352 9.44366C4.10352 11.2088 4.8047 12.9016 6.0528 14.1497C7.30091 15.3978 8.99371 16.099 10.7588 16.099C12.0727 16.0991 13.3573 15.7104 14.4508 14.9818C15.5442 14.2532 16.3976 13.2174 16.9035 12.0048Z" stroke="white" stroke-width="1.02389" stroke-linecap="round" stroke-linejoin="round"/>
</g>
</svg>
