<svg width="20" height="20" viewBox="0 0 20 20" fill="none" xmlns="http://www.w3.org/2000/svg">
<g id="light">
<path id="Vector" d="M15.8123 9.42081H15.1851C14.8312 9.42081 14.5451 9.65057 14.5451 9.93345C14.5451 10.2157 14.8312 10.4448 15.1851 10.4448H15.8123C16.1656 10.4448 16.4523 10.2163 16.4523 9.93345C16.4523 9.65121 16.165 9.42081 15.8123 9.42081ZM10.0523 6.41345C9.58969 6.41201 9.13131 6.50208 8.7036 6.67846C8.27589 6.85485 7.88727 7.11408 7.56012 7.44123C7.23298 7.76838 6.97375 8.15699 6.79736 8.5847C6.62097 9.01242 6.53091 9.47079 6.53234 9.93345C6.53234 11.8861 8.0997 13.4534 10.0523 13.4534C12.0043 13.4534 13.5723 11.8861 13.5723 9.93345C13.5723 7.98081 12.0037 6.41345 10.0523 6.41345ZM10.0523 12.4934C8.6373 12.4934 7.49234 11.3472 7.49234 9.93345C7.49234 8.51841 8.6373 7.37345 10.0523 7.37345C10.7313 7.37345 11.3824 7.64316 11.8625 8.12325C12.3426 8.60335 12.6123 9.25449 12.6123 9.93345C12.6123 10.6124 12.3426 11.2635 11.8625 11.7436C11.3824 12.2237 10.7313 12.4934 10.0523 12.4934ZM5.57234 9.93345C5.57234 9.65121 5.28498 9.42081 4.93234 9.42081H4.29234C3.93842 9.42081 3.65234 9.65057 3.65234 9.93345C3.65234 10.2157 3.93842 10.4448 4.29234 10.4448H4.93234C5.28498 10.4448 5.57234 10.2157 5.57234 9.93345ZM10.0523 5.45345C10.3346 5.45345 10.5637 5.16737 10.5637 4.81345V4.17345C10.5637 3.81953 10.3346 3.53345 10.0523 3.53345C9.76946 3.53345 9.5397 3.81953 9.5397 4.17345V4.81345C9.5397 5.16737 9.76946 5.45345 10.0523 5.45345ZM10.0523 14.4134C9.76946 14.4134 9.5397 14.6995 9.5397 15.0534V15.6934C9.5397 16.0474 9.76946 16.3334 10.0523 16.3334C10.3346 16.3334 10.5637 16.0474 10.5637 15.6934V15.0534C10.5637 14.6995 10.3346 14.4134 10.0523 14.4134ZM14.7659 5.94369C15.0162 5.69345 15.0565 5.32865 14.8568 5.12897C14.6571 4.92929 14.2917 4.97025 14.0427 5.22049L13.5947 5.66785C13.3445 5.91809 13.3042 6.28289 13.5039 6.48257C13.7035 6.68225 14.069 6.64129 14.3186 6.39105L14.7659 5.94369ZM5.7861 13.4746L5.3381 13.9232C5.08786 14.1734 5.04754 14.537 5.24722 14.7366C5.4469 14.9363 5.81234 14.8966 6.0613 14.6464L6.5093 14.199C6.75954 13.9488 6.79986 13.584 6.60018 13.3837C6.4005 13.1834 6.03506 13.2256 5.7861 13.4746ZM6.06194 5.21985C5.81234 4.96961 5.4469 4.92865 5.24722 5.12833C5.04754 5.32801 5.0885 5.69345 5.33746 5.94369L5.78546 6.39105C6.0357 6.64129 6.39986 6.68225 6.59954 6.48257C6.79922 6.28289 6.7589 5.91745 6.5093 5.66785L6.06194 5.21985ZM13.5941 14.1997L14.0421 14.647C14.2923 14.8973 14.6565 14.937 14.8562 14.7386C15.0559 14.5389 15.0155 14.1734 14.7653 13.9238L14.3179 13.4765C14.0677 13.2262 13.7029 13.1853 13.5026 13.385C13.3023 13.5846 13.3439 13.9494 13.5941 14.1997Z" fill="#0A0A0A"/>
</g>
</svg>
