<svg width="27" height="23" viewBox="0 0 27 23" fill="none" xmlns="http://www.w3.org/2000/svg">
<path d="M10.0359 13.5C10.1685 13.7297 10.3869 13.8973 10.6431 13.9659C10.8993 14.0346 11.1722 13.9986 11.4019 13.866L16.5981 10.866C16.8278 10.7334 16.9953 10.515 17.064 10.2588C17.1326 10.0026 17.0967 9.72968 16.9641 9.5C16.8315 9.27031 16.6131 9.10272 16.3569 9.03407C16.1007 8.96543 15.8278 9.00136 15.5981 9.13397L10.4019 12.134C10.1722 12.2666 10.0046 12.485 9.93599 12.7412C9.86735 12.9974 9.90328 13.2703 10.0359 13.5Z" fill="#6166F1"/>
<path d="M12.9019 16.4641L11.3517 17.3591C10.4754 17.8967 9.43019 18.0881 8.42029 17.8961C7.41039 17.704 6.50842 17.1422 5.89071 16.3204C5.56824 15.8651 5.34459 15.3474 5.23413 14.8005C5.12366 14.2536 5.12882 13.6897 5.24929 13.1449C5.36975 12.6001 5.60285 12.0866 5.9336 11.6373C6.26435 11.1879 6.68544 10.8128 7.16981 10.5359L8.90186 9.5359C9.13155 9.40329 9.29915 9.18487 9.36779 8.92869C9.43643 8.67251 9.4005 8.39956 9.26789 8.16987C9.13528 7.94019 8.91686 7.77259 8.66068 7.70395C8.4045 7.6353 8.13155 7.67124 7.90186 7.80385L6.35168 8.69885C5.05808 9.42283 4.06952 10.5897 3.56795 11.9847C3.06639 13.3797 3.08557 14.9089 3.62196 16.2908C3.94819 17.081 4.43949 17.7923 5.06295 18.3771C5.68642 18.962 6.42766 19.4069 7.23703 19.6819C8.0464 19.957 8.90521 20.056 9.75593 19.9722C10.6067 19.8884 11.4297 19.6238 12.1698 19.1962L13.9019 18.1962C14.1315 18.0635 14.2991 17.8451 14.3678 17.5889C14.4364 17.3328 14.4005 17.0598 14.2679 16.8301C14.1353 16.6004 13.9169 16.4328 13.6607 16.3642C13.4045 16.2956 13.1315 16.3315 12.9019 16.4641ZM22.6462 5.34182C21.7108 4.1689 20.3795 3.37766 18.9022 3.11659C17.4248 2.85551 15.903 3.14256 14.6222 3.92385L13.3145 4.67885C12.613 5.08385 12.457 5.69356 12.732 6.16987C12.8646 6.39956 13.083 6.56715 13.3392 6.6358C13.5954 6.70444 13.8683 6.66851 14.098 6.5359L15.6482 5.6409C16.5245 5.10332 17.5697 4.91186 18.5796 5.10394C19.5895 5.29603 20.4915 5.85784 21.1092 6.67957C21.4316 7.13487 21.6553 7.6526 21.7658 8.19949C21.8762 8.74637 21.8711 9.31032 21.7506 9.85509C21.6301 10.3999 21.397 10.9134 21.0663 11.3627C20.7355 11.8121 20.3144 12.1872 19.8301 12.4641L18.098 13.4641C17.8683 13.5967 17.7007 13.8151 17.6321 14.0713C17.5634 14.3275 17.5994 14.6004 17.732 14.8301C17.8646 15.0598 18.083 15.2274 18.3392 15.2961C18.5954 15.3647 18.8683 15.3288 19.098 15.1962L20.8301 14.1962C21.575 13.774 22.2209 13.1974 22.7245 12.505C23.2281 11.8125 23.5776 11.0203 23.7497 10.1816C23.9217 9.34285 23.9122 8.47701 23.7219 7.64223C23.5316 6.80746 23.1648 6.02309 22.6462 5.34182Z" fill="#6166F1"/>
</svg>
