<svg width="103" height="34" viewBox="0 0 103 34" fill="none" xmlns="http://www.w3.org/2000/svg">
<rect x="1" y="1" width="101.396" height="23.9289" rx="3.57867" fill="#6166F1"/>
<path d="M17.9003 16.9645L17.9003 8.61425H19.4511V15.533L23.3041 15.533V16.9645H17.9003ZM24.9809 16.9645V10.6779H26.4481V16.9645H24.9809ZM25.6966 9.34191C25.4023 9.34191 25.1717 9.27034 25.0047 9.12719C24.8457 8.97609 24.7661 8.76535 24.7661 8.49496C24.7661 8.24047 24.8496 8.03371 25.0166 7.87465C25.1836 7.7156 25.4103 7.63608 25.6966 7.63608C25.9988 7.63608 26.2294 7.71163 26.3885 7.86273C26.5555 8.00587 26.639 8.21662 26.639 8.49496C26.639 8.74149 26.5555 8.94428 26.3885 9.10333C26.2215 9.26238 25.9908 9.34191 25.6966 9.34191ZM28.3086 16.9645V10.6779H29.7401L29.764 11.9663L29.4896 12.1094C29.5691 11.8231 29.7242 11.5647 29.9548 11.334C30.1855 11.0955 30.4598 10.9046 30.7779 10.7614C31.096 10.6183 31.4221 10.5467 31.7561 10.5467C32.2333 10.5467 32.6309 10.6422 32.949 10.833C33.275 11.0239 33.5176 11.3102 33.6766 11.6919C33.8437 12.0736 33.9272 12.5508 33.9272 13.1234L33.9272 16.9645H32.4599V13.2307C32.4599 12.9126 32.4162 12.6502 32.3287 12.4434C32.2412 12.2287 32.106 12.0736 31.9231 11.9782C31.7402 11.8748 31.5175 11.8271 31.2551 11.835C31.0404 11.835 30.8415 11.8708 30.6586 11.9424C30.4837 12.006 30.3286 12.1015 30.1934 12.2287C30.0662 12.348 29.9628 12.4872 29.8833 12.6462C29.8117 12.8053 29.7759 12.9802 29.7759 13.1711V16.9645H29.0482C28.9051 16.9645 28.7699 16.9645 28.6427 16.9645C28.5234 16.9645 28.412 16.9645 28.3086 16.9645ZM36.9496 15.0439L36.6633 13.6721L39.6456 10.6779H41.6019L36.9496 15.0439ZM35.5778 16.9645V8.13709H37.0451L37.0451 16.9645H35.5778ZM39.8245 16.9645L37.5103 14.1612L38.5481 13.2784L41.6377 16.9645H39.8245ZM49.9141 17.0838C49.3097 17.0838 48.757 16.9804 48.256 16.7736C47.755 16.5668 47.3216 16.2726 46.9557 15.8909C46.5899 15.5012 46.3036 15.0439 46.0969 14.5191C45.8981 13.9862 45.7986 13.4057 45.7986 12.7774C45.7986 12.173 45.906 11.6124 46.1207 11.0955C46.3354 10.5785 46.6337 10.1252 47.0154 9.73556C47.3971 9.34589 47.8425 9.04369 48.3514 8.82897C48.8604 8.61425 49.4131 8.50689 50.0095 8.50689C50.4151 8.50689 50.8088 8.56653 51.1905 8.68582C51.5722 8.80511 51.9221 8.97211 52.2403 9.18683C52.5584 9.3936 52.8248 9.63616 53.0395 9.9145L52.0494 11C51.8426 10.7853 51.6279 10.6064 51.4052 10.4632C51.1905 10.3121 50.9639 10.2008 50.7253 10.1292C50.4947 10.0497 50.2561 10.0099 50.0095 10.0099C49.6437 10.0099 49.2978 10.0775 48.9717 10.2127C48.6536 10.3479 48.3753 10.5388 48.1367 10.7853C47.9061 11.0318 47.7232 11.3261 47.588 11.668C47.4528 12.0021 47.3852 12.3758 47.3852 12.7894C47.3852 13.2108 47.4488 13.5926 47.5761 13.9345C47.7112 14.2765 47.8981 14.5707 48.1367 14.8173C48.3832 15.0638 48.6735 15.2547 49.0075 15.3899C49.3495 15.5171 49.7233 15.5807 50.1288 15.5807C50.3913 15.5807 50.6458 15.5449 50.8923 15.4734C51.1388 15.4018 51.3655 15.3024 51.5722 15.1751C51.787 15.0399 51.9818 14.8849 52.1568 14.7099L52.9202 15.9386C52.7293 16.1533 52.4749 16.3482 52.1568 16.5231C51.8386 16.6981 51.4808 16.8372 51.0831 16.9406C50.6935 17.0361 50.3038 17.0838 49.9141 17.0838ZM57.1382 17.0838C56.5099 17.0838 55.9493 16.9446 55.4562 16.6663C54.9631 16.38 54.5735 15.9903 54.2872 15.4972C54.0009 15.0042 53.8577 14.4435 53.8577 13.8152C53.8577 13.187 54.0009 12.6263 54.2872 12.1333C54.5735 11.6402 54.9631 11.2545 55.4562 10.9762C55.9493 10.6899 56.5099 10.5467 57.1382 10.5467C57.7585 10.5467 58.3152 10.6899 58.8082 10.9762C59.3013 11.2545 59.687 11.6402 59.9653 12.1333C60.2516 12.6263 60.3948 13.187 60.3948 13.8152C60.3948 14.4435 60.2516 15.0042 59.9653 15.4972C59.687 15.9903 59.3013 16.38 58.8082 16.6663C58.3152 16.9446 57.7585 17.0838 57.1382 17.0838ZM57.1382 15.7835C57.4801 15.7835 57.7823 15.696 58.0448 15.5211C58.3152 15.3461 58.5259 15.1115 58.677 14.8173C58.8361 14.523 58.9116 14.189 58.9037 13.8152C58.9116 13.4335 58.8361 13.0955 58.677 12.8013C58.5259 12.507 58.3152 12.2764 58.0448 12.1094C57.7823 11.9345 57.4801 11.847 57.1382 11.847C56.7962 11.847 56.4861 11.9345 56.2077 12.1094C55.9373 12.2764 55.7266 12.511 55.5755 12.8132C55.4244 13.1075 55.3489 13.4415 55.3489 13.8152C55.3489 14.189 55.4244 14.523 55.5755 14.8173C55.7266 15.1115 55.9373 15.3461 56.2077 15.5211C56.4861 15.696 56.7962 15.7835 57.1382 15.7835ZM61.7072 19.5888V10.6779H63.1506L63.1745 12.1094L62.924 12.0021C62.9717 11.7555 63.1069 11.5249 63.3296 11.3102C63.5522 11.0875 63.8226 10.9086 64.1407 10.7734C64.4668 10.6382 64.8048 10.5706 65.1547 10.5706C65.7114 10.5706 66.2044 10.7098 66.6339 10.9881C67.0713 11.2664 67.4132 11.6482 67.6598 12.1333C67.9142 12.6184 68.0415 13.179 68.0415 13.8152C68.0415 14.4435 67.9142 15.0042 67.6598 15.4972C67.4132 15.9823 67.0713 16.368 66.6339 16.6543C66.2044 16.9327 65.7193 17.0718 65.1785 17.0718C64.8127 17.0718 64.4588 17.0003 64.1169 16.8571C63.7829 16.714 63.4966 16.5271 63.258 16.2965C63.0274 16.0658 62.8842 15.8233 62.8285 15.5688L63.1864 15.4018V19.5888H61.7072ZM64.8803 15.7716C65.2143 15.7716 65.5126 15.6881 65.775 15.5211C66.0374 15.3541 66.2402 15.1234 66.3834 14.8292C66.5345 14.535 66.61 14.197 66.61 13.8152C66.61 13.4335 66.5384 13.0995 66.3953 12.8132C66.2521 12.519 66.0494 12.2883 65.7869 12.1213C65.5245 11.9543 65.2223 11.8708 64.8803 11.8708C64.5304 11.8708 64.2242 11.9543 63.9618 12.1213C63.7073 12.2804 63.5045 12.507 63.3534 12.8013C63.2023 13.0955 63.1268 13.4335 63.1268 13.8152C63.1268 14.197 63.2023 14.535 63.3534 14.8292C63.5045 15.1234 63.7073 15.3541 63.9618 15.5211C64.2242 15.6881 64.5304 15.7716 64.8803 15.7716ZM69.5162 16.9645V10.6779H70.9834V16.9645H69.5162ZM70.2319 9.34191C69.9377 9.34191 69.7071 9.27034 69.54 9.12719C69.381 8.97609 69.3015 8.76535 69.3015 8.49496C69.3015 8.24047 69.385 8.03371 69.552 7.87465C69.719 7.7156 69.9456 7.63608 70.2319 7.63608C70.5341 7.63608 70.7647 7.71163 70.9238 7.86273C71.0908 8.00587 71.1743 8.21662 71.1743 8.49496C71.1743 8.74149 71.0908 8.94428 70.9238 9.10333C70.7568 9.26238 70.5262 9.34191 70.2319 9.34191ZM75.7904 17.0838C75.1303 17.0838 74.5458 16.9446 74.0369 16.6663C73.5359 16.3879 73.1422 16.0102 72.8559 15.533C72.5776 15.0479 72.4384 14.4952 72.4384 13.8749C72.4384 13.3818 72.5179 12.9325 72.677 12.5269C72.836 12.1213 73.0547 11.7714 73.3331 11.4772C73.6194 11.175 73.9573 10.9444 74.347 10.7853C74.7446 10.6183 75.1781 10.5348 75.6473 10.5348C76.0608 10.5348 76.4465 10.6143 76.8044 10.7734C77.1622 10.9324 77.4724 11.1511 77.7348 11.4295C77.9973 11.6999 78.1961 12.0259 78.3313 12.4076C78.4744 12.7814 78.542 13.191 78.5341 13.6363L78.5221 14.1493L73.4285 14.1493L73.1541 13.1472H77.2935L77.1026 13.35V13.0876C77.0787 12.8411 76.9992 12.6263 76.864 12.4434C76.7288 12.2526 76.5539 12.1054 76.3391 12.0021C76.1324 11.8907 75.9018 11.835 75.6473 11.835C75.2576 11.835 74.9276 11.9106 74.6572 12.0617C74.3947 12.2128 74.1959 12.4315 74.0607 12.7178C73.9255 12.9961 73.8579 13.346 73.8579 13.7675C73.8579 14.1731 73.9414 14.527 74.1084 14.8292C74.2834 15.1314 74.526 15.366 74.8361 15.533C75.1542 15.6921 75.524 15.7716 75.9455 15.7716C76.2397 15.7716 76.5101 15.7239 76.7567 15.6284C77.0032 15.533 77.2696 15.362 77.5559 15.1155L78.2836 16.1295C78.0688 16.3283 77.8223 16.4992 77.544 16.6424C77.2736 16.7776 76.9873 16.885 76.6851 16.9645C76.3829 17.044 76.0847 17.0838 75.7904 17.0838ZM82.3625 17.0838C81.8058 17.0838 81.3048 16.9446 80.8595 16.6663C80.4221 16.38 80.0721 15.9943 79.8097 15.5092C79.5552 15.0161 79.428 14.4515 79.428 13.8152C79.428 13.187 79.5552 12.6263 79.8097 12.1333C80.0642 11.6402 80.4101 11.2545 80.8475 10.9762C81.2929 10.6899 81.7939 10.5467 82.3506 10.5467C82.6528 10.5467 82.943 10.5944 83.2214 10.6899C83.5077 10.7853 83.7622 10.9165 83.9848 11.0835C84.2075 11.2426 84.3825 11.4215 84.5097 11.6203C84.6449 11.8191 84.7204 12.0259 84.7363 12.2406L84.3427 12.2883V8.13709H85.8099V16.9645H84.3904L84.3546 15.4853L84.6409 15.5092C84.633 15.708 84.5614 15.8988 84.4262 16.0817C84.299 16.2646 84.1319 16.4317 83.9252 16.5828C83.7184 16.7339 83.4759 16.8571 83.1975 16.9525C82.9271 17.04 82.6488 17.0838 82.3625 17.0838ZM82.6488 15.8432C82.9907 15.8432 83.2929 15.7557 83.5554 15.5807C83.8178 15.4058 84.0206 15.1672 84.1638 14.865C84.3149 14.5628 84.3904 14.2129 84.3904 13.8152C84.3904 13.4256 84.3149 13.0796 84.1638 12.7774C84.0206 12.4673 83.8178 12.2287 83.5554 12.0617C83.2929 11.8867 82.9907 11.7993 82.6488 11.7993C82.3068 11.7993 82.0046 11.8867 81.7422 12.0617C81.4798 12.2287 81.273 12.4673 81.1219 12.7774C80.9787 13.0796 80.9072 13.4256 80.9072 13.8152C80.9072 14.2129 80.9787 14.5628 81.1219 14.865C81.273 15.1672 81.4798 15.4058 81.7422 15.5807C82.0046 15.7557 82.3068 15.8432 82.6488 15.8432Z" fill="white"/>
<rect x="1" y="1" width="101.396" height="23.9289" rx="3.57867" stroke="#4B4EFC" stroke-width="0.596445"/>
<path d="M46.9927 23.4555C46.8084 23.0478 46.7976 22.6354 46.9604 22.2185C47.1231 21.8016 47.375 21.593 47.7159 21.5928L56.5213 21.6083C56.8616 21.6089 57.1134 21.8184 57.2768 22.2367C57.4401 22.655 57.4294 23.0673 57.2445 23.4736L52.8417 33.4277C52.6716 33.7941 52.4305 33.977 52.1186 33.9765C51.8066 33.9759 51.5656 33.7922 51.3954 33.4252L46.9927 23.4555Z" fill="#6166F1"/>
</svg>
