<svg width="226" height="103" viewBox="0 0 226 103" fill="none" xmlns="http://www.w3.org/2000/svg">
<path d="M28.1191 68.8615V36.0566H41.1263V55.1657L28.1191 68.8615Z" fill="#9192FF"/>
<path d="M55.1844 73.8349V36.0566H41.3164V55.1753L55.1844 73.8349Z" fill="#ADAEFF"/>
<path d="M51.7505 28.4053H31.5894C29.6765 28.4053 28.1367 29.9547 28.1367 31.8579V35.894H55.2127V31.8579C55.2127 29.9547 53.6633 28.4053 51.7505 28.4053ZM32.5171 33.7038C31.8189 33.7038 31.2546 33.1395 31.2546 32.4413C31.2546 31.7431 31.8189 31.1789 32.5171 31.1789C33.2153 31.1789 33.7795 31.7431 33.7795 32.4413C33.7795 33.1395 33.2153 33.7038 32.5171 33.7038ZM37.4713 33.7038C36.7731 33.7038 36.2088 33.1395 36.2088 32.4413C36.2088 31.7431 36.7731 31.1789 37.4713 31.1789C38.1695 31.1789 38.7338 31.7431 38.7338 32.4413C38.7338 33.1395 38.1695 33.7038 37.4713 33.7038ZM42.4255 33.7038C41.7273 33.7038 41.163 33.1395 41.163 32.4413C41.163 31.7431 41.7273 31.1789 42.4255 31.1789C43.1237 31.1789 43.688 31.7431 43.688 32.4413C43.688 33.1395 43.1237 33.7038 42.4255 33.7038Z" fill="#6166F1"/>
<path d="M109.471 46.8259L103.953 53.8173V41.0205H100.232V61.306H103.953V59.4506L106.535 56.0362L109.471 61.306H113.727L108.917 52.8609L113.727 46.8259H109.471Z" fill="#232438"/>
<path d="M95.6887 48.4231C95.1053 47.8301 94.4167 47.3615 93.6324 47.0267C92.8482 46.6824 92.0161 46.5103 91.1266 46.5103C90.3041 46.5103 89.5103 46.6633 88.7547 46.9598C88.0087 47.2467 87.3297 47.6675 86.7367 48.2031L85.5125 46.7972H84.623V61.3059H88.3244V53.0139C88.3244 52.6313 88.4009 52.2774 88.5443 51.9427C88.6878 51.5984 88.8886 51.3019 89.1373 51.0436C89.386 50.795 89.692 50.5941 90.0268 50.4507C90.3711 50.3072 90.7345 50.2307 91.1266 50.2307C91.5092 50.2307 91.8631 50.3072 92.1978 50.4507C92.5326 50.5941 92.8291 50.795 93.0777 51.0436C93.336 51.2923 93.5272 51.5984 93.6707 51.9427C93.8142 52.2774 93.8907 52.6313 93.8907 53.0139V61.3059H97.592V53.0139C97.592 52.1244 97.4198 51.2828 97.0755 50.4889C96.7408 49.6951 96.2817 49.0065 95.6887 48.4231Z" fill="#232438"/>
<path d="M81.7925 46.7974H78.0625V61.3061H81.7925V46.7974Z" fill="#232438"/>
<path d="M66.709 41.8716H62.8164V61.3059H76.4261V57.4133H66.709V41.8716Z" fill="#232438"/>
<path d="M118.738 51.168C119.073 50.7854 119.465 50.4985 119.905 50.2881C120.355 50.0777 120.833 49.9725 121.34 49.9725C121.703 49.9725 122.057 50.0299 122.401 50.1351C122.746 50.2403 123.061 50.4029 123.348 50.6133C123.645 50.8237 123.912 51.0819 124.152 51.388C124.391 51.6845 124.572 52.0288 124.706 52.4018L127.413 49.676C127.088 49.1213 126.696 48.6335 126.246 48.2127C125.806 47.7919 125.318 47.4284 124.783 47.1415C124.257 46.845 123.702 46.6155 123.119 46.4624C122.545 46.3094 121.952 46.2329 121.34 46.2329C120.316 46.2329 119.36 46.4433 118.451 46.8546C117.552 47.2658 116.768 47.8397 116.089 48.5666C115.42 49.2839 114.894 50.1159 114.501 51.0915C114.109 52.0575 113.918 53.0999 113.918 54.2094C113.918 55.2327 114.109 56.1892 114.501 57.0786C114.894 57.9776 115.42 58.7523 116.089 59.4218C116.768 60.0913 117.552 60.6173 118.451 61.0095C119.35 61.392 120.316 61.5737 121.34 61.5737C121.942 61.5737 122.535 61.4972 123.1 61.3538C123.683 61.2199 124.228 61.019 124.735 60.7417C125.261 60.4739 125.739 60.1391 126.189 59.7566C126.638 59.3644 127.04 58.9341 127.384 58.4463L124.678 55.7205C124.534 56.0457 124.343 56.3422 124.113 56.61C123.884 56.8682 123.626 57.0977 123.329 57.289C123.042 57.4707 122.727 57.6142 122.392 57.7098C122.057 57.8055 121.713 57.8629 121.349 57.8629C120.842 57.8629 120.364 57.7672 119.915 57.5759C119.475 57.3847 119.083 57.1264 118.748 56.7917C118.423 56.4569 118.164 56.0744 117.973 55.6249C117.782 55.1849 117.686 54.7067 117.686 54.1998C117.686 53.5782 117.782 53.0043 117.973 52.4878C118.155 51.9809 118.413 51.541 118.738 51.168Z" fill="#232438"/>
<path d="M145.078 61.306H145.088V61.7651V65.1316L146.57 63.1614L148.808 65.6194V61.306V58.322V41.0205H145.078V61.306Z" fill="#232438"/>
<path d="M176.678 51.168C177.012 50.7854 177.405 50.4985 177.845 50.2881C178.294 50.0777 178.772 49.9725 179.279 49.9725C179.643 49.9725 179.996 50.0299 180.341 50.1351C180.685 50.2403 181.001 50.4029 181.288 50.6133C181.584 50.8237 181.852 51.0819 182.091 51.388C182.33 51.6845 182.512 52.0288 182.646 52.4018L185.352 49.676C185.027 49.1213 184.635 48.6335 184.186 48.2127C183.746 47.7919 183.258 47.4284 182.722 47.1415C182.196 46.845 181.642 46.6155 181.058 46.4624C180.475 46.3094 179.891 46.2329 179.279 46.2329C178.256 46.2329 177.299 46.4433 176.391 46.8546C175.492 47.2658 174.708 47.8397 174.028 48.5666C173.359 49.2839 172.833 50.1159 172.441 51.0915C172.049 52.0575 171.857 53.0999 171.857 54.2094C171.857 55.2327 172.049 56.1892 172.441 57.0786C172.833 57.9776 173.359 58.7523 174.028 59.4218C174.708 60.0913 175.492 60.6173 176.391 61.0095C177.29 61.392 178.256 61.5737 179.279 61.5737C179.882 61.5737 180.475 61.4972 181.039 61.3538C181.622 61.2199 182.168 61.019 182.684 60.7417C183.21 60.4739 183.688 60.1391 184.128 59.7566C184.578 59.3644 184.979 58.9341 185.324 58.4463L182.617 55.7205C182.474 56.0457 182.282 56.3422 182.043 56.61C181.814 56.8682 181.555 57.0977 181.259 57.289C180.972 57.4707 180.656 57.6142 180.322 57.7098C179.987 57.8055 179.643 57.8629 179.279 57.8629C178.772 57.8629 178.294 57.7672 177.845 57.5759C177.405 57.3847 177.012 57.1264 176.678 56.7917C176.353 56.4569 176.094 56.0744 175.903 55.6249C175.712 55.1754 175.616 54.7067 175.616 54.1998C175.616 53.5782 175.712 53.0043 175.903 52.4878C176.094 51.9809 176.353 51.541 176.678 51.168Z" fill="#232438"/>
<path d="M197.251 50.5083V46.8261H191.636V41.0303H187.954V46.8261H186.156V50.5083H187.954V54.8217C187.954 55.7112 188.117 56.5528 188.452 57.3371C188.796 58.1213 189.265 58.81 189.848 59.4125C190.441 59.9959 191.139 60.4646 191.923 60.8089C192.708 61.1436 193.549 61.3062 194.448 61.3062H197.251V57.624H194.439C194.047 57.624 193.683 57.5475 193.339 57.404C192.995 57.251 192.698 57.0502 192.44 56.7919C192.191 56.5433 191.99 56.2468 191.847 55.912C191.703 55.5677 191.627 55.2043 191.627 54.8122V50.4987H197.251V50.5083Z" fill="#232438"/>
<path d="M169.715 48.0788C169.266 47.6771 168.778 47.3519 168.252 47.0746C167.736 46.8068 167.191 46.5963 166.617 46.4529C166.033 46.3094 165.45 46.2329 164.838 46.2329C163.814 46.2329 162.858 46.4146 161.949 46.7876C161.05 47.1606 160.266 47.6771 159.587 48.3466C158.918 49.0161 158.392 49.8195 157.999 50.7759C157.607 51.7227 157.416 52.7748 157.416 53.9225C157.416 55.0415 157.607 56.0744 157.999 57.0117C158.392 57.9394 158.918 58.7428 159.587 59.4218C160.266 60.1009 161.05 60.6269 161.949 61.0095C162.848 61.392 163.814 61.5737 164.838 61.5737C165.44 61.5737 166.033 61.4972 166.598 61.3538C167.171 61.2199 167.726 61.019 168.243 60.7417C168.769 60.4739 169.247 60.1391 169.687 59.7566C170.136 59.3644 170.538 58.9341 170.882 58.4463L168.176 55.7205C168.032 56.0457 167.841 56.3422 167.611 56.61C167.382 56.8682 167.124 57.0977 166.827 57.289C166.54 57.4707 166.225 57.6142 165.89 57.7098C165.555 57.8055 165.211 57.8629 164.847 57.8629C164.704 57.8629 164.56 57.8533 164.417 57.8437C164.273 57.8246 164.13 57.7959 163.987 57.7481L170.921 49.3891C170.567 48.9109 170.165 48.4709 169.715 48.0788ZM161.557 55.8448C161.481 55.7205 161.423 55.5771 161.385 55.4145C161.347 55.2519 161.299 55.0893 161.261 54.9171C161.232 54.7354 161.213 54.5633 161.194 54.3911C161.184 54.2189 161.184 54.0659 161.184 53.932C161.184 53.3295 161.28 52.7843 161.471 52.3061C161.662 51.8184 161.921 51.4071 162.246 51.0628C162.581 50.7185 162.963 50.4602 163.413 50.2785C163.862 50.0872 164.34 49.9916 164.847 49.9916C165.029 49.9916 165.201 50.0012 165.364 50.0203C165.536 50.0394 165.708 50.0777 165.88 50.1446L161.557 55.8448Z" fill="#232438"/>
<path d="M140.87 48.3563C140.2 47.6773 139.416 47.1608 138.507 46.7974C137.618 46.4244 136.652 46.2427 135.619 46.2427C134.596 46.2427 133.639 46.434 132.731 46.8261C131.841 47.2182 131.047 47.7538 130.368 48.4424C129.699 49.1215 129.173 49.9249 128.781 50.8717C128.389 51.809 128.197 52.8324 128.197 53.9322C128.197 55.013 128.389 56.0268 128.781 56.964C129.173 57.8918 129.699 58.7047 130.368 59.3933C131.047 60.0724 131.832 60.608 132.731 61.0097C133.63 61.4018 134.596 61.5931 135.619 61.5931C136.652 61.5931 137.608 61.4018 138.507 61.0097C139.416 60.608 140.2 60.0724 140.87 59.3933C141.539 58.7047 142.065 57.9013 142.457 56.964C142.849 56.0268 143.041 55.013 143.041 53.9322C143.041 52.775 142.849 51.7325 142.457 50.7856C142.065 49.8292 141.53 49.0258 140.87 48.3563ZM139.005 55.539C138.813 56.0268 138.555 56.438 138.22 56.7823C137.886 57.1266 137.494 57.3944 137.044 57.5857C136.604 57.777 136.126 57.8726 135.619 57.8726C135.112 57.8726 134.634 57.777 134.184 57.5762C133.744 57.3657 133.352 57.0884 133.018 56.7345C132.692 56.3806 132.434 55.9694 132.243 55.4912C132.052 55.013 131.956 54.4965 131.956 53.9322C131.956 53.3393 132.052 52.7941 132.243 52.3159C132.434 51.8281 132.692 51.4169 133.018 51.0726C133.352 50.7187 133.744 50.4509 134.184 50.2692C134.634 50.0779 135.112 49.9822 135.619 49.9822C136.126 49.9822 136.595 50.0779 137.044 50.2692C137.494 50.4509 137.886 50.7187 138.22 51.0726C138.555 51.4169 138.813 51.8281 139.005 52.3159C139.206 52.7941 139.301 53.3297 139.301 53.9322C139.311 54.5061 139.206 55.0417 139.005 55.539Z" fill="#232438"/>
<path d="M151.639 58.322V61.306V61.7651V65.1316L153.131 63.1614L155.359 65.6194V61.306V58.322V41.0205H151.639V58.322Z" fill="#232438"/>
<path d="M79.9279 44.6453C81.4597 44.6453 82.7015 43.4035 82.7015 41.8717C82.7015 40.3399 81.4597 39.0981 79.9279 39.0981C78.3961 39.0981 77.1543 40.3399 77.1543 41.8717C77.1543 43.4035 78.3961 44.6453 79.9279 44.6453Z" fill="#6166F1"/>
</svg>
