<svg width="170" height="46" viewBox="0 0 170 46" fill="none" xmlns="http://www.w3.org/2000/svg">
<path d="M0.362061 40.8417V7.96537H13.3976V27.1161L0.362061 40.8417Z" fill="#9192FF"/>
<path d="M27.4875 45.8259V7.96537H13.5893V27.1257L27.4875 45.8259Z" fill="#ADAEFF"/>
<path d="M24.0464 0.297424H3.84139C1.9244 0.297424 0.381226 1.85018 0.381226 3.75758V7.80243H27.5162V3.75758C27.5162 1.85018 25.9634 0.297424 24.0464 0.297424ZM4.77112 5.60748C4.07142 5.60748 3.50591 5.04197 3.50591 4.34227C3.50591 3.64257 4.07142 3.07706 4.77112 3.07706C5.47083 3.07706 6.03634 3.64257 6.03634 4.34227C6.03634 5.04197 5.47083 5.60748 4.77112 5.60748ZM9.73612 5.60748C9.03642 5.60748 8.47091 5.04197 8.47091 4.34227C8.47091 3.64257 9.03642 3.07706 9.73612 3.07706C10.4358 3.07706 11.0013 3.64257 11.0013 4.34227C11.0013 5.04197 10.4358 5.60748 9.73612 5.60748ZM14.7011 5.60748C14.0014 5.60748 13.4359 5.04197 13.4359 4.34227C13.4359 3.64257 14.0014 3.07706 14.7011 3.07706C15.4008 3.07706 15.9663 3.64257 15.9663 4.34227C15.9663 5.04197 15.4008 5.60748 14.7011 5.60748Z" fill="#6166F1"/>
<path d="M81.8915 18.758L76.361 25.7646V12.9399H72.6324V33.2696H76.361V31.4101L78.9489 27.9883L81.8915 33.2696H86.1568L81.3356 24.8061L86.1568 18.758H81.8915Z" fill="#232438"/>
<path d="M68.0796 20.3587C67.4949 19.7644 66.8048 19.2948 66.0188 18.9593C65.2328 18.6142 64.399 18.4417 63.5076 18.4417C62.6833 18.4417 61.8877 18.5951 61.1305 18.8922C60.3829 19.1797 59.7023 19.6015 59.1081 20.1382L57.8812 18.7292H56.9898V33.2696H60.6992V24.9595C60.6992 24.5761 60.7759 24.2214 60.9196 23.8859C61.0634 23.5409 61.2647 23.2438 61.5139 22.985C61.7631 22.7357 62.0698 22.5345 62.4053 22.3907C62.7504 22.2469 63.1146 22.1702 63.5076 22.1702C63.891 22.1702 64.2456 22.2469 64.5811 22.3907C64.9165 22.5345 65.2137 22.7357 65.4629 22.985C65.7217 23.2342 65.9134 23.5409 66.0572 23.8859C66.2009 24.2214 66.2776 24.5761 66.2776 24.9595V33.2696H69.987V24.9595C69.987 24.0681 69.8144 23.2246 69.4694 22.429C69.1339 21.6335 68.6738 20.9434 68.0796 20.3587Z" fill="#232438"/>
<path d="M54.1526 18.7292H50.4145V33.2696H54.1526V18.7292Z" fill="#232438"/>
<path d="M39.0372 13.793H35.1362V33.2696H48.7755V29.3685H39.0372V13.793Z" fill="#232438"/>
<path d="M91.1793 23.1096C91.5148 22.7262 91.9078 22.4386 92.3487 22.2277C92.7992 22.0169 93.2784 21.9114 93.7864 21.9114C94.1506 21.9114 94.5053 21.969 94.8504 22.0744C95.1954 22.1798 95.5117 22.3428 95.7993 22.5536C96.0964 22.7645 96.3648 23.0233 96.6044 23.33C96.844 23.6271 97.0261 23.9722 97.1603 24.346L99.8729 21.6143C99.547 21.0584 99.154 20.5695 98.7035 20.1478C98.2626 19.7261 97.7738 19.3619 97.237 19.0743C96.7098 18.7772 96.1539 18.5471 95.5692 18.3938C94.9941 18.2404 94.3999 18.1637 93.7864 18.1637C92.7608 18.1637 91.8023 18.3746 90.8918 18.7868C89.9908 19.1989 89.2048 19.774 88.5243 20.5025C87.8534 21.2213 87.3262 22.0552 86.9332 23.0329C86.5402 24.001 86.3485 25.0457 86.3485 26.1576C86.3485 27.1832 86.5402 28.1416 86.9332 29.033C87.3262 29.934 87.8534 30.7104 88.5243 31.3814C89.2048 32.0523 89.9908 32.5795 90.8918 32.9725C91.7928 33.3559 92.7608 33.538 93.7864 33.538C94.3903 33.538 94.9845 33.4613 95.55 33.3175C96.1347 33.1833 96.6811 32.982 97.1891 32.7041C97.7162 32.4357 98.1955 32.1002 98.646 31.7168C99.0965 31.3239 99.499 30.8925 99.8441 30.4037L97.1316 27.672C96.9878 27.9979 96.7961 28.295 96.566 28.5634C96.336 28.8222 96.0772 29.0522 95.7801 29.2439C95.4925 29.426 95.1762 29.5698 94.8408 29.6657C94.5053 29.7615 94.1602 29.819 93.796 29.819C93.288 29.819 92.8088 29.7232 92.3583 29.5315C91.9174 29.3398 91.5244 29.081 91.1889 28.7455C90.863 28.41 90.6042 28.0266 90.4125 27.5761C90.2208 27.1352 90.125 26.656 90.125 26.148C90.125 25.525 90.2208 24.9499 90.4125 24.4323C90.5946 23.9243 90.8534 23.4834 91.1793 23.1096Z" fill="#232438"/>
<path d="M117.576 33.2696H117.586V33.7297V37.1036L119.071 35.1291L121.314 37.5924V33.2696V30.2791V12.9399H117.576V33.2696Z" fill="#232438"/>
<path d="M149.245 23.1096C149.58 22.7262 149.973 22.4386 150.414 22.2277C150.865 22.0169 151.344 21.9114 151.852 21.9114C152.216 21.9114 152.571 21.969 152.916 22.0744C153.261 22.1798 153.577 22.3428 153.865 22.5536C154.162 22.7645 154.43 23.0233 154.67 23.33C154.909 23.6271 155.092 23.9722 155.226 24.346L157.938 21.6143C157.612 21.0584 157.219 20.5695 156.769 20.1478C156.328 19.7261 155.839 19.3619 155.302 19.0743C154.775 18.7772 154.219 18.5471 153.635 18.3938C153.05 18.2404 152.465 18.1637 151.852 18.1637C150.826 18.1637 149.868 18.3746 148.957 18.7868C148.056 19.1989 147.27 19.774 146.59 20.5025C145.919 21.2213 145.392 22.0552 144.999 23.0329C144.606 24.001 144.414 25.0457 144.414 26.1576C144.414 27.1832 144.606 28.1416 144.999 29.033C145.392 29.934 145.919 30.7104 146.59 31.3814C147.27 32.0523 148.056 32.5795 148.957 32.9725C149.858 33.3559 150.826 33.538 151.852 33.538C152.456 33.538 153.05 33.4613 153.616 33.3175C154.2 33.1833 154.747 32.982 155.264 32.7041C155.791 32.4357 156.271 32.1002 156.711 31.7168C157.162 31.3239 157.565 30.8925 157.91 30.4037L155.197 27.672C155.053 27.9979 154.862 28.295 154.622 28.5634C154.392 28.8222 154.133 29.0522 153.836 29.2439C153.548 29.426 153.232 29.5698 152.897 29.6657C152.561 29.7615 152.216 29.819 151.852 29.819C151.344 29.819 150.865 29.7232 150.414 29.5315C149.973 29.3398 149.58 29.081 149.245 28.7455C148.919 28.41 148.66 28.0266 148.468 27.5761C148.277 27.1256 148.181 26.656 148.181 26.148C148.181 25.525 148.277 24.9499 148.468 24.4323C148.66 23.9243 148.919 23.4834 149.245 23.1096Z" fill="#232438"/>
<path d="M169.862 22.4482V18.758H164.236V12.9495H160.546V18.758H158.744V22.4482H160.546V26.771C160.546 27.6624 160.708 28.5059 161.044 29.2918C161.389 30.0778 161.859 30.7679 162.443 31.3718C163.038 31.9565 163.737 32.4261 164.523 32.7712C165.309 33.1067 166.153 33.2696 167.054 33.2696H169.862V29.5794H167.044C166.651 29.5794 166.287 29.5027 165.942 29.3589C165.597 29.2056 165.3 29.0043 165.041 28.7455C164.792 28.4963 164.59 28.1992 164.447 27.8637C164.303 27.5186 164.226 27.1544 164.226 26.7614V22.4386H169.862V22.4482Z" fill="#232438"/>
<path d="M142.267 20.0136C141.817 19.6111 141.328 19.2852 140.801 19.0072C140.283 18.7388 139.737 18.528 139.161 18.3842C138.577 18.2404 137.992 18.1637 137.379 18.1637C136.353 18.1637 135.395 18.3458 134.484 18.7197C133.583 19.0935 132.797 19.6111 132.117 20.282C131.446 20.9529 130.918 21.7581 130.525 22.7166C130.132 23.6655 129.941 24.7198 129.941 25.87C129.941 26.9915 130.132 28.0266 130.525 28.966C130.918 29.8957 131.446 30.7008 132.117 31.3814C132.797 32.0619 133.583 32.5891 134.484 32.9725C135.385 33.3559 136.353 33.538 137.379 33.538C137.983 33.538 138.577 33.4613 139.142 33.3175C139.717 33.1833 140.273 32.982 140.791 32.7041C141.318 32.4357 141.797 32.1002 142.238 31.7168C142.689 31.3239 143.091 30.8925 143.436 30.4037L140.724 27.672C140.58 27.9979 140.388 28.295 140.158 28.5634C139.928 28.8222 139.67 29.0522 139.372 29.2439C139.085 29.426 138.769 29.5698 138.433 29.6657C138.098 29.7615 137.753 29.819 137.388 29.819C137.245 29.819 137.101 29.8094 136.957 29.7998C136.813 29.7807 136.669 29.7519 136.526 29.704L143.475 21.3268C143.12 20.8475 142.718 20.4066 142.267 20.0136ZM134.091 27.7966C134.014 27.672 133.957 27.5282 133.919 27.3653C133.88 27.2023 133.832 27.0394 133.794 26.8669C133.765 26.6847 133.746 26.5122 133.727 26.3397C133.717 26.1672 133.717 26.0138 133.717 25.8796C133.717 25.2758 133.813 24.7294 134.005 24.2502C134.197 23.7613 134.455 23.3492 134.781 23.0041C135.117 22.6591 135.5 22.4003 135.951 22.2182C136.401 22.0265 136.88 21.9306 137.388 21.9306C137.57 21.9306 137.743 21.9402 137.906 21.9594C138.078 21.9785 138.251 22.0169 138.423 22.084L134.091 27.7966Z" fill="#232438"/>
<path d="M113.359 20.2916C112.688 19.6111 111.902 19.0935 110.991 18.7292C110.1 18.3554 109.132 18.1733 108.097 18.1733C107.071 18.1733 106.113 18.365 105.202 18.758C104.311 19.151 103.515 19.6877 102.835 20.3779C102.164 21.0584 101.636 21.8635 101.243 22.8124C100.85 23.7518 100.659 24.7773 100.659 25.8796C100.659 26.9627 100.85 27.9787 101.243 28.918C101.636 29.8478 102.164 30.6625 102.835 31.3526C103.515 32.0331 104.301 32.5699 105.202 32.9725C106.103 33.3654 107.071 33.5571 108.097 33.5571C109.132 33.5571 110.09 33.3654 110.991 32.9725C111.902 32.5699 112.688 32.0331 113.359 31.3526C114.03 30.6625 114.557 29.8574 114.95 28.918C115.343 27.9787 115.535 26.9627 115.535 25.8796C115.535 24.7198 115.343 23.6751 114.95 22.7262C114.557 21.7677 114.02 20.9625 113.359 20.2916ZM111.49 27.4899C111.298 27.9787 111.039 28.3909 110.704 28.7359C110.368 29.081 109.975 29.3494 109.525 29.541C109.084 29.7327 108.605 29.8286 108.097 29.8286C107.589 29.8286 107.109 29.7327 106.659 29.5315C106.218 29.3206 105.825 29.0426 105.49 28.688C105.164 28.3334 104.905 27.9212 104.713 27.442C104.521 26.9627 104.426 26.4451 104.426 25.8796C104.426 25.2853 104.521 24.739 104.713 24.2598C104.905 23.7709 105.164 23.3588 105.49 23.0137C105.825 22.6591 106.218 22.3907 106.659 22.2086C107.109 22.0169 107.589 21.921 108.097 21.921C108.605 21.921 109.074 22.0169 109.525 22.2086C109.975 22.3907 110.368 22.6591 110.704 23.0137C111.039 23.3588 111.298 23.7709 111.49 24.2598C111.691 24.739 111.787 25.2758 111.787 25.8796C111.796 26.4547 111.691 26.9915 111.49 27.4899Z" fill="#232438"/>
<path d="M124.151 30.2791V33.2696V33.7297V37.1036L125.647 35.1291L127.88 37.5924V33.2696V30.2791V12.9399H124.151V30.2791Z" fill="#232438"/>
<path d="M52.2837 16.5726C53.8188 16.5726 55.0633 15.3282 55.0633 13.793C55.0633 12.2579 53.8188 11.0134 52.2837 11.0134C50.7485 11.0134 49.504 12.2579 49.504 13.793C49.504 15.3282 50.7485 16.5726 52.2837 16.5726Z" fill="#6166F1"/>
</svg>
