<svg width="241" height="109" viewBox="0 0 241 109" fill="none" xmlns="http://www.w3.org/2000/svg">
<path d="M30 73V39H44V58.8052L30 73Z" fill="white"/>
<path d="M59 78V39H45V58.737L59 78Z" fill="white"/>
<path d="M55.2918 30H33.698C31.6492 30 30 31.6552 30 33.6884V38H59V33.6884C59 31.6552 57.3405 30 55.2918 30ZM34.6916 35.6603C33.9438 35.6603 33.3395 35.0575 33.3395 34.3116C33.3395 33.5658 33.9438 32.963 34.6916 32.963C35.4394 32.963 36.0438 33.5658 36.0438 34.3116C36.0438 35.0575 35.4394 35.6603 34.6916 35.6603ZM39.9979 35.6603C39.2501 35.6603 38.6457 35.0575 38.6457 34.3116C38.6457 33.5658 39.2501 32.963 39.9979 32.963C40.7457 32.963 41.3501 33.5658 41.3501 34.3116C41.3501 35.0575 40.7457 35.6603 39.9979 35.6603ZM45.3041 35.6603C44.5563 35.6603 43.952 35.0575 43.952 34.3116C43.952 33.5658 44.5563 32.963 45.3041 32.963C46.0519 32.963 46.6563 33.5658 46.6563 34.3116C46.6563 35.0575 46.0519 35.6603 45.3041 35.6603Z" fill="white"/>
<path d="M116.585 50.2961L110.86 57.8784V44H107V66H110.86V63.9877L113.539 60.2848L116.585 66H121L116.009 56.8411L121 50.2961H116.585Z" fill="white"/>
<path d="M101.945 52.0685C101.316 51.4273 100.572 50.9205 99.7257 50.5585C98.8791 50.1862 97.9808 50 97.0206 50C96.1327 50 95.2758 50.1655 94.4602 50.4861C93.6549 50.7964 92.9218 51.2515 92.2817 51.8306L90.9602 50.3103H90V66H93.9956V57.033C93.9956 56.6193 94.0782 56.2366 94.233 55.8746C94.3879 55.5023 94.6047 55.1816 94.8732 54.9024C95.1416 54.6335 95.472 54.4163 95.8333 54.2612C96.205 54.106 96.5973 54.0233 97.0206 54.0233C97.4336 54.0233 97.8156 54.106 98.177 54.2612C98.5383 54.4163 98.8584 54.6335 99.1268 54.9024C99.4056 55.1713 99.6121 55.5023 99.767 55.8746C99.9218 56.2366 100.004 56.6193 100.004 57.033V66H104V57.033C104 56.0711 103.814 55.161 103.442 54.3025C103.081 53.4441 102.586 52.6994 101.945 52.0685Z" fill="white"/>
<path d="M87 50H83V65H87V50Z" fill="white"/>
<path d="M71.2902 45H67V66H82V61.7938H71.2902V45Z" fill="white"/>
<path d="M126.001 54.1471C126.348 53.7481 126.755 53.4489 127.211 53.2294C127.678 53.01 128.174 52.9003 128.7 52.9003C129.077 52.9003 129.444 52.9601 129.801 53.0698C130.158 53.1796 130.485 53.3491 130.783 53.5686C131.091 53.788 131.369 54.0574 131.617 54.3766C131.865 54.6858 132.053 55.0449 132.192 55.4339L135 52.591C134.663 52.0125 134.256 51.5037 133.79 51.0648C133.333 50.6259 132.827 50.2469 132.271 49.9476C131.726 49.6384 131.15 49.399 130.545 49.2394C129.95 49.0798 129.335 49 128.7 49C127.638 49 126.646 49.2195 125.703 49.6484C124.77 50.0773 123.957 50.6758 123.252 51.4339C122.558 52.182 122.012 53.0499 121.605 54.0673C121.198 55.0748 121 56.1621 121 57.3192C121 58.3865 121.198 59.384 121.605 60.3117C122.012 61.2494 122.558 62.0574 123.252 62.7556C123.957 63.4539 124.77 64.0025 125.703 64.4115C126.636 64.8105 127.638 65 128.7 65C129.325 65 129.94 64.9202 130.525 64.7706C131.13 64.6309 131.696 64.4214 132.222 64.1322C132.768 63.8529 133.264 63.5037 133.73 63.1047C134.196 62.6958 134.613 62.2469 134.97 61.7382L132.162 58.8953C132.013 59.2344 131.815 59.5436 131.577 59.8229C131.339 60.0923 131.071 60.3317 130.763 60.5312C130.466 60.7207 130.138 60.8703 129.791 60.9701C129.444 61.0698 129.086 61.1297 128.709 61.1297C128.184 61.1297 127.687 61.0299 127.221 60.8304C126.765 60.6309 126.358 60.3616 126.011 60.0125C125.673 59.6633 125.405 59.2643 125.207 58.7955C125.009 58.3367 124.909 57.8379 124.909 57.3092C124.909 56.6609 125.009 56.0623 125.207 55.5237C125.395 54.995 125.663 54.5362 126.001 54.1471Z" fill="white"/>
<path d="M155 65.4409H155.01V65.9261V69.4844L156.6 67.402L159 70V65.4409V62.2869V44H155V65.4409Z" fill="white"/>
<path d="M188.001 54.1471C188.348 53.7481 188.755 53.4489 189.211 53.2294C189.678 53.01 190.174 52.9003 190.7 52.9003C191.077 52.9003 191.444 52.9601 191.801 53.0698C192.158 53.1796 192.485 53.3491 192.783 53.5686C193.091 53.788 193.369 54.0574 193.617 54.3766C193.865 54.6858 194.053 55.0449 194.192 55.4339L197 52.591C196.663 52.0125 196.256 51.5037 195.79 51.0648C195.333 50.6259 194.827 50.2469 194.271 49.9476C193.726 49.6384 193.15 49.399 192.545 49.2394C191.94 49.0798 191.335 49 190.7 49C189.638 49 188.646 49.2195 187.703 49.6484C186.77 50.0773 185.957 50.6758 185.252 51.4339C184.558 52.182 184.012 53.0499 183.605 54.0673C183.198 55.0748 183 56.1621 183 57.3192C183 58.3865 183.198 59.384 183.605 60.3117C184.012 61.2494 184.558 62.0574 185.252 62.7556C185.957 63.4539 186.77 64.0025 187.703 64.4115C188.636 64.8105 189.638 65 190.7 65C191.325 65 191.94 64.9202 192.525 64.7706C193.13 64.6309 193.696 64.4214 194.232 64.1322C194.777 63.8529 195.274 63.5037 195.73 63.1047C196.196 62.6958 196.613 62.2469 196.97 61.7382L194.162 58.8953C194.013 59.2344 193.815 59.5436 193.567 59.8229C193.329 60.0923 193.061 60.3317 192.753 60.5312C192.456 60.7207 192.128 60.8703 191.781 60.9701C191.434 61.0698 191.077 61.1297 190.7 61.1297C190.174 61.1297 189.678 61.0299 189.211 60.8304C188.755 60.6309 188.348 60.3616 188.001 60.0125C187.663 59.6633 187.395 59.2643 187.197 58.7955C186.999 58.3267 186.899 57.8379 186.899 57.3092C186.899 56.6609 186.999 56.0623 187.197 55.5237C187.395 54.995 187.663 54.5362 188.001 54.1471Z" fill="white"/>
<path d="M211 54.284V50.2887H204.928V44H200.945V50.2887H199V54.284H200.945V58.9642C200.945 59.9292 201.121 60.8425 201.483 61.6934C201.855 62.5443 202.362 63.2915 202.993 63.9453C203.634 64.5783 204.39 65.0868 205.238 65.4604C206.086 65.8236 206.997 66 207.969 66H211V62.0047H207.959C207.534 62.0047 207.141 61.9217 206.769 61.766C206.397 61.6 206.076 61.3821 205.797 61.1019C205.528 60.8321 205.31 60.5104 205.155 60.1472C205 59.7736 204.917 59.3792 204.917 58.9538V54.2736H211V54.284Z" fill="white"/>
<path d="M180.751 50.9252C180.285 50.5062 179.779 50.1671 179.234 49.8778C178.698 49.5985 178.133 49.3791 177.538 49.2294C176.933 49.0798 176.329 49 175.694 49C174.633 49 173.642 49.1895 172.7 49.5786C171.768 49.9676 170.955 50.5062 170.251 51.2045C169.557 51.9027 169.011 52.7407 168.605 53.7382C168.198 54.7257 168 55.8229 168 57.0199C168 58.187 168.198 59.2643 168.605 60.2419C169.011 61.2095 169.557 62.0474 170.251 62.7556C170.955 63.4638 171.768 64.0125 172.7 64.4115C173.632 64.8105 174.633 65 175.694 65C176.319 65 176.933 64.9202 177.518 64.7706C178.113 64.6309 178.688 64.4214 179.224 64.1322C179.769 63.8529 180.265 63.5037 180.721 63.1047C181.187 62.6958 181.603 62.2469 181.96 61.7382L179.154 58.8953C179.006 59.2344 178.807 59.5436 178.569 59.8229C178.331 60.0923 178.064 60.3317 177.756 60.5312C177.459 60.7207 177.132 60.8703 176.785 60.9701C176.438 61.0698 176.081 61.1297 175.704 61.1297C175.555 61.1297 175.407 61.1197 175.258 61.1097C175.109 61.0898 174.96 61.0599 174.812 61.01L182 52.2918C181.633 51.793 181.217 51.3342 180.751 50.9252ZM172.293 59.0249C172.214 58.8953 172.154 58.7456 172.115 58.5761C172.075 58.4065 172.025 58.2369 171.986 58.0574C171.956 57.8678 171.936 57.6883 171.916 57.5087C171.907 57.3292 171.907 57.1696 171.907 57.0299C171.907 56.4015 172.006 55.8329 172.204 55.3342C172.402 54.8254 172.67 54.3965 173.007 54.0374C173.354 53.6783 173.751 53.409 174.217 53.2195C174.683 53.02 175.178 52.9202 175.704 52.9202C175.892 52.9202 176.071 52.9302 176.239 52.9501C176.418 52.9701 176.596 53.01 176.775 53.0798L172.293 59.0249Z" fill="white"/>
<path d="M150.66 51.2031C149.938 50.4953 149.093 49.957 148.113 49.5782C147.155 49.1894 146.113 49 145 49C143.897 49 142.866 49.1994 141.887 49.6081C140.928 50.0168 140.072 50.5751 139.34 51.2928C138.619 52.0006 138.052 52.838 137.629 53.8249C137.206 54.8019 137 55.8685 137 57.015C137 58.1414 137.206 59.1981 137.629 60.1751C138.052 61.1421 138.619 61.9894 139.34 62.7072C140.072 63.415 140.918 63.9732 141.887 64.3919C142.856 64.8006 143.897 65 145 65C146.113 65 147.144 64.8006 148.113 64.3919C149.093 63.9732 149.938 63.415 150.66 62.7072C151.381 61.9894 151.948 61.152 152.371 60.1751C152.794 59.1981 153 58.1414 153 57.015C153 55.8087 152.794 54.7221 152.371 53.7352C151.948 52.7383 151.371 51.9009 150.66 51.2031ZM148.649 58.6897C148.443 59.1981 148.165 59.6268 147.804 59.9857C147.443 60.3445 147.021 60.6237 146.536 60.8231C146.062 61.0224 145.546 61.1221 145 61.1221C144.454 61.1221 143.938 61.0224 143.454 60.8131C142.979 60.5938 142.557 60.3047 142.196 59.9358C141.845 59.567 141.567 59.1383 141.361 58.6399C141.155 58.1414 141.052 57.6031 141.052 57.015C141.052 56.3969 141.155 55.8287 141.361 55.3302C141.567 54.8218 141.845 54.3931 142.196 54.0343C142.557 53.6654 142.979 53.3863 143.454 53.1969C143.938 52.9975 144.454 52.8978 145 52.8978C145.546 52.8978 146.052 52.9975 146.536 53.1969C147.021 53.3863 147.443 53.6654 147.804 54.0343C148.165 54.3931 148.443 54.8218 148.649 55.3302C148.866 55.8287 148.969 56.3869 148.969 57.015C148.979 57.6131 148.866 58.1713 148.649 58.6897Z" fill="white"/>
<path d="M162 62.2869V65.4409V65.9261V69.4844L163.604 67.402L166 70V65.4409V62.2869V44H162V62.2869Z" fill="white"/>
<path d="M85 48C86.6568 48 88 46.6568 88 45C88 43.3432 86.6568 42 85 42C83.3432 42 82 43.3432 82 45C82 46.6568 83.3432 48 85 48Z" fill="white"/>
</svg>
