<svg width="7" height="29" viewBox="0 0 7 29" fill="none" xmlns="http://www.w3.org/2000/svg">
<path d="M3.68195 11.4319C1.99445 11.4319 0.61377 12.8126 0.61377 14.5001C0.61377 16.1876 1.99445 17.5683 3.68195 17.5683C5.36945 17.5683 6.75013 16.1876 6.75013 14.5001C6.75013 12.8126 5.36945 11.4319 3.68195 11.4319ZM3.68195 6.82963C5.36945 6.82963 6.75013 5.44895 6.75013 3.76145C6.75013 2.07395 5.36945 0.693268 3.68195 0.693268C1.99445 0.693268 0.61377 2.07395 0.61377 3.76145C0.61377 5.44895 1.99445 6.82963 3.68195 6.82963ZM3.68195 22.1705C1.99445 22.1705 0.61377 23.5512 0.61377 25.2387C0.61377 26.9262 1.99445 28.3069 3.68195 28.3069C5.36945 28.3069 6.75013 26.9262 6.75013 25.2387C6.75013 23.5512 5.36945 22.1705 3.68195 22.1705Z" fill="#6166F1"/>
</svg>
