<svg width="6" height="18" viewBox="0 0 6 18" fill="none" xmlns="http://www.w3.org/2000/svg">
<path d="M3 11.1875C2.56735 11.1875 2.14442 11.0592 1.78469 10.8188C1.42496 10.5785 1.14458 10.2368 0.979014 9.83712C0.813447 9.43741 0.770126 8.99757 0.854532 8.57324C0.938937 8.14891 1.14728 7.75913 1.4532 7.45321C1.75913 7.14728 2.14891 6.93894 2.57324 6.85453C2.99757 6.77013 3.43741 6.81345 3.83712 6.97901C4.23683 7.14458 4.57847 7.42496 4.81884 7.78469C5.05921 8.14442 5.1875 8.56735 5.1875 9C5.1875 9.58016 4.95703 10.1366 4.5468 10.5468C4.13656 10.957 3.58016 11.1875 3 11.1875ZM5.1875 2.75C5.1875 2.31735 5.05921 1.89442 4.81884 1.53469C4.57847 1.17496 4.23683 0.894581 3.83712 0.729014C3.43741 0.563448 2.99757 0.520128 2.57324 0.604533C2.14891 0.688938 1.75913 0.897277 1.4532 1.2032C1.14728 1.50913 0.938937 1.89891 0.854532 2.32324C0.770127 2.74757 0.813447 3.18741 0.979014 3.58712C1.14458 3.98683 1.42496 4.32848 1.78469 4.56884C2.14442 4.80921 2.56735 4.9375 3 4.9375C3.58016 4.9375 4.13656 4.70703 4.5468 4.2968C4.95703 3.88656 5.1875 3.33016 5.1875 2.75ZM5.1875 15.25C5.1875 14.8174 5.0592 14.3944 4.81884 14.0347C4.57847 13.675 4.23683 13.3946 3.83712 13.229C3.43741 13.0634 2.99757 13.0201 2.57324 13.1045C2.14891 13.1889 1.75913 13.3973 1.4532 13.7032C1.14728 14.0091 0.938937 14.3989 0.854531 14.8232C0.770126 15.2476 0.813447 15.6874 0.979013 16.0871C1.14458 16.4868 1.42496 16.8285 1.78469 17.0688C2.14442 17.3092 2.56735 17.4375 3 17.4375C3.28727 17.4375 3.57172 17.3809 3.83712 17.271C4.10252 17.1611 4.34367 16.9999 4.5468 16.7968C4.74992 16.5937 4.91105 16.3525 5.02099 16.0871C5.13092 15.8217 5.1875 15.5373 5.1875 15.25Z" fill="#1F2037"/>
</svg>
