<svg width="20" height="20" viewBox="0 0 20 20" fill="none" xmlns="http://www.w3.org/2000/svg">
<g id="Icon">
<path id="Vector" d="M7.89177 5.44166C8.00896 5.5587 8.16781 5.62444 8.33343 5.62444C8.49906 5.62444 8.65791 5.5587 8.7751 5.44166L9.3751 4.84166V9.37499H4.84177L5.44177 8.77499C5.50317 8.71778 5.55243 8.64878 5.58659 8.57211C5.62075 8.49544 5.63911 8.41268 5.64059 8.32876C5.64207 8.24484 5.62664 8.16149 5.5952 8.08366C5.56377 8.00584 5.51698 7.93514 5.45763 7.8758C5.39828 7.81645 5.32759 7.76966 5.24977 7.73822C5.17194 7.70679 5.08858 7.69135 5.00467 7.69283C4.92075 7.69431 4.83799 7.71268 4.76132 7.74684C4.68465 7.781 4.61565 7.83026 4.55843 7.89166L2.89177 9.55833C2.77473 9.67552 2.70898 9.83437 2.70898 9.99999C2.70898 10.1656 2.77473 10.3245 2.89177 10.4417L4.55843 12.1083C4.67691 12.2187 4.83362 12.2788 4.99554 12.276C5.15745 12.2731 5.31194 12.2075 5.42645 12.093C5.54096 11.9785 5.60656 11.824 5.60941 11.6621C5.61227 11.5002 5.55217 11.3435 5.44177 11.225L4.84177 10.625H9.3751V15.1583L8.7751 14.5583C8.71788 14.4969 8.64888 14.4477 8.57222 14.4135C8.49555 14.3793 8.41279 14.361 8.32887 14.3595C8.24495 14.358 8.16159 14.3735 8.08377 14.4049C8.00595 14.4363 7.93525 14.4831 7.8759 14.5425C7.81655 14.6018 7.76977 14.6725 7.73833 14.7503C7.7069 14.8282 7.69146 14.9115 7.69294 14.9954C7.69442 15.0793 7.71279 15.1621 7.74695 15.2388C7.78111 15.3154 7.83036 15.3844 7.89177 15.4417L9.55843 17.1083C9.67562 17.2254 9.83448 17.2911 10.0001 17.2911C10.1657 17.2911 10.3246 17.2254 10.4418 17.1083L12.1084 15.4417C12.1698 15.3844 12.2191 15.3154 12.2533 15.2388C12.2874 15.1621 12.3058 15.0793 12.3073 14.9954C12.3087 14.9115 12.2933 14.8282 12.2619 14.7503C12.2304 14.6725 12.1836 14.6018 12.1243 14.5425C12.0649 14.4831 11.9943 14.4363 11.9164 14.4049C11.8386 14.3735 11.7553 14.358 11.6713 14.3595C11.5874 14.361 11.5047 14.3793 11.428 14.4135C11.3513 14.4477 11.2823 14.4969 11.2251 14.5583L10.6251 15.1583V10.625H15.1584L14.5584 11.225C14.497 11.2822 14.4478 11.3512 14.4136 11.4279C14.3795 11.5045 14.3611 11.5873 14.3596 11.6712C14.3581 11.7551 14.3736 11.8385 14.405 11.9163C14.4364 11.9941 14.4832 12.0648 14.5426 12.1242C14.6019 12.1835 14.6726 12.2303 14.7504 12.2618C14.8283 12.2932 14.9116 12.3086 14.9955 12.3072C15.0795 12.3057 15.1622 12.2873 15.2389 12.2531C15.3155 12.219 15.3846 12.1697 15.4418 12.1083L17.1084 10.4417C17.2255 10.3245 17.2912 10.1656 17.2912 9.99999C17.2912 9.83437 17.2255 9.67552 17.1084 9.55833L15.4418 7.89166C15.3846 7.83026 15.3155 7.781 15.2389 7.74684C15.1622 7.71268 15.0795 7.69431 14.9955 7.69283C14.9116 7.69135 14.8283 7.70679 14.7504 7.73822C14.6726 7.76966 14.6019 7.81645 14.5426 7.8758C14.4832 7.93514 14.4364 8.00584 14.405 8.08366C14.3736 8.16149 14.3581 8.24484 14.3596 8.32876C14.3611 8.41268 14.3795 8.49544 14.4136 8.57211C14.4478 8.64878 14.497 8.71778 14.5584 8.77499L15.1584 9.37499H10.6251V4.84166L11.2251 5.44166C11.2823 5.50307 11.3513 5.55232 11.428 5.58648C11.5047 5.62064 11.5874 5.63901 11.6713 5.64049C11.7553 5.64197 11.8386 5.62653 11.9164 5.5951C11.9943 5.56366 12.0649 5.51688 12.1243 5.45753C12.1836 5.39818 12.2304 5.32748 12.2619 5.24966C12.2933 5.17184 12.3087 5.08848 12.3073 5.00456C12.3058 4.92064 12.2874 4.83788 12.2533 4.76121C12.2191 4.68455 12.1698 4.61555 12.1084 4.55833L10.4418 2.89166C10.3246 2.77462 10.1657 2.70888 10.0001 2.70888C9.83448 2.70888 9.67562 2.77462 9.55843 2.89166L7.89177 4.55833C7.77473 4.67552 7.70898 4.83437 7.70898 4.99999C7.70898 5.16562 7.77473 5.32447 7.89177 5.44166Z" fill="#1F2037"/>
</g>
</svg>
