<svg width="17" height="17" viewBox="0 0 17 17" fill="none" xmlns="http://www.w3.org/2000/svg">
<g id="Icon">
<path id="Vector" d="M8.19987 1.93164C4.51987 1.93164 1.5332 4.91831 1.5332 8.59831C1.5332 12.2783 4.51987 15.265 8.19987 15.265C11.8799 15.265 14.8665 12.2783 14.8665 8.59831C14.8665 4.91831 11.8799 1.93164 8.19987 1.93164ZM8.19987 13.9316C5.25987 13.9316 2.86654 11.5383 2.86654 8.59831C2.86654 5.65831 5.25987 3.26497 8.19987 3.26497C11.1399 3.26497 13.5332 5.65831 13.5332 8.59831C13.5332 11.5383 11.1399 13.9316 8.19987 13.9316ZM4.5332 12.265L9.53987 9.93831L11.8665 4.93164L6.85987 7.25831L4.5332 12.265ZM8.19987 7.86497C8.60654 7.86497 8.9332 8.19164 8.9332 8.59831C8.9332 9.00497 8.60654 9.33164 8.19987 9.33164C7.7932 9.33164 7.46654 9.00497 7.46654 8.59831C7.46654 8.19164 7.7932 7.86497 8.19987 7.86497Z" fill="#636363"/>
</g>
</svg>
