<svg width="18" height="18" viewBox="0 0 18 18" fill="none" xmlns="http://www.w3.org/2000/svg">
<path d="M8.99984 0.666016C4.39984 0.666016 0.666504 4.39935 0.666504 8.99935C0.666504 13.5993 4.39984 17.3327 8.99984 17.3327C13.5998 17.3327 17.3332 13.5993 17.3332 8.99935C17.3332 4.39935 13.5998 0.666016 8.99984 0.666016ZM8.99984 15.666C5.32484 15.666 2.33317 12.6743 2.33317 8.99935C2.33317 5.32435 5.32484 2.33268 8.99984 2.33268C12.6748 2.33268 15.6665 5.32435 15.6665 8.99935C15.6665 12.6743 12.6748 15.666 8.99984 15.666ZM4.4165 13.5827L10.6748 10.6743L13.5832 4.41602L7.32484 7.32435L4.4165 13.5827ZM8.99984 8.08268C9.50817 8.08268 9.9165 8.49102 9.9165 8.99935C9.9165 9.50768 9.50817 9.91602 8.99984 9.91602C8.4915 9.91602 8.08317 9.50768 8.08317 8.99935C8.08317 8.49102 8.4915 8.08268 8.99984 8.08268Z" fill="#6B6C80"/>
</svg>
