<svg width="12" height="12" viewBox="0 0 12 12" fill="none" xmlns="http://www.w3.org/2000/svg">
<path d="M10.6667 0H1.33333C0.598 0 0 0.598 0 1.33333V10.6667C0 11.402 0.598 12 1.33333 12H6.66667C6.75423 12.0001 6.84095 11.9829 6.92184 11.9494C7.00273 11.9159 7.0762 11.8667 7.138 11.8047L11.8047 7.138C11.8595 7.08117 11.9037 7.01502 11.9353 6.94267C11.9447 6.92267 11.95 6.902 11.9573 6.88067C11.9763 6.82488 11.9878 6.76681 11.9913 6.708C11.9927 6.694 12 6.68067 12 6.66667V1.33333C12 0.598 11.402 0 10.6667 0ZM1.33333 1.33333H10.6667V6H6.66667C6.48986 6 6.32029 6.07024 6.19526 6.19526C6.07024 6.32029 6 6.48986 6 6.66667V10.6667H1.33333V1.33333ZM7.33333 9.724V7.33333H9.724L7.33333 9.724Z" fill="#1F2037"/>
</svg>
