<svg width="24" height="24" viewBox="0 0 24 24" fill="none" xmlns="http://www.w3.org/2000/svg">
<path d="M23.5314 11.5434C23.4967 11.4675 22.6754 9.64406 20.8614 7.83C18.4342 5.40656 15.3751 4.125 12.0001 4.125C8.62513 4.125 5.56606 5.40656 3.14169 7.83C1.32762 9.64406 0.506374 11.4675 0.468874 11.5434C0.405361 11.6874 0.372559 11.8431 0.372559 12.0005C0.372559 12.1579 0.405361 12.3135 0.468874 12.4575C0.503561 12.5344 1.32481 14.3569 3.13981 16.1709C5.56606 18.5944 8.62513 19.875 12.0001 19.875C15.3751 19.875 18.4342 18.5944 20.8576 16.1709C22.6726 14.3569 23.4939 12.5344 23.5286 12.4575C23.5925 12.3137 23.6258 12.1581 23.6263 12.0008C23.6268 11.8434 23.5944 11.6876 23.5314 11.5434ZM19.2133 14.6372C17.2004 16.6191 14.7742 17.625 12.0001 17.625C9.22606 17.625 6.79981 16.6191 4.78981 14.6362C3.99889 13.8537 3.31854 12.9667 2.76762 12C3.3187 11.0337 3.99903 10.1471 4.78981 9.36469C6.80075 7.38094 9.22606 6.375 12.0001 6.375C14.7742 6.375 17.1995 7.38094 19.2104 9.36469C20.0013 10.147 20.6816 11.0336 21.2326 12C20.6816 12.9666 20.0013 13.8536 19.2104 14.6362L19.2133 14.6372ZM12.0001 7.875C11.1843 7.875 10.3868 8.11693 9.7084 8.57019C9.03005 9.02345 8.50133 9.66769 8.18912 10.4214C7.87691 11.1752 7.79522 12.0046 7.95439 12.8047C8.11355 13.6049 8.50642 14.3399 9.08331 14.9168C9.6602 15.4937 10.3952 15.8866 11.1954 16.0457C11.9956 16.2049 12.8249 16.1232 13.5787 15.811C14.3324 15.4988 14.9767 14.9701 15.4299 14.2917C15.8832 13.6134 16.1251 12.8158 16.1251 12C16.1239 10.9064 15.6889 9.85787 14.9156 9.08455C14.1423 8.31124 13.0938 7.87624 12.0001 7.875ZM12.0001 13.875C11.6293 13.875 11.2668 13.765 10.9584 13.559C10.6501 13.353 10.4098 13.0601 10.2679 12.7175C10.1259 12.3749 10.0888 11.9979 10.1612 11.6342C10.2335 11.2705 10.4121 10.9364 10.6743 10.6742C10.9365 10.412 11.2706 10.2334 11.6343 10.161C11.998 10.0887 12.375 10.1258 12.7177 10.2677C13.0603 10.4096 13.3531 10.65 13.5591 10.9583C13.7652 11.2666 13.8751 11.6292 13.8751 12C13.8751 12.4973 13.6776 12.9742 13.326 13.3258C12.9743 13.6775 12.4974 13.875 12.0001 13.875Z" fill="#6B6C80"/>
</svg>
