<svg width="12" height="14" viewBox="0 0 12 14" fill="none" xmlns="http://www.w3.org/2000/svg">
<path d="M1.33333 13.6668C0.966668 13.6668 0.652668 13.5362 0.391334 13.2748C0.130001 13.0135 -0.000443313 12.6997 1.13186e-06 12.3335V3.00016H1.33333V12.3335H8.66667V13.6668H1.33333ZM4 11.0002C3.63333 11.0002 3.31933 10.8695 3.058 10.6082C2.79667 10.3468 2.66622 10.0331 2.66667 9.66683V1.66683C2.66667 1.30016 2.79733 0.986164 3.05867 0.72483C3.32 0.463497 3.63378 0.333053 4 0.333497H10C10.3667 0.333497 10.6807 0.464164 10.942 0.725497C11.2033 0.986831 11.3338 1.30061 11.3333 1.66683V9.66683C11.3333 10.0335 11.2027 10.3475 10.9413 10.6088C10.68 10.8702 10.3662 11.0006 10 11.0002H4ZM4 9.66683H10V1.66683H4V9.66683Z" fill="#6166F1"/>
</svg>
