<svg width="19" height="19" viewBox="0 0 19 19" fill="none" xmlns="http://www.w3.org/2000/svg">
<path d="M12.2555 13.6042C10.7286 14.7903 8.807 15.3499 6.88198 15.169C4.95696 14.988 3.17328 14.0802 1.89411 12.6303C0.614947 11.1804 -0.0635137 9.29751 -0.00312456 7.36495C0.0572646 5.43239 0.851962 3.5955 2.21916 2.22831C3.58635 0.861118 5.42324 0.0664199 7.3558 0.00603071C9.28836 -0.0543585 11.1713 0.624102 12.6212 1.90327C14.0711 3.18243 14.9789 4.96612 15.1598 6.89114C15.3407 8.81615 14.7812 10.7378 13.595 12.2647L18.6775 17.3282L17.3285 18.6772L12.265 13.6042H12.2555ZM7.60053 13.3002C8.34907 13.3002 9.09027 13.1528 9.78183 12.8663C10.4734 12.5798 11.1017 12.16 11.631 11.6307C12.1603 11.1014 12.5802 10.473 12.8666 9.78148C13.1531 9.08993 13.3005 8.34872 13.3005 7.60019C13.3005 6.85165 13.1531 6.11045 12.8666 5.41889C12.5802 4.72733 12.1603 4.09897 11.631 3.56968C11.1017 3.04038 10.4734 2.62052 9.78183 2.33407C9.09027 2.04762 8.34907 1.90019 7.60053 1.90019C6.0888 1.90019 4.63898 2.50072 3.57002 3.56968C2.50106 4.63863 1.90053 6.08845 1.90053 7.60019C1.90053 9.11192 2.50106 10.5617 3.57002 11.6307C4.63898 12.6997 6.0888 13.3002 7.60053 13.3002Z" fill="#6166F1"/>
</svg>
