<svg width="17" height="18" viewBox="0 0 17 18" fill="none" xmlns="http://www.w3.org/2000/svg">
<path d="M15.5836 9.54853C15.45 9.39646 15.3763 9.20095 15.3763 8.99853C15.3763 8.79611 15.45 8.6006 15.5836 8.44853L16.6502 7.24853C16.7678 7.11742 16.8408 6.95245 16.8587 6.77729C16.8767 6.60212 16.8387 6.42577 16.7502 6.27353L15.0836 3.3902C14.996 3.23813 14.8626 3.11759 14.7025 3.04577C14.5424 2.97394 14.3637 2.95449 14.1919 2.9902L12.6252 3.30686C12.4259 3.34805 12.2184 3.31485 12.0418 3.21353C11.8653 3.11221 11.7319 2.94977 11.6669 2.75686L11.1586 1.23186C11.1027 1.06635 10.9962 0.922583 10.8541 0.820897C10.712 0.719212 10.5416 0.664745 10.3669 0.665196H7.03357C6.85185 0.655711 6.67202 0.705968 6.52154 0.808291C6.37107 0.910614 6.25822 1.05938 6.20024 1.23186L5.73357 2.75686C5.66857 2.94977 5.53522 3.11221 5.35867 3.21353C5.18212 3.31485 4.97459 3.34805 4.77524 3.30686L3.16691 2.9902C3.00403 2.96718 2.83799 2.99288 2.6897 3.06406C2.5414 3.13524 2.41749 3.24872 2.33357 3.3902L0.666906 6.27353C0.576206 6.42407 0.535424 6.59943 0.550391 6.77455C0.565358 6.94966 0.635308 7.11556 0.750239 7.24853L1.80857 8.44853C1.94217 8.6006 2.01585 8.79611 2.01585 8.99853C2.01585 9.20095 1.94217 9.39646 1.80857 9.54853L0.750239 10.7485C0.635308 10.8815 0.565358 11.0474 0.550391 11.2225C0.535424 11.3976 0.576206 11.573 0.666906 11.7235L2.33357 14.6069C2.42115 14.7589 2.5545 14.8795 2.71462 14.9513C2.87473 15.0231 3.05343 15.0426 3.22524 15.0069L4.79191 14.6902C4.99125 14.649 5.19878 14.6822 5.37533 14.7835C5.55188 14.8849 5.68524 15.0473 5.75024 15.2402L6.25857 16.7652C6.31656 16.9377 6.4294 17.0864 6.57988 17.1888C6.73035 17.2911 6.91018 17.3413 7.09191 17.3319H10.4252C10.5999 17.3323 10.7704 17.2778 10.9124 17.1762C11.0545 17.0745 11.161 16.9307 11.2169 16.7652L11.7252 15.2402C11.7902 15.0473 11.9236 14.8849 12.1001 14.7835C12.2767 14.6822 12.4842 14.649 12.6836 14.6902L14.2502 15.0069C14.4221 15.0426 14.6008 15.0231 14.7609 14.9513C14.921 14.8795 15.0543 14.7589 15.1419 14.6069L16.8086 11.7235C16.8971 11.5713 16.935 11.3949 16.9171 11.2198C16.8991 11.0446 16.8261 10.8796 16.7086 10.7485L15.5836 9.54853ZM14.3419 10.6652L15.0086 11.4152L13.9419 13.2652L12.9586 13.0652C12.3584 12.9425 11.734 13.0445 11.2041 13.3517C10.6741 13.6589 10.2754 14.1501 10.0836 14.7319L9.76691 15.6652H7.63357L7.33357 14.7152C7.14179 14.1334 6.74306 13.6423 6.21308 13.335C5.6831 13.0278 5.05876 12.9258 4.45857 13.0485L3.47524 13.2485L2.39191 11.4069L3.05857 10.6569C3.46853 10.1985 3.69518 9.60514 3.69518 8.9902C3.69518 8.37525 3.46853 7.78188 3.05857 7.32353L2.39191 6.57353L3.45857 4.7402L4.44191 4.9402C5.04209 5.06288 5.66643 4.96093 6.19641 4.65369C6.72639 4.34646 7.12512 3.85533 7.31691 3.27353L7.63357 2.33186H9.76691L10.0836 3.28186C10.2754 3.86366 10.6741 4.35479 11.2041 4.66203C11.734 4.96926 12.3584 5.07121 12.9586 4.94853L13.9419 4.74853L15.0086 6.59853L14.3419 7.34853C13.9365 7.80583 13.7127 8.39576 13.7127 9.00686C13.7127 9.61796 13.9365 10.2079 14.3419 10.6652ZM8.70024 5.6652C8.04097 5.6652 7.3965 5.86069 6.84834 6.22696C6.30017 6.59324 5.87293 7.11383 5.62064 7.72292C5.36835 8.33201 5.30234 9.00223 5.43095 9.64883C5.55957 10.2954 5.87704 10.8894 6.34322 11.3556C6.80939 11.8217 7.40334 12.1392 8.04994 12.2678C8.69654 12.3964 9.36676 12.3304 9.97585 12.0781C10.5849 11.8258 11.1055 11.3986 11.4718 10.8504C11.8381 10.3023 12.0336 9.6578 12.0336 8.99853C12.0336 8.11447 11.6824 7.26663 11.0573 6.64151C10.4321 6.01639 9.58429 5.6652 8.70024 5.6652ZM8.70024 10.6652C8.3706 10.6652 8.04837 10.5674 7.77429 10.3843C7.50021 10.2012 7.28659 9.94088 7.16044 9.63634C7.03429 9.33179 7.00129 8.99668 7.0656 8.67338C7.12991 8.35008 7.28864 8.05311 7.52173 7.82002C7.75482 7.58693 8.05179 7.4282 8.37509 7.36389C8.69839 7.29958 9.0335 7.33258 9.33805 7.45873C9.64259 7.58488 9.90289 7.7985 10.086 8.07258C10.2692 8.34666 10.3669 8.66889 10.3669 8.99853C10.3669 9.44056 10.1913 9.86448 9.87875 10.177C9.56619 10.4896 9.14227 10.6652 8.70024 10.6652Z" fill="#6B6C80"/>
</svg>
