<svg width="17" height="17" viewBox="0 0 17 17" fill="none" xmlns="http://www.w3.org/2000/svg">
<g id="Icon">
<path id="Vector" d="M13.4665 8.6376C13.3596 8.51594 13.3006 8.35954 13.3006 8.1976C13.3006 8.03566 13.3596 7.87926 13.4665 7.7576L14.3198 6.7976C14.4138 6.69271 14.4722 6.56074 14.4866 6.42061C14.501 6.28048 14.4706 6.13939 14.3998 6.0176L13.0665 3.71094C12.9964 3.58928 12.8897 3.49285 12.7616 3.43539C12.6335 3.37793 12.4906 3.36237 12.3531 3.39094L11.0998 3.64427C10.9403 3.67722 10.7743 3.65066 10.6331 3.5696C10.4918 3.48854 10.3851 3.35859 10.3331 3.20427L9.92647 1.98427C9.88174 1.85186 9.79654 1.73685 9.68289 1.6555C9.56924 1.57415 9.4329 1.53058 9.29313 1.53094H6.62647C6.48109 1.52335 6.33722 1.56355 6.21684 1.64541C6.09646 1.72727 6.00619 1.84628 5.9598 1.98427L5.58647 3.20427C5.53447 3.35859 5.42778 3.48854 5.28654 3.5696C5.1453 3.65066 4.97928 3.67722 4.8198 3.64427L3.53313 3.39094C3.40283 3.37252 3.27 3.39308 3.15137 3.45003C3.03273 3.50697 2.9336 3.59775 2.86647 3.71094L1.53313 6.0176C1.46057 6.13804 1.42795 6.27833 1.43992 6.41842C1.4519 6.55851 1.50786 6.69123 1.5998 6.7976L2.44647 7.7576C2.55335 7.87926 2.61229 8.03566 2.61229 8.1976C2.61229 8.35954 2.55335 8.51594 2.44647 8.6376L1.5998 9.5976C1.50786 9.70397 1.4519 9.83669 1.43992 9.97679C1.42795 10.1169 1.46057 10.2572 1.53313 10.3776L2.86647 12.6843C2.93653 12.8059 3.04321 12.9024 3.1713 12.9598C3.29939 13.0173 3.44235 13.0328 3.5798 13.0043L4.83313 12.7509C4.99261 12.718 5.15864 12.7445 5.29988 12.8256C5.44112 12.9067 5.5478 13.0366 5.5998 13.1909L6.00647 14.4109C6.05285 14.5489 6.14313 14.6679 6.26351 14.7498C6.38389 14.8317 6.52776 14.8719 6.67313 14.8643H9.3398C9.47956 14.8646 9.6159 14.8211 9.72955 14.7397C9.8432 14.6584 9.92841 14.5433 9.97313 14.4109L10.3798 13.1909C10.4318 13.0366 10.5385 12.9067 10.6797 12.8256C10.821 12.7445 10.987 12.718 11.1465 12.7509L12.3998 13.0043C12.5373 13.0328 12.6802 13.0173 12.8083 12.9598C12.9364 12.9024 13.0431 12.8059 13.1131 12.6843L14.4465 10.3776C14.5173 10.2558 14.5476 10.1147 14.5333 9.9746C14.5189 9.83447 14.4605 9.70249 14.3665 9.5976L13.4665 8.6376ZM12.4731 9.53094L13.0065 10.1309L12.1531 11.6109L11.3665 11.4509C10.8863 11.3528 10.3868 11.4343 9.96286 11.6801C9.53888 11.9259 9.2199 12.3188 9.06647 12.7843L8.81313 13.5309H7.10647L6.86647 12.7709C6.71304 12.3055 6.39405 11.9126 5.97007 11.6668C5.54609 11.421 5.04661 11.3395 4.56647 11.4376L3.7798 11.5976L2.91313 10.1243L3.44647 9.52427C3.77444 9.15759 3.95576 8.68289 3.95576 8.19094C3.95576 7.69898 3.77444 7.22428 3.44647 6.8576L2.91313 6.2576L3.76647 4.79094L4.55313 4.95094C5.03328 5.04908 5.53275 4.96752 5.95674 4.72173C6.38072 4.47595 6.6997 4.08304 6.85313 3.6176L7.10647 2.86427H8.81313L9.06647 3.62427C9.2199 4.08971 9.53888 4.48261 9.96286 4.7284C10.3868 4.97419 10.8863 5.05575 11.3665 4.9576L12.1531 4.7976L13.0065 6.2776L12.4731 6.8776C12.1488 7.24344 11.9698 7.71539 11.9698 8.20427C11.9698 8.69315 12.1488 9.1651 12.4731 9.53094ZM7.9598 5.53094C7.43238 5.53094 6.91681 5.68733 6.47828 5.98035C6.03975 6.27337 5.69796 6.68984 5.49612 7.17711C5.29429 7.66438 5.24148 8.20056 5.34437 8.71784C5.44727 9.23513 5.70124 9.71028 6.07418 10.0832C6.44712 10.4562 6.92228 10.7101 7.43956 10.813C7.95684 10.9159 8.49302 10.8631 8.98029 10.6613C9.46756 10.4594 9.88404 10.1177 10.1771 9.67912C10.4701 9.24059 10.6265 8.72502 10.6265 8.1976C10.6265 7.49036 10.3455 6.81208 9.84542 6.31198C9.34532 5.81189 8.66705 5.53094 7.9598 5.53094ZM7.9598 9.53094C7.69609 9.53094 7.43831 9.45274 7.21904 9.30623C6.99977 9.15972 6.82888 8.95148 6.72796 8.70785C6.62704 8.46421 6.60064 8.19612 6.65209 7.93748C6.70353 7.67884 6.83052 7.44126 7.01699 7.25479C7.20346 7.06832 7.44104 6.94134 7.69968 6.88989C7.95832 6.83844 8.22641 6.86485 8.47005 6.96576C8.71368 7.06668 8.92192 7.23758 9.06843 7.45684C9.21494 7.67611 9.29313 7.93389 9.29313 8.1976C9.29313 8.55122 9.15266 8.89036 8.90261 9.14041C8.65256 9.39046 8.31342 9.53094 7.9598 9.53094Z" fill="#636363"/>
</g>
</svg>
