<svg xmlns="http://www.w3.org/2000/svg" width="14" height="14" viewBox="0 0 14 14" fill="none">
  <path d="M9.41981 6.69502V5.80119C9.41981 5.63525 9.28404 5.49948 9.1181 5.49948H7.3361C6.37627 5.49948 5.56541 6.13119 5.29387 7.00051C5.23164 6.82325 5.19581 6.62713 5.19581 6.40462C5.19581 5.23736 6.14055 4.29262 7.30781 4.29262H9.1181C9.28404 4.29262 9.41981 4.15685 9.41981 3.99091V3.09708L11.4187 4.89605L9.41981 6.69502ZM8.21295 6.40462H8.51467V7.30976C8.51467 7.64353 8.78433 7.91319 9.1181 7.91319H9.18787C9.33684 7.91319 9.48015 7.85851 9.59141 7.75856L12.2126 5.39953C12.3559 5.27131 12.437 5.08839 12.437 4.89605C12.437 4.70371 12.3559 4.52079 12.2126 4.39256L9.6065 2.04673C9.48581 1.93925 9.33118 1.87891 9.16901 1.87891C8.80695 1.87891 8.51467 2.17119 8.51467 2.53325V3.38748H7.30781C5.64084 3.38748 4.29067 4.73765 4.29067 6.40462C4.29067 7.54359 4.94312 8.27336 5.49564 8.68445C5.6069 8.76742 5.7125 8.83719 5.81055 8.89565C5.89352 8.94656 5.97084 8.98805 6.03495 9.02011C6.09907 9.05216 6.15187 9.07668 6.18958 9.09365C6.23107 9.11251 6.27632 9.12005 6.32347 9.12005H6.37061C6.55541 9.12005 6.70627 8.96919 6.70627 8.78439C6.70627 8.63731 6.60632 8.50719 6.48752 8.41668C6.47998 8.41102 6.47432 8.40725 6.46678 8.40159C6.43472 8.38085 6.40267 8.35445 6.3725 8.32428C6.35741 8.30919 6.34044 8.29411 6.32535 8.27525C6.31027 8.25639 6.29518 8.23942 6.2801 8.22056C6.24615 8.17342 6.2141 8.12062 6.18581 8.06028C6.13678 7.94713 6.10472 7.80948 6.10472 7.63788C6.10472 6.95713 6.65724 6.40273 7.33987 6.40273H8.21295V6.40462ZM3.23467 2.48233C2.48415 2.48233 1.87695 3.08953 1.87695 3.84005V10.176C1.87695 10.9266 2.48415 11.5338 3.23467 11.5338H9.57067C10.3212 11.5338 10.9284 10.9266 10.9284 10.176V8.96919C10.9284 8.71839 10.7266 8.51662 10.4758 8.51662C10.225 8.51662 10.0232 8.71839 10.0232 8.96919V10.176C10.0232 10.4268 9.82147 10.6286 9.57067 10.6286H3.23467C2.98387 10.6286 2.7821 10.4268 2.7821 10.176V3.84005C2.7821 3.58925 2.98387 3.38748 3.23467 3.38748H4.44152C4.69232 3.38748 4.8941 3.18571 4.8941 2.93491C4.8941 2.68411 4.69232 2.48233 4.44152 2.48233H3.23467Z" fill="#6166F1"/>
</svg>