<svg width="20" height="21" viewBox="0 0 20 21" fill="none" xmlns="http://www.w3.org/2000/svg">
<g id="Icon">
<path id="Vector" d="M13.7857 10.0252V8.62857C13.7857 8.36929 13.5736 8.15714 13.3143 8.15714H10.5299C9.03018 8.15714 7.76321 9.1442 7.33893 10.5025C7.2417 10.2255 7.18571 9.91911 7.18571 9.57143C7.18571 7.74759 8.66187 6.27143 10.4857 6.27143H13.3143C13.5736 6.27143 13.7857 6.05929 13.7857 5.8V4.40339L16.9089 7.21429L13.7857 10.0252ZM11.9 9.57143H12.3714V10.9857C12.3714 11.5072 12.7928 11.9286 13.3143 11.9286H13.4233C13.6561 11.9286 13.88 11.8431 14.0538 11.687L18.1494 8.00098C18.3733 7.80062 18.5 7.51482 18.5 7.21429C18.5 6.91375 18.3733 6.62795 18.1494 6.42759L14.0774 2.76223C13.8888 2.59429 13.6472 2.5 13.3938 2.5C12.8281 2.5 12.3714 2.9567 12.3714 3.52241V4.85714H10.4857C7.88107 4.85714 5.77143 6.96679 5.77143 9.57143C5.77143 11.3511 6.79089 12.4913 7.6542 13.1337C7.82804 13.2633 7.99304 13.3723 8.14625 13.4637C8.27589 13.5432 8.3967 13.608 8.49688 13.6581C8.59705 13.7082 8.67955 13.7465 8.73848 13.773C8.8033 13.8025 8.87402 13.8143 8.94768 13.8143H9.02134C9.31009 13.8143 9.5458 13.5786 9.5458 13.2898C9.5458 13.06 9.38964 12.8567 9.20402 12.7153C9.19223 12.7064 9.18339 12.7005 9.17161 12.6917C9.12152 12.6593 9.07143 12.618 9.02429 12.5709C9.00071 12.5473 8.9742 12.5238 8.95062 12.4943C8.92705 12.4648 8.90348 12.4383 8.87991 12.4088C8.82688 12.3352 8.77679 12.2527 8.73259 12.1584C8.65598 11.9816 8.60589 11.7665 8.60589 11.4984C8.60589 10.4347 9.4692 9.56848 10.5358 9.56848H11.9V9.57143ZM4.12143 3.44286C2.94875 3.44286 2 4.39161 2 5.56429V15.4643C2 16.637 2.94875 17.5857 4.12143 17.5857H14.0214C15.1941 17.5857 16.1429 16.637 16.1429 15.4643V13.5786C16.1429 13.1867 15.8276 12.8714 15.4357 12.8714C15.0438 12.8714 14.7286 13.1867 14.7286 13.5786V15.4643C14.7286 15.8562 14.4133 16.1714 14.0214 16.1714H4.12143C3.72955 16.1714 3.41429 15.8562 3.41429 15.4643V5.56429C3.41429 5.17241 3.72955 4.85714 4.12143 4.85714H6.00714C6.39902 4.85714 6.71429 4.54188 6.71429 4.15C6.71429 3.75812 6.39902 3.44286 6.00714 3.44286H4.12143Z" fill="#373851"/>
</g>
</svg>
