<svg xmlns="http://www.w3.org/2000/svg" width="24" height="24" viewBox="0 0 24 24" fill="none">
  <path d="M16.5432 11.4287V9.75272C16.5432 9.44158 16.2887 9.18701 15.9775 9.18701H12.6363C10.8366 9.18701 9.31625 10.3715 8.8071 12.0014C8.69043 11.6691 8.62325 11.3014 8.62325 10.8842C8.62325 8.69554 10.3946 6.92415 12.5832 6.92415H15.9775C16.2887 6.92415 16.5432 6.66958 16.5432 6.35844V4.68251L20.2911 8.05558L16.5432 11.4287ZM14.2804 10.8842H14.8461V12.5813C14.8461 13.2071 15.3517 13.7127 15.9775 13.7127H16.1084C16.3877 13.7127 16.6564 13.6102 16.865 13.4228L21.7796 8.99962C22.0484 8.75919 22.2004 8.41622 22.2004 8.05558C22.2004 7.69494 22.0484 7.35197 21.7796 7.11155L16.8933 2.71312C16.667 2.51158 16.3771 2.39844 16.073 2.39844C15.3941 2.39844 14.8461 2.94647 14.8461 3.62533V5.22701H12.5832C9.45768 5.22701 6.9261 7.75858 6.9261 10.8842C6.9261 13.0197 8.14946 14.388 9.18543 15.1588C9.39403 15.3144 9.59203 15.4452 9.77589 15.5548C9.93146 15.6503 10.0764 15.7281 10.1966 15.7882C10.3169 15.8483 10.4159 15.8943 10.4866 15.9261C10.5644 15.9614 10.6492 15.9756 10.7376 15.9756H10.826C11.1725 15.9756 11.4554 15.6927 11.4554 15.3462C11.4554 15.0704 11.268 14.8265 11.0452 14.6568C11.0311 14.6462 11.0205 14.6391 11.0063 14.6285C10.9462 14.5896 10.8861 14.5401 10.8295 14.4835C10.8012 14.4552 10.7694 14.4269 10.7411 14.3916C10.7129 14.3562 10.6846 14.3244 10.6563 14.289C10.5926 14.2007 10.5325 14.1017 10.4795 13.9885C10.3876 13.7764 10.3275 13.5183 10.3275 13.1965C10.3275 11.9201 11.3634 10.8806 12.6434 10.8806H14.2804V10.8842ZM4.9461 3.52987C3.53889 3.52987 2.40039 4.66837 2.40039 6.07558V17.9556C2.40039 19.3628 3.53889 20.5013 4.9461 20.5013H16.8261C18.2333 20.5013 19.3718 19.3628 19.3718 17.9556V15.6927C19.3718 15.2225 18.9935 14.8442 18.5232 14.8442C18.053 14.8442 17.6747 15.2225 17.6747 15.6927V17.9556C17.6747 18.4258 17.2964 18.8042 16.8261 18.8042H4.9461C4.47585 18.8042 4.09753 18.4258 4.09753 17.9556V6.07558C4.09753 5.60533 4.47585 5.22701 4.9461 5.22701H7.20896C7.67921 5.22701 8.05753 4.84869 8.05753 4.37844C8.05753 3.90819 7.67921 3.52987 7.20896 3.52987H4.9461Z" fill="#636363"/>
</svg>