<svg width="20" height="20" viewBox="0 0 20 20" fill="none" xmlns="http://www.w3.org/2000/svg">
<g id="Icon">
<path id="Vector" fill-rule="evenodd" clip-rule="evenodd" d="M0.476562 4.28832C0.476562 3.76233 0.902958 3.33594 1.42894 3.33594H18.5718C19.0978 3.33594 19.5242 3.76233 19.5242 4.28832C19.5242 4.8143 19.0978 5.2407 18.5718 5.2407H1.42894C0.902958 5.2407 0.476562 4.8143 0.476562 4.28832ZM2.38133 10.0026C2.38133 9.47662 2.80772 9.05022 3.3337 9.05022H16.6671C17.1931 9.05022 17.6195 9.47662 17.6195 10.0026C17.6195 10.5286 17.1931 10.955 16.6671 10.955H3.3337C2.80772 10.955 2.38133 10.5286 2.38133 10.0026ZM4.28609 15.7169C4.28609 15.1909 4.71249 14.7645 5.23847 14.7645H14.7623C15.2882 14.7645 15.7146 15.1909 15.7146 15.7169C15.7146 16.2429 15.2882 16.6693 14.7623 16.6693H5.23847C4.71249 16.6693 4.28609 16.2429 4.28609 15.7169Z" fill="#1F2037"/>
</g>
</svg>
