<svg width="31" height="31" viewBox="0 0 31 31" fill="none" xmlns="http://www.w3.org/2000/svg">
<g clip-path="url(#clip0_700_356)">
<path d="M1.45691 13.4348L15.0194 21.1848C15.1658 21.2685 15.3314 21.3124 15.5 21.3124C15.6686 21.3124 15.8342 21.2685 15.9806 21.1848L29.5431 13.4348C29.6914 13.3501 29.8146 13.2277 29.9004 13.08C29.9861 12.9322 30.0312 12.7645 30.0312 12.5937C30.0312 12.4229 29.9861 12.2551 29.9004 12.1074C29.8146 11.9597 29.6914 11.8373 29.5431 11.7525L15.9806 4.00254C15.8342 3.91896 15.6686 3.875 15.5 3.875C15.3314 3.875 15.1658 3.91896 15.0194 4.00254L1.45691 11.7525C1.30862 11.8373 1.18536 11.9597 1.09963 12.1074C1.0139 12.2551 0.96875 12.4229 0.96875 12.5937C0.96875 12.7645 1.0139 12.9322 1.09963 13.08C1.18536 13.2277 1.30862 13.3501 1.45691 13.4348Z" fill="#6166F1"/>
<path d="M28.5819 16.5964L15.5 24.0718L2.41811 16.5964C2.30764 16.5333 2.18583 16.4925 2.05963 16.4765C1.93342 16.4604 1.80529 16.4694 1.68256 16.5029C1.55982 16.5364 1.44489 16.5937 1.34431 16.6716C1.24373 16.7495 1.15947 16.8465 1.09636 16.9569C1.03325 17.0674 0.992513 17.1892 0.976477 17.3154C0.960441 17.4416 0.96942 17.5697 1.0029 17.6925C1.03638 17.8152 1.09371 17.9301 1.17161 18.0307C1.24951 18.1313 1.34646 18.2156 1.45692 18.2787L15.0194 26.0287C15.1658 26.1123 15.3314 26.1563 15.5 26.1563C15.6686 26.1563 15.8342 26.1123 15.9806 26.0287L29.5431 18.2787C29.6536 18.2156 29.7505 18.1313 29.8284 18.0307C29.9063 17.9301 29.9636 17.8152 29.9971 17.6925C30.0306 17.5697 30.0396 17.4416 30.0236 17.3154C30.0075 17.1892 29.9668 17.0674 29.9037 16.9569C29.8406 16.8465 29.7563 16.7495 29.6557 16.6716C29.5551 16.5937 29.4402 16.5364 29.3175 16.5029C29.1947 16.4694 29.0666 16.4604 28.9404 16.4765C28.8142 16.4925 28.6924 16.5333 28.5819 16.5964Z" fill="#6166F1"/>
<path d="M28.5819 20.4714L15.5 27.9468L2.41811 20.4714C2.30764 20.4083 2.18583 20.3675 2.05963 20.3515C1.93342 20.3354 1.80529 20.3444 1.68256 20.3779C1.55982 20.4114 1.44489 20.4687 1.34431 20.5466C1.24373 20.6245 1.15947 20.7215 1.09636 20.8319C1.03325 20.9424 0.992513 21.0642 0.976477 21.1904C0.960441 21.3166 0.96942 21.4447 1.0029 21.5675C1.03638 21.6902 1.09371 21.8051 1.17161 21.9057C1.24951 22.0063 1.34646 22.0906 1.45692 22.1537L15.0194 29.9037C15.1658 29.9873 15.3314 30.0313 15.5 30.0313C15.6686 30.0313 15.8342 29.9873 15.9806 29.9037L29.5431 22.1537C29.6536 22.0906 29.7505 22.0063 29.8284 21.9057C29.9063 21.8051 29.9636 21.6902 29.9971 21.5675C30.0306 21.4447 30.0396 21.3166 30.0236 21.1904C30.0075 21.0642 29.9668 20.9424 29.9037 20.8319C29.8406 20.7215 29.7563 20.6245 29.6557 20.5466C29.5551 20.4687 29.4402 20.4114 29.3175 20.3779C29.1947 20.3444 29.0666 20.3354 28.9404 20.3515C28.8142 20.3675 28.6924 20.4083 28.5819 20.4714Z" fill="#6166F1"/>
</g>
<defs>
<clipPath id="clip0_700_356">
<rect width="31" height="31" fill="white"/>
</clipPath>
</defs>
</svg>
