<svg xmlns="http://www.w3.org/2000/svg" width="20" height="20" viewBox="0 0 20 20" fill="none">
  <path fill-rule="evenodd" clip-rule="evenodd" d="M5.42967 11.8164C5.46405 11.8278 5.49939 11.8361 5.53527 11.8412C5.76161 12.3745 5.98668 12.9084 6.21047 13.4428C6.61287 14.4044 7.01847 15.3948 7.10727 15.6796C7.21847 16.03 7.33527 16.2684 7.46327 16.4316C7.52967 16.5148 7.60567 16.5884 7.69527 16.6444C7.74195 16.6736 7.79189 16.6972 7.84407 16.7148C8.10007 16.8108 8.33367 16.7708 8.48007 16.722C8.56599 16.6927 8.64773 16.6523 8.72327 16.602L8.72727 16.6004L10.9881 15.1908L13.6001 17.1924C13.6385 17.222 13.6801 17.2468 13.7249 17.2668C14.0385 17.4028 14.3425 17.4508 14.6289 17.4124C14.9137 17.3724 15.1401 17.2532 15.3089 17.118C15.5027 16.9618 15.6572 16.7623 15.7601 16.5356L15.7673 16.518L15.7697 16.5116L15.7713 16.5084V16.5068L15.7721 16.506C15.786 16.4716 15.7967 16.436 15.8041 16.3996L18.1881 4.37958C18.1956 4.3411 18.1994 4.30198 18.1993 4.26278C18.1993 3.91078 18.0665 3.57558 17.7553 3.37318C17.4881 3.19958 17.1913 3.19158 17.0033 3.20598C16.8017 3.22198 16.6145 3.27158 16.4889 3.31158C16.4186 3.33386 16.3492 3.35895 16.2809 3.38678L16.2721 3.39078L2.90087 8.63558L2.89927 8.63638C2.85403 8.65302 2.80947 8.67143 2.76567 8.69158C2.65964 8.73925 2.55793 8.79599 2.46167 8.86118C2.28007 8.98518 1.86168 9.32598 1.93288 9.88918C1.98888 10.3372 2.29607 10.6132 2.48407 10.746C2.58647 10.8188 2.68407 10.8708 2.75607 10.9052C2.78807 10.9212 2.85687 10.9484 2.88647 10.9612L2.89447 10.9636L5.42967 11.8164ZM16.7401 4.49478H16.7385C16.7316 4.49784 16.7247 4.50077 16.7177 4.50358L3.33047 9.75558C3.32359 9.75836 3.31665 9.76103 3.30967 9.76358L3.30167 9.76598C3.27722 9.77559 3.2532 9.78627 3.22967 9.79798C3.25194 9.81073 3.27491 9.82222 3.29847 9.83238L5.81207 10.6788C5.85699 10.6939 5.89996 10.7143 5.94007 10.7396L14.2417 5.87958L14.2497 5.87558C14.2819 5.85598 14.315 5.83783 14.3489 5.82118C14.4065 5.79158 14.4985 5.74838 14.6025 5.71638C14.6745 5.69398 14.8881 5.63078 15.1185 5.70518C15.2407 5.7437 15.3496 5.81581 15.4328 5.91328C15.516 6.01074 15.57 6.12964 15.5889 6.25638C15.6187 6.36738 15.6195 6.48417 15.5913 6.59558C15.5353 6.81558 15.3817 6.98678 15.2409 7.11798C15.1209 7.22998 13.5649 8.73078 12.0297 10.2124L9.93927 12.2284L9.56727 12.5884L14.2649 16.19C14.3283 16.2166 14.3971 16.2276 14.4657 16.222C14.5002 16.2173 14.5327 16.2029 14.5593 16.1804C14.5917 16.153 14.6195 16.1206 14.6417 16.0844L14.6433 16.0836L16.9553 4.42518C16.8824 4.4427 16.811 4.4657 16.7417 4.49398L16.7401 4.49478ZM9.97127 14.41L9.03367 13.6916L8.80647 15.1356L9.97127 14.41ZM8.17367 12.266L9.10567 11.366L11.1961 9.34838L11.9745 8.59798L6.75847 11.6516L6.78647 11.7172C7.11544 12.4943 7.44078 13.273 7.76247 14.0532L7.98887 12.6132C8.00936 12.4796 8.0745 12.3578 8.17367 12.266Z" fill="#0A0A0A"/>
</svg>