<svg width="31" height="26" viewBox="0 0 31 26" fill="none" xmlns="http://www.w3.org/2000/svg">
<path d="M30.2344 3.75702C29.099 4.24961 27.8982 4.57523 26.6695 4.72377C27.9658 3.94935 28.9373 2.73103 29.4036 1.29483C28.1854 2.01999 26.8519 2.53091 25.4611 2.80538C24.5314 1.7972 23.2934 1.1261 21.9412 0.89733C20.589 0.668566 19.1992 0.895075 17.9896 1.54133C16.78 2.18759 15.8191 3.21705 15.2577 4.46824C14.6962 5.71944 14.5659 7.1216 14.8872 8.45483C12.4242 8.33025 10.0149 7.68891 7.81584 6.57248C5.6168 5.45604 3.67722 3.88949 2.1231 1.97458C1.578 2.92648 1.29157 4.00448 1.2923 5.10141C1.29037 6.1201 1.54036 7.12346 2.02001 8.02215C2.49967 8.92085 3.19411 9.687 4.0415 10.2524C3.05658 10.2256 2.09272 9.9613 1.23188 9.482V9.55753C1.23926 10.9848 1.73941 12.3658 2.64774 13.4668C3.55606 14.5678 4.81679 15.3212 6.21669 15.5997C5.67781 15.7637 5.11833 15.8502 4.55508 15.8565C4.1652 15.852 3.77628 15.8166 3.39196 15.7508C3.79061 16.9786 4.56207 18.0516 5.59899 18.8205C6.6359 19.5893 7.88671 20.0159 9.17736 20.0407C6.99795 21.7556 4.30718 22.6915 1.53399 22.6993C1.02906 22.701 0.52454 22.6707 0.0234375 22.6087C2.85485 24.4368 6.15447 25.4073 9.52479 25.4032C11.8506 25.4273 14.1578 24.9878 16.3119 24.1103C18.4659 23.2327 20.4234 21.9348 22.0702 20.2922C23.717 18.6497 25.0199 16.6955 25.903 14.5437C26.7861 12.392 27.2315 10.0858 27.2133 7.75998C27.2133 7.50318 27.2133 7.23128 27.2133 6.95939C28.3986 6.07543 29.4209 4.99178 30.2344 3.75702Z" fill="white"/>
</svg>
