<svg xmlns="http://www.w3.org/2000/svg" width="20" height="20" viewBox="0 0 20 20" fill="none">
  <path fill-rule="evenodd" clip-rule="evenodd" d="M12.2158 3.27457C12.623 3.20497 13.0782 3.18177 13.507 3.25457C14.2708 3.38358 14.9785 3.73827 15.539 4.27297C15.9038 4.28097 16.263 4.20897 16.5806 4.10657C16.8875 4.00646 17.1822 3.87201 17.459 3.70577L17.4662 3.70097C17.5814 3.62421 17.7196 3.58965 17.8573 3.60315C17.9951 3.61664 18.124 3.67736 18.2221 3.77501C18.3202 3.87265 18.3815 4.00123 18.3957 4.13893C18.4099 4.27664 18.376 4.415 18.2998 4.53057C18.1342 4.78257 17.903 5.23217 17.6446 5.73617L17.5206 5.97697C17.3726 6.26497 17.2206 6.55617 17.079 6.80577C16.9902 6.96257 16.895 7.12177 16.799 7.25937V7.47857C16.8088 8.78948 16.5574 10.0892 16.0596 11.3019C15.5617 12.5147 14.8272 13.6161 13.8991 14.5419C12.971 15.4677 11.8677 16.1994 10.6538 16.6943C9.4398 17.1892 8.13944 17.4373 6.82855 17.4242C4.92891 17.4259 3.06924 16.8786 1.47335 15.8482C1.35929 15.7744 1.27363 15.6641 1.2304 15.5353C1.18718 15.4065 1.18893 15.2669 1.23539 15.1392C1.28185 15.0115 1.37025 14.9034 1.48614 14.8325C1.60203 14.7616 1.73854 14.7322 1.87335 14.749C2.97565 14.8807 4.09286 14.7029 5.09975 14.2354C4.6085 14.012 4.16914 13.6889 3.80965 13.2864C3.45016 12.8839 3.17843 12.411 3.01175 11.8978C2.97999 11.7995 2.97413 11.6947 2.99473 11.5935C3.01534 11.4923 3.0617 11.3982 3.12935 11.3202L3.13735 11.3122C2.73126 10.9504 2.4058 10.5072 2.18212 10.0115C1.95843 9.5157 1.84151 8.97844 1.83895 8.43457V8.39297C1.83889 8.26125 1.88218 8.13317 1.96213 8.0285C2.04209 7.92382 2.15426 7.84837 2.28135 7.81377C2.01045 7.27324 1.8699 6.67678 1.87095 6.07217C1.8705 5.3867 2.0498 4.7131 2.39095 4.11857C2.43942 4.03417 2.5077 3.96283 2.58988 3.9107C2.67207 3.85857 2.76571 3.82722 2.86271 3.81934C2.95972 3.81147 3.05719 3.82731 3.1467 3.86551C3.23622 3.9037 3.31511 3.96309 3.37655 4.03857C4.77591 5.76252 6.7807 6.8871 8.98135 7.18257C8.96225 6.46272 9.14384 5.75175 9.50582 5.12924C9.8678 4.50672 10.3959 3.99723 11.031 3.65777C11.3526 3.48657 11.7782 3.34977 12.2166 3.27457H12.2158ZM3.19335 9.31297C3.3487 9.75018 3.6149 10.1396 3.9659 10.443C4.3169 10.7465 4.74068 10.9536 5.19575 11.0442C5.32686 11.0703 5.4455 11.1394 5.53282 11.2407C5.62015 11.3419 5.67117 11.4694 5.67779 11.6029C5.6844 11.7364 5.64624 11.8683 5.56935 11.9777C5.49245 12.0871 5.38124 12.1676 5.25335 12.2066C5.03575 12.273 4.81255 12.3186 4.58615 12.345C4.83195 12.662 5.14564 12.92 5.50419 13.1C5.86274 13.28 6.25705 13.3773 6.65815 13.385C6.78188 13.3873 6.90186 13.4278 7.00165 13.501C7.10144 13.5742 7.17616 13.6764 7.21559 13.7937C7.25501 13.911 7.2572 14.0376 7.22185 14.1562C7.18651 14.2748 7.11536 14.3796 7.01815 14.4562C6.18395 15.1125 5.21453 15.5757 4.17975 15.8122C5.03645 16.0864 5.93065 16.2254 6.83015 16.2242H6.83735C7.98936 16.2363 9.13224 16.0188 10.1992 15.5842C11.2662 15.1497 12.2359 14.5068 13.0516 13.6933C13.8673 12.8797 14.5127 11.9117 14.9501 10.8459C15.3875 9.78011 15.6081 8.63781 15.599 7.48577V7.05777C15.5988 6.91208 15.6517 6.77133 15.7478 6.66177C15.8038 6.59857 15.8998 6.45297 16.0358 6.21377C16.1638 5.98817 16.3062 5.71617 16.4542 5.42897L16.4806 5.37617C16.0627 5.47021 15.6324 5.49641 15.2062 5.45377C15.062 5.43807 14.9285 5.37072 14.8302 5.26417C14.4278 4.82791 13.8921 4.53753 13.307 4.43857C13.0118 4.39682 12.7119 4.40358 12.419 4.45857C12.1334 4.50301 11.8562 4.59012 11.5966 4.71697C11.0731 4.99665 10.6573 5.44218 10.4143 5.98368C10.1714 6.52518 10.115 7.132 10.2542 7.70897C10.2761 7.79969 10.2765 7.89428 10.2554 7.9852C10.2343 8.07612 10.1923 8.16087 10.1328 8.23272C10.0732 8.30456 9.99769 8.36152 9.91224 8.39906C9.82679 8.4366 9.73377 8.45369 9.64055 8.44897C7.18262 8.32464 4.85884 7.29036 3.12135 5.54737C3.0876 5.72053 3.07072 5.89655 3.07095 6.07297V6.07457C3.07005 6.51517 3.17812 6.94915 3.38554 7.33787C3.59295 7.7266 3.89327 8.058 4.25975 8.30257C4.36738 8.375 4.44862 8.48037 4.49131 8.60287C4.53401 8.72537 4.53585 8.85841 4.49656 8.98204C4.45727 9.10568 4.37897 9.21325 4.27339 9.28863C4.16781 9.36401 4.04065 9.40315 3.91095 9.40017C3.66952 9.39348 3.42925 9.36481 3.19335 9.31297Z" fill="#0A0A0A"/>
</svg>