<svg width="20" height="20" viewBox="0 0 20 20" fill="none" xmlns="http://www.w3.org/2000/svg">
<g id="Icon">
<path id="Vector" fill-rule="evenodd" clip-rule="evenodd" d="M12.5176 2.78605C12.9417 2.71355 13.4159 2.68938 13.8626 2.76522C14.6582 2.89961 15.3954 3.26907 15.9792 3.82605C16.3592 3.83438 16.7334 3.75938 17.0642 3.65272C17.384 3.54844 17.6909 3.40839 17.9792 3.23522L17.9867 3.23022C18.1067 3.15026 18.2507 3.11426 18.3942 3.12832C18.5377 3.14237 18.6719 3.20562 18.7741 3.30734C18.8764 3.40906 18.9402 3.54299 18.955 3.68643C18.9697 3.82987 18.9344 3.974 18.855 4.09438C18.6825 4.35688 18.4417 4.82522 18.1725 5.35022L18.0434 5.60105C17.8892 5.90105 17.7309 6.20438 17.5834 6.46438C17.4909 6.62772 17.3917 6.79355 17.2917 6.93688V7.16522C17.302 8.53075 17.0401 9.88465 16.5215 11.1479C16.0029 12.4112 15.2378 13.5585 14.271 14.5229C13.3042 15.4873 12.155 16.2494 10.8905 16.7649C9.62593 17.2804 8.27139 17.5389 6.90588 17.5252C4.92709 17.527 2.98993 16.9569 1.32755 15.8835C1.20873 15.8067 1.11951 15.6918 1.07448 15.5576C1.02945 15.4235 1.03128 15.278 1.07967 15.145C1.12806 15.0121 1.22015 14.8994 1.34087 14.8256C1.46159 14.7518 1.60379 14.7211 1.74422 14.7386C2.89244 14.8758 4.0562 14.6905 5.10505 14.2036C4.59333 13.9709 4.13566 13.6343 3.76119 13.215C3.38672 12.7958 3.10367 12.3032 2.93005 11.7685C2.89697 11.6662 2.89086 11.557 2.91232 11.4516C2.93378 11.3462 2.98208 11.2482 3.05255 11.1669L3.06088 11.1585C2.63787 10.7817 2.29885 10.32 2.06584 9.80364C1.83284 9.28723 1.71105 8.72759 1.70838 8.16105V8.11772C1.70832 7.98051 1.75341 7.8471 1.8367 7.73806C1.91998 7.62902 2.03683 7.55042 2.16922 7.51438C1.88703 6.95133 1.74062 6.33002 1.74172 5.70022C1.74124 4.98619 1.92801 4.28452 2.28338 3.66522C2.33387 3.5773 2.40499 3.50299 2.4906 3.44869C2.57621 3.39439 2.67375 3.36173 2.7748 3.35352C2.87585 3.34532 2.97737 3.36183 3.07062 3.40161C3.16387 3.44139 3.24604 3.50326 3.31005 3.58188C4.76771 5.37766 6.85604 6.5491 9.14838 6.85688C9.12848 6.10704 9.31764 5.36645 9.69471 4.718C10.0718 4.06954 10.6218 3.53882 11.2834 3.18522C11.6184 3.00688 12.0617 2.86438 12.5184 2.78605H12.5176ZM3.11922 9.07605C3.28104 9.53148 3.55833 9.9371 3.92396 10.2532C4.28958 10.5693 4.73101 10.7851 5.20505 10.8794C5.34162 10.9066 5.4652 10.9786 5.55616 11.0841C5.64713 11.1895 5.70028 11.3223 5.70717 11.4614C5.71406 11.6005 5.6743 11.7379 5.59421 11.8518C5.51411 11.9657 5.39826 12.0496 5.26505 12.0902C5.03838 12.1594 4.80588 12.2069 4.57005 12.2344C4.82609 12.5647 5.15285 12.8334 5.52634 13.0209C5.89983 13.2083 6.31056 13.3098 6.72838 13.3177C6.85726 13.3201 6.98224 13.3624 7.08619 13.4386C7.19014 13.5148 7.26798 13.6213 7.30904 13.7435C7.3501 13.8657 7.35239 13.9976 7.31557 14.1211C7.27875 14.2446 7.20464 14.3538 7.10338 14.4335C6.23442 15.1173 5.22461 15.5997 4.14672 15.846C5.03911 16.1317 5.97056 16.2765 6.90755 16.2752H6.91505C8.11506 16.2879 9.30556 16.0613 10.417 15.6086C11.5284 15.1559 12.5385 14.4863 13.3882 13.6389C14.2379 12.7914 14.9102 11.7831 15.3658 10.6729C15.8214 9.56265 16.0512 8.37276 16.0417 7.17272V6.72688C16.0416 6.57512 16.0967 6.4285 16.1967 6.31438C16.2551 6.24855 16.355 6.09688 16.4967 5.84772C16.63 5.61272 16.7784 5.32938 16.9325 5.03022L16.96 4.97522C16.5247 5.07318 16.0765 5.10047 15.6326 5.05605C15.4824 5.0397 15.3433 4.96954 15.2409 4.85855C14.8218 4.40412 14.2637 4.10164 13.6542 3.99855C13.3468 3.95506 13.0344 3.9621 12.7292 4.01938C12.4318 4.06568 12.143 4.15642 11.8726 4.28855C11.3273 4.57989 10.8941 5.04398 10.641 5.60804C10.388 6.1721 10.3293 6.80421 10.4742 7.40522C10.497 7.49972 10.4975 7.59825 10.4755 7.69296C10.4536 7.78766 10.4098 7.87595 10.3478 7.95079C10.2857 8.02563 10.2071 8.08495 10.1181 8.12406C10.029 8.16316 9.93215 8.18097 9.83505 8.17605C7.2747 8.04654 4.8541 6.96917 3.04422 5.15355C3.00905 5.33392 2.99147 5.51728 2.99172 5.70105V5.70272C2.99078 6.16167 3.10335 6.61374 3.31941 7.01866C3.53546 7.42358 3.84829 7.76879 4.23005 8.02355C4.34216 8.099 4.42679 8.20876 4.47126 8.33636C4.51573 8.46397 4.51765 8.60255 4.47672 8.73134C4.43579 8.86012 4.35423 8.97217 4.24425 9.0507C4.13428 9.12922 4.00181 9.16999 3.86672 9.16688C3.61522 9.15991 3.36494 9.13005 3.11922 9.07605Z" fill="#1F2037"/>
</g>
</svg>
