<svg xmlns="http://www.w3.org/2000/svg" width="24" height="24" viewBox="0 0 24 24" fill="none">
<g clip-path="url(#clip0_2214_4572)">
<path d="M12.7813 2.37578C12.4003 1.90078 11.6003 1.90078 11.2193 2.37578L3.21927 12.3758C3.10191 12.523 3.02845 12.7003 3.00731 12.8874C2.98617 13.0745 3.01822 13.2637 3.09977 13.4334C3.18132 13.6031 3.30908 13.7463 3.46836 13.8467C3.62765 13.9471 3.81201 14.0005 4.00027 14.0008H8.00027V21.0008C8.00027 21.266 8.10563 21.5204 8.29317 21.7079C8.4807 21.8954 8.73506 22.0008 9.00027 22.0008H15.0003C15.2655 22.0008 15.5198 21.8954 15.7074 21.7079C15.8949 21.5204 16.0003 21.266 16.0003 21.0008V14.0008H20.0003C20.1885 14.0005 20.3729 13.9471 20.5322 13.8467C20.6915 13.7463 20.8192 13.6031 20.9008 13.4334C20.9823 13.2637 21.0144 13.0745 20.9932 12.8874C20.9721 12.7003 20.8986 12.523 20.7813 12.3758L12.7813 2.37578ZM33.1716 12.0008H32.1716V20.0008H28.1716V12.0008H24.2526L30.1716 4.60178L36.0906 12.0008H33.1716Z" fill="#6166F1"/>
<path d="M33.1716 12.0008H32.1716V20.0008H28.1716V12.0008H24.2526L30.1716 4.60178L36.0906 12.0008H33.1716Z" fill="#6166F1"/>
</g>
<defs>
<clipPath id="clip0_2214_4572">
<rect width="24" height="24" fill="white"/>
</clipPath>
</defs>
</svg>