<svg xmlns="http://www.w3.org/2000/svg" width="14" height="14" viewBox="0 0 14 14" fill="none">
  <path d="M7.2103 2.06622C7.0071 1.81289 6.58043 1.81289 6.37723 2.06622L2.11057 7.39955C2.04797 7.47807 2.00879 7.57264 1.99752 7.67241C1.98624 7.77219 2.00333 7.87312 2.04683 7.96362C2.09033 8.05412 2.15846 8.13051 2.24341 8.18404C2.32837 8.23757 2.42669 8.26605 2.5271 8.26622H4.66043V11.9996C4.66043 12.141 4.71662 12.2767 4.81664 12.3767C4.91666 12.4767 5.05232 12.5329 5.19377 12.5329H8.39377C8.53521 12.5329 8.67087 12.4767 8.77089 12.3767C8.87091 12.2767 8.9271 12.141 8.9271 11.9996V8.26622H11.0604C11.1608 8.26605 11.2592 8.23757 11.3441 8.18404C11.4291 8.13051 11.4972 8.05412 11.5407 7.96362C11.5842 7.87312 11.6013 7.77219 11.59 7.67241C11.5787 7.57264 11.5396 7.47807 11.477 7.39955L7.2103 2.06622ZM8.39377 7.19955H7.86043V11.4662H5.7271V7.19955H3.63697L6.79377 3.25342L9.95057 7.19955H8.39377Z" fill="#6166F1"/>
</svg>