<svg width="16" height="18" viewBox="0 0 16 18" fill="none" xmlns="http://www.w3.org/2000/svg">
<path d="M8.65074 0.978516C8.33324 0.582682 7.66657 0.582682 7.34907 0.978516L0.682404 9.31185C0.584602 9.43452 0.523379 9.58229 0.505764 9.73819C0.488148 9.89409 0.514854 10.0518 0.582816 10.1932C0.650777 10.3346 0.757239 10.454 0.889977 10.5376C1.02271 10.6212 1.17635 10.6657 1.33324 10.666H4.66657V16.4994C4.66657 16.7204 4.75437 16.9323 4.91065 17.0886C5.06693 17.2449 5.27889 17.3327 5.4999 17.3327H10.4999C10.7209 17.3327 10.9329 17.2449 11.0892 17.0886C11.2454 16.9323 11.3332 16.7204 11.3332 16.4994V10.666H14.6666C14.8235 10.6657 14.9771 10.6212 15.1098 10.5376C15.2426 10.454 15.349 10.3346 15.417 10.1932C15.485 10.0518 15.5117 9.89409 15.494 9.73819C15.4764 9.58229 15.4152 9.43452 15.3174 9.31185L8.65074 0.978516ZM10.4999 8.99935H9.66657V15.666H6.33324V8.99935H3.0674L7.9999 2.83352L12.9324 8.99935H10.4999Z" fill="#6B6C80"/>
</svg>
