<svg width="12" height="12" viewBox="0 0 12 12" fill="none" xmlns="http://www.w3.org/2000/svg">
<path d="M6.45554 0.385425C6.23329 0.108341 5.76662 0.108341 5.54437 0.385425L0.877707 6.21876C0.809246 6.30463 0.76639 6.40807 0.754059 6.5172C0.741728 6.62633 0.760422 6.73672 0.807995 6.8357C0.855568 6.93469 0.930091 7.01825 1.02301 7.07679C1.11592 7.13533 1.22347 7.16649 1.33329 7.16668H3.66662V11.25C3.66662 11.4047 3.72808 11.5531 3.83748 11.6625C3.94687 11.7719 4.09525 11.8333 4.24996 11.8333H7.74996C7.90467 11.8333 8.05304 11.7719 8.16244 11.6625C8.27183 11.5531 8.33329 11.4047 8.33329 11.25V7.16668H10.6666C10.7764 7.16649 10.884 7.13533 10.9769 7.07679C11.0698 7.01825 11.1443 6.93469 11.1919 6.8357C11.2395 6.73672 11.2582 6.62633 11.2459 6.5172C11.2335 6.40807 11.1907 6.30463 11.1222 6.21876L6.45554 0.385425ZM7.74996 6.00001H7.16662V10.6667H4.83329V6.00001H2.54721L5.99996 1.68392L9.45271 6.00001H7.74996Z" fill="#2B2A5C"/>
</svg>
