<svg width="20" height="14" viewBox="0 0 20 14" fill="none" xmlns="http://www.w3.org/2000/svg">
<path d="M19.6093 6.61953C19.5804 6.55625 18.896 5.03672 17.3843 3.525C15.3617 1.50547 12.8124 0.4375 9.99994 0.4375C7.18744 0.4375 4.63822 1.50547 2.61791 3.525C1.10619 5.03672 0.421816 6.55625 0.390566 6.61953C0.337638 6.73953 0.310303 6.86924 0.310303 7.00039C0.310303 7.13154 0.337638 7.26125 0.390566 7.38125C0.419472 7.44531 1.10385 8.96406 2.61635 10.4758C4.63822 12.4953 7.18744 13.5625 9.99994 13.5625C12.8124 13.5625 15.3617 12.4953 17.3812 10.4758C18.8937 8.96406 19.5781 7.44531 19.607 7.38125C19.6603 7.26142 19.688 7.13179 19.6884 7.00064C19.6888 6.86949 19.6619 6.73969 19.6093 6.61953ZM16.0109 9.19766C14.3335 10.8492 12.3117 11.6875 9.99994 11.6875C7.68822 11.6875 5.66635 10.8492 3.99135 9.19687C3.33224 8.54471 2.76529 7.80559 2.30619 7C2.76542 6.19474 3.33236 5.45589 3.99135 4.80391C5.66713 3.15078 7.68822 2.3125 9.99994 2.3125C12.3117 2.3125 14.3328 3.15078 16.0085 4.80391C16.6676 5.45583 17.2345 6.19469 17.6937 7C17.2345 7.80554 16.6676 8.54465 16.0085 9.19687L16.0109 9.19766ZM9.99994 3.5625C9.32007 3.5625 8.65546 3.76411 8.09017 4.14182C7.52488 4.51954 7.08428 5.0564 6.82411 5.68453C6.56393 6.31265 6.49586 7.00381 6.62849 7.67062C6.76113 8.33743 7.08852 8.94994 7.56926 9.43068C8.05001 9.91142 8.66251 10.2388 9.32932 10.3714C9.99613 10.5041 10.6873 10.436 11.3154 10.1758C11.9435 9.91566 12.4804 9.47507 12.8581 8.90977C13.2358 8.34448 13.4374 7.67987 13.4374 7C13.4364 6.08864 13.0739 5.21489 12.4295 4.57046C11.785 3.92603 10.9113 3.56353 9.99994 3.5625ZM9.99994 8.5625C9.69091 8.5625 9.38882 8.47086 9.13186 8.29917C8.87491 8.12748 8.67464 7.88345 8.55638 7.59794C8.43812 7.31243 8.40718 6.99827 8.46747 6.69517C8.52775 6.39208 8.67657 6.11367 8.89509 5.89515C9.11361 5.67663 9.39202 5.52781 9.69511 5.46752C9.99821 5.40723 10.3124 5.43818 10.5979 5.55644C10.8834 5.6747 11.1274 5.87497 11.2991 6.13192C11.4708 6.38887 11.5624 6.69097 11.5624 7C11.5624 7.4144 11.3978 7.81183 11.1048 8.10485C10.8118 8.39788 10.4143 8.5625 9.99994 8.5625Z" fill="#6B6C80"/>
</svg>
