<svg width="20" height="20" viewBox="0 0 20 20" fill="none" xmlns="http://www.w3.org/2000/svg">
<g id="Icon">
<path id="Vector" d="M3.54366 8.33464C3.40379 8.87914 3.33323 9.43912 3.33366 10.0013C3.33366 10.5763 3.40699 11.1346 3.54366 11.668H5.91699C5.80464 10.5597 5.80464 9.44291 5.91699 8.33464H3.54366ZM4.22533 6.66797H6.18033C6.40199 5.6538 6.72199 4.74547 7.11449 3.98964C5.90464 4.57248 4.89801 5.50566 4.22533 6.66797ZM16.457 8.33464H14.0837C14.196 9.44291 14.196 10.5597 14.0837 11.668H16.457C16.7375 10.5746 16.7375 9.42804 16.457 8.33464ZM15.7753 6.66797C15.1026 5.50566 14.096 4.57248 12.8862 3.98964C13.2795 4.74547 13.5987 5.6538 13.8203 6.66797H15.7753ZM7.59366 8.33464C7.53122 8.88799 7.50006 9.44443 7.50033 10.0013C7.50033 10.5721 7.53199 11.1305 7.59366 11.668H12.407C12.5325 10.5604 12.5325 9.4422 12.407 8.33464H7.59366ZM7.89199 6.66797H12.1087C11.957 6.04155 11.7382 5.43331 11.4562 4.8538C10.9328 3.80797 10.3728 3.33464 10.0003 3.33464C9.62699 3.33464 9.06783 3.80797 8.54449 4.8538C8.28199 5.38047 8.06116 5.99297 7.89199 6.66797ZM4.22533 13.3346C4.89801 14.4969 5.90464 15.4301 7.11449 16.013C6.72116 15.2571 6.40199 14.3488 6.18033 13.3346H4.22533ZM15.7753 13.3346H13.8203C13.5987 14.3488 13.2787 15.2571 12.8862 16.013C14.096 15.4301 15.1026 14.4969 15.7753 13.3346ZM7.89199 13.3346C8.06116 14.0096 8.28199 14.6221 8.54449 15.1488C9.06783 16.1946 9.62783 16.668 10.0003 16.668C10.3737 16.668 10.9328 16.1946 11.4562 15.1488C11.7187 14.6221 11.9395 14.0096 12.1087 13.3346H7.89199ZM10.0003 18.3346C5.39783 18.3346 1.66699 14.6038 1.66699 10.0013C1.66699 5.3988 5.39783 1.66797 10.0003 1.66797C14.6028 1.66797 18.3337 5.3988 18.3337 10.0013C18.3337 14.6038 14.6028 18.3346 10.0003 18.3346Z" fill="#1F2037"/>
</g>
</svg>
