<svg xmlns="http://www.w3.org/2000/svg" width="20" height="20" viewBox="0 0 20 20" fill="none">
  <path d="M10 7.80068C9.36348 7.80068 8.75303 8.05354 8.30294 8.50363C7.85286 8.95371 7.6 9.56416 7.6 10.2007C7.6 10.8372 7.85286 11.4477 8.30294 11.8977C8.75303 12.3478 9.36348 12.6007 10 12.6007C10.6365 12.6007 11.247 12.3478 11.6971 11.8977C12.1471 11.4477 12.4 10.8372 12.4 10.2007C12.4 9.56416 12.1471 8.95371 11.6971 8.50363C11.247 8.05354 10.6365 7.80068 10 7.80068ZM10 6.20068C11.0609 6.20068 12.0783 6.62211 12.8284 7.37226C13.5786 8.1224 14 9.13982 14 10.2007C14 11.2615 13.5786 12.279 12.8284 13.0291C12.0783 13.7793 11.0609 14.2007 10 14.2007C8.93913 14.2007 7.92172 13.7793 7.17157 13.0291C6.42143 12.279 6 11.2615 6 10.2007C6 9.13982 6.42143 8.1224 7.17157 7.37226C7.92172 6.62211 8.93913 6.20068 10 6.20068ZM15.2 6.00068C15.2 6.2659 15.0946 6.52025 14.9071 6.70779C14.7196 6.89533 14.4652 7.00068 14.2 7.00068C13.9348 7.00068 13.6804 6.89533 13.4929 6.70779C13.3054 6.52025 13.2 6.2659 13.2 6.00068C13.2 5.73547 13.3054 5.48111 13.4929 5.29358C13.6804 5.10604 13.9348 5.00068 14.2 5.00068C14.4652 5.00068 14.7196 5.10604 14.9071 5.29358C15.0946 5.48111 15.2 5.73547 15.2 6.00068ZM10 3.80068C8.0208 3.80068 7.6976 3.80628 6.7768 3.84708C6.1496 3.87668 5.7288 3.96068 5.3384 4.11268C5.01169 4.23263 4.71633 4.42489 4.4744 4.67508C4.22401 4.917 4.03148 5.21235 3.9112 5.53908C3.7592 5.93108 3.6752 6.35108 3.6464 6.97748C3.6048 7.86068 3.5992 8.16948 3.5992 10.2007C3.5992 12.1807 3.6048 12.5031 3.6456 13.4239C3.6752 14.0503 3.7592 14.4719 3.9104 14.8615C4.0464 15.2095 4.2064 15.4599 4.472 15.7255C4.7416 15.9943 4.992 16.1551 5.336 16.2879C5.7312 16.4407 6.152 16.5255 6.776 16.5543C7.6592 16.5959 7.968 16.6007 9.9992 16.6007C11.9792 16.6007 12.3016 16.5951 13.2224 16.5543C13.848 16.5247 14.2688 16.4407 14.66 16.2895C14.9864 16.1689 15.2816 15.9768 15.524 15.7271C15.7936 15.4583 15.9544 15.2079 16.0872 14.8631C16.2392 14.4695 16.324 14.0487 16.3528 13.4231C16.3944 12.5407 16.3992 12.2311 16.3992 10.2007C16.3992 8.22148 16.3936 7.89828 16.3528 6.97748C16.3232 6.35188 16.2384 5.92948 16.0872 5.53908C15.9666 5.2127 15.7744 4.91747 15.5248 4.67508C15.283 4.42456 14.9876 4.23202 14.6608 4.11188C14.2688 3.95988 13.848 3.87588 13.2224 3.84708C12.34 3.80548 12.032 3.80068 10 3.80068ZM10 2.20068C12.1736 2.20068 12.4448 2.20868 13.2984 2.24868C14.1496 2.28868 14.7304 2.42228 15.24 2.62068C15.768 2.82388 16.2128 3.09908 16.6576 3.54308C17.0644 3.943 17.3792 4.42675 17.58 4.96068C17.7776 5.47028 17.912 6.05108 17.952 6.90308C17.9896 7.75588 18 8.02708 18 10.2007C18 12.3743 17.992 12.6455 17.952 13.4983C17.912 14.3503 17.7776 14.9303 17.58 15.4407C17.3797 15.9749 17.0649 16.4588 16.6576 16.8583C16.2576 17.2649 15.7738 17.5797 15.24 17.7807C14.7304 17.9783 14.1496 18.1127 13.2984 18.1527C12.4448 18.1903 12.1736 18.2007 10 18.2007C7.8264 18.2007 7.5552 18.1927 6.7016 18.1527C5.8504 18.1127 5.2704 17.9783 4.76 17.7807C4.22586 17.5803 3.74202 17.2654 3.3424 16.8583C2.93555 16.4584 2.62077 15.9746 2.42 15.4407C2.2216 14.9311 2.088 14.3503 2.048 13.4983C2.0096 12.6455 2 12.3743 2 10.2007C2 8.02708 2.008 7.75588 2.048 6.90308C2.088 6.05028 2.2216 5.47108 2.42 4.96068C2.62019 4.42643 2.93504 3.94254 3.3424 3.54308C3.74214 3.13607 4.22594 2.82127 4.76 2.62068C5.2696 2.42228 5.8496 2.28868 6.7016 2.24868C7.5552 2.21108 7.8264 2.20068 10 2.20068Z" fill="#0A0A0A"/>
</svg>